{
.appVersion = "1342";
DisplayStrings = (
ABC
);
copyright = "Copyright 2020 FKxGF Schoolbook Project Authors (https://github.com/floriankarsten/fk-gf-schoolbook)";
customParameters = (
{
name = vendorID;
value = FK;
},
{
name = licenseURL;
value = "https://scripts.sil.org/OFL";
},
{
name = license;
value = "This Font Software is licensed under the SIL Open Font License, Version 1.1. This license is available with a FAQ at: https://scripts.sil.org/OFL";
},
{
name = Axes;
value = (
{
Name = Weight;
Tag = wght;
},
{
Name = "Optical size";
Tag = opsz;
}
);
},
{
name = "Use Typo Metrics";
value = 1;
}
);
date = "2020-08-19 14:36:15 +0000";
designer = "Florian Karsten";
designerURL = "https://fonts.floriankarsten.com";
familyName = "FKxGF Schoolbook";
featurePrefixes = (
{
automatic = 1;
code = "languagesystem DFLT dflt;\012";
name = Languagesystems;
}
);
features = (
{
automatic = 1;
code = "lookup ccmp_Other_1 {\012	@CombiningTopAccents = [dotaccentcomb];\012	sub [i j]' @CombiningTopAccents by [idotless jdotless];\012} ccmp_Other_1;\012";
name = ccmp;
}
);
fontMaster = (
{
alignmentZones = (
"{1560, 24}",
"{1500, 24}",
"{1100, 24}",
"{0, -24}",
"{-420, -24}"
);
ascender = 1560;
capHeight = 1500;
custom = "Thin Text";
customParameters = (
{
name = typoAscender;
value = 1800;
},
{
name = hheaAscender;
value = 1800;
},
{
name = typoDescender;
value = -600;
},
{
name = hheaDescender;
value = -600;
},
{
name = typoLineGap;
value = 0;
},
{
name = hheaLineGap;
value = 0;
},
{
name = winAscent;
value = 1800;
},
{
name = winDescent;
value = 600;
}
);
descender = -440;
horizontalStems = (
40
);
iconName = Light_Condensed;
id = "CA54B7DC-FBBB-40FE-ACF3-AABDD76D6A7B";
verticalStems = (
50,
48
);
widthValue = 0;
xHeight = 1100;
},
{
alignmentZones = (
"{1500, 24}",
"{1080, 24}",
"{0, -24}",
"{-420, -24}"
);
ascender = 1500;
capHeight = 1500;
custom = "Thin Display";
customParameters = (
{
name = typoAscender;
value = 1800;
},
{
name = hheaAscender;
value = 1800;
},
{

glyphs = (
{
glyphname = A;
lastChange = "2020-09-22 10:35:23 +0000";
layers = (
{
hints = (
{
origin = "{0, 0}";
scale = "{-1.3, 1}";
type = Corner;
name = _corner.Serif;
options = 1;
},
{
origin = "{0, 3}";
scale = "{1.3, 1}";
type = Corner;
name = _corner.Serif;
},
{
origin = "{0, 4}";
scale = "{-0.76, 1}";
type = Corner;
name = _corner.Serif;
options = 1;
},
{
origin = "{0, 7}";
scale = "{0.76, 1}";
type = Corner;
name = _corner.Serif;
}
);
layerId = "CA54B7DC-FBBB-40FE-ACF3-AABDD76D6A7B";
paths = (
{
closed = 1;
nodes = (
"213 0 LINE",
"832 1453 LINE",
"815 1453 LINE",
"1435 0 LINE",
"1487 0 LINE",
"845 1500 LINE",
"807 1500 LINE",
"165 0 LINE"
);
},
{
closed = 1;
nodes = (
"1233 560 LINE",
"417 560 LINE",
"417 516 LINE",
"1233 516 LINE"
);
}
);
width = 1654;
},
{
hints = (
{
origin = "{0, 7}";
scale = "{0.76, 1}";
type = Corner;
name = _corner.Serif;
},
{
origin = "{0, 0}";
scale = "{-1.3, 1}";
type = Corner;
name = _corner.Serif;
options = 1;
},
{
origin = "{0, 3}";
scale = "{1.3, 1}";
type = Corner;
name = _corner.Serif;
},
{
origin = "{0, 4}";
scale = "{-0.76, 1}";
type = Corner;
name = _corner.Serif;
options = 1;
}
);
layerId = "1E61A082-F045-49A7-AB52-DD1B03FD9B54";
paths = (
{
closed = 1;
nodes = (
"240 0 LINE",
"831 1453 LINE",
"814 1453 LINE",
"1405 0 LINE",
"1457 0 LINE",
"845 1500 LINE",
"809 1500 LINE",
"197 0 LINE"
);
},
{
closed = 1;
nodes = (
"1213 558 LINE",
"437 558 LINE",
"437 520 LINE",
"1213 520 LINE"
);
}
);
width = 1654;
},
{
hints = (
{
origin = "{0, 0}";
scale = "{-1.56, 1}";
type = Corner;
name = _corner.Serif;
options = 1;
},
{
origin = "{0, 3}";
scale = "{1.56, 1}";
type = Corner;
name = _corner.Serif;
},
{
origin = "{0, 4}";
scale = "{-0.42533, 1}";
type = Corner;
name = _corner.Serif;
options = 1;
},
{
origin = "{0, 7}";
scale = "{0.42533, 1}";
type = Corner;
name = _corner.Serif;
}
);
layerId = "219068EA-2B9B-40DC-949E-B60449C01B8A";
paths = (
{
closed = 1;
nodes = (
"403 0 LINE",
"886 1240 LINE",
"711 1241 LINE",
"1176 0 LINE",
"1632 0 LINE",
"1052 1471 LINE",
"684 1471 LINE",
"104 0 LINE"
);
},
{
closed = 1;
nodes = (
"1051 662 LINE",
"499 662 LINE",
"499 411 LINE",
"1051 411 LINE"
);
}
);
width = 1736;
},
{
hints = (
{
origin = "{0, 7}";
scale = "{0.42533, 1}";
type = Corner;
name = _corner.Serif;
},
{
origin = "{0, 0}";
scale = "{-1.66, 1}";
type = Corner;
name = _corner.Serif;
options = 1;
},
{
origin = "{0, 3}";
scale = "{1.66, 1}";
type = Corner;
name = _corner.Serif;
},
{
origin = "{0, 4}";
scale = "{-0.42533, 1}";
type = Corner;
name = _corner.Serif;
options = 1;
}
);
layerId = "0C29AA02-E021-4BD1-A2C4-87F681D64C35";
paths = (
{
closed = 1;
nodes = (
"367 0 LINE",
"852 1240 LINE",
"698 1241 LINE",
"1164 0 LINE",
"1619 0 LINE",
"1039 1471 LINE",
"690 1471 LINE",
"110 0 LINE"
);
},
{
closed = 1;
nodes = (
"1087 628 LINE",
"459 628 LINE",
"459 413 LINE",
"1087 413 LINE"
);
}
);
width = 1727;
}
);
leftKerningGroup = A;
rightKerningGroup = A;
unicode = 0041;
},
{
glyphname = B;
lastChange = "2020-09-22 10:40:29 +0000";
layers = (
{
hints = (
{
origin = "{2, 1}";
scale = "{-1.08, 1}";
type = Corner;
name = _corner.Serif;
},
{
origin = "{2, 2}";
scale = "{1.1, 1}";
type = Corner;
name = _corner.Serif;
options = 1;
}
);
layerId = "CA54B7DC-FBBB-40FE-ACF3-AABDD76D6A7B";
paths = (
{
closed = 1;
nodes = (
"347 1456 LINE",
"873 1456 LINE SMOOTH",
"1121 1456 OFFCURVE",
"1277 1343 OFFCURVE",
"1277 1121 CURVE SMOOTH",
"1277 899 OFFCURVE",
"1121 785 OFFCURVE",
"873 785 CURVE SMOOTH",
"347 785 LINE",
"347 756 LINE",
"885 755 LINE SMOOTH",
"1159 754 OFFCURVE",
"1325 880 OFFCURVE",
"1325 1121 CURVE SMOOTH",
"1325 1371 OFFCURVE",
"1149 1500 OFFCURVE",
"885 1500 CURVE SMOOTH",
"347 1500 LINE"
);
},
{
closed = 1;
nodes = (
"347 741 LINE",
"917 741 LINE SMOOTH",
"1173 741 OFFCURVE",
"1333 622 OFFCURVE",
"1333 392 CURVE SMOOTH",
"1333 162 OFFCURVE",
"1173 44 OFFCURVE",
"917 44 CURVE SMOOTH",
"347 44 LINE",
"347 0 LINE",
"929 0 LINE SMOOTH",
"1201 0 OFFCURVE",
"1381 133 OFFCURVE",
"1381 391 CURVE SMOOTH",
"1381 646 OFFCURVE",
"1210 773 OFFCURVE",
"929 773 CURVE SMOOTH",
"347 773 LINE"
);
},
{
closed = 1;
nodes = (
"347 1500 LINE",
"299 1500 LINE",
"299 0 LINE",
"347 0 LINE"
);
}
);
width = 1459;
},
{
hints = (
{
origin = "{2, 1}";
scale = "{-1.08, 1}";
type = Corner;
name = _corner.Serif;
},
{
origin = "{2, 2}";
scale = "{1.1, 1}";
type = Corner;
name = _corner.Serif;
options = 1;
}
);
layerId = "1E61A082-F045-49A7-AB52-DD1B03FD9B54";
paths = (
{
closed = 1;
nodes = (
"347 1462 LINE",
"853 1462 LINE SMOOTH",
"1101 1462 OFFCURVE",
"1257 1347 OFFCURVE",
"1257 1122 CURVE SMOOTH",
"1257 897 OFFCURVE",
"1101 781 OFFCURVE",
"853 781 CURVE SMOOTH",
"347 781 LINE",
"347 758 LINE",
"865 757 LINE SMOOTH",
"1139 756 OFFCURVE",
"1305 881 OFFCURVE",
"1305 1121 CURVE SMOOTH",
"1305 1371 OFFCURVE",
"1129 1500 OFFCURVE",
"865 1500 CURVE SMOOTH",
"347 1500 LINE"
);
},
{
closed = 1;
nodes = (
"347 743 LINE",
"897 743 LINE SMOOTH",
"1153 743 OFFCURVE",
"1313 623 OFFCURVE",
"1313 390 CURVE SMOOTH",
"1313 157 OFFCURVE",
"1153 38 OFFCURVE",
"897 38 CURVE SMOOTH",
"347 38 LINE",
"347 0 LINE",
"909 0 LINE SMOOTH",
"1181 0 OFFCURVE",
"1361 133 OFFCURVE",
"1361 391 CURVE SMOOTH",
"1361 643 OFFCURVE",
"1190 769 OFFCURVE",
"909 769 CURVE SMOOTH",
"347 769 LINE"
);
},
{
closed = 1;
nodes = (
"347 1500 LINE",
"299 1500 LINE",
"299 0 LINE",
"347 0 LINE"
);
}
);
width = 1459;
},
{
hints = (
{
origin = "{2, 1}";
scale = "{-0.96, 0.96933}";
type = Corner;
name = _corner.Serif;
},
{
origin = "{2, 2}";
type = Corner;
name = _corner.Serif;
options = 1;
}
);
layerId = "219068EA-2B9B-40DC-949E-B60449C01B8A";
paths = (
{
closed = 1;
nodes = (
"672 1217 LINE",
"854 1217 LINE SMOOTH",
"967 1217 OFFCURVE",
"1037 1155 OFFCURVE",
"1037 1039 CURVE SMOOTH",
"1037 923 OFFCURVE",
"967 861 OFFCURVE",
"854 861 CURVE SMOOTH",
"672 861 LINE",
"672 708 LINE",
"931 708 LINE SMOOTH",
"1254 708 OFFCURVE",
"1469 836 OFFCURVE",
"1469 1091 CURVE SMOOTH",
"1469 1344 OFFCURVE",
"1254 1471 OFFCURVE",
"931 1471 CURVE SMOOTH",
"672 1471 LINE"
);
},
{
closed = 1;
nodes = (
"672 608 LINE",
"935 608 LINE SMOOTH",
"1052 608 OFFCURVE",
"1121 551 OFFCURVE",
"1121 434 CURVE SMOOTH",
"1121 316 OFFCURVE",
"1052 260 OFFCURVE",
"935 260 CURVE SMOOTH",
"672 260 LINE",
"672 0 LINE",
"1021 0 LINE SMOOTH",
"1340 0 OFFCURVE",
"1552 130 OFFCURVE",
"1552 394 CURVE SMOOTH",
"1552 662 OFFCURVE",
"1340 792 OFFCURVE",
"1021 792 CURVE SMOOTH",
"672 792 LINE"
);
},
{
closed = 1;
nodes = (
"672 1471 LINE",
"253 1471 LINE",
"253 0 LINE",
"672 0 LINE"
);
}
);
width = 1637;
},
{
hints = (
{
origin = "{2, 1}";
scale = "{-0.96, 0.98467}";
type = Corner;
name = _corner.Serif;
},
{
origin = "{2, 2}";
type = Corner;
name = _corner.Serif;
options = 1;
}
);
layerId = "0C29AA02-E021-4BD1-A2C4-87F681D64C35";
paths = (
{
closed = 1;
nodes = (
"611 1250 LINE",
"775 1250 LINE SMOOTH",
"901 1250 OFFCURVE",
"977 1181 OFFCURVE",
"977 1048 CURVE SMOOTH",
"977 916 OFFCURVE",
"901 847 OFFCURVE",
"775 847 CURVE SMOOTH",
"611 847 LINE",
"611 729 LINE",
"870 729 LINE SMOOTH",
"1194 729 OFFCURVE",
"1408 848 OFFCURVE",
"1408 1101 CURVE SMOOTH",
"1408 1350 OFFCURVE",
"1194 1471 OFFCURVE",
"870 1471 CURVE SMOOTH",
"611 1471 LINE"
);
},
{
closed = 1;
nodes = (
"611 626 LINE",
"850 626 LINE SMOOTH",
"979 626 OFFCURVE",
"1061 564 OFFCURVE",
"1061 425 CURVE SMOOTH",
"1061 286 OFFCURVE",
"979 224 OFFCURVE",
"850 224 CURVE SMOOTH",
"611 224 LINE",
"611 0 LINE",
"960 0 LINE SMOOTH",
"1280 0 OFFCURVE",
"1492 117 OFFCURVE",
"1492 379 CURVE SMOOTH",
"1492 644 OFFCURVE",
"1280 761 OFFCURVE",
"960 761 CURVE SMOOTH",
"611 761 LINE"
);
},
{
closed = 1;
nodes = (
"611 1471 LINE",
"192 1471 LINE",
"192 0 LINE",
"611 0 LINE"
);
}
);
width = 1538;
}
);
leftKerningGroup = I;
leftMetricsKey = H;
rightKerningGroup = B;
unicode = 0042;
},
{
glyphname = C;
lastChange = "2020-09-22 10:40:04 +0000";
layers = (
{
layerId = "CA54B7DC-FBBB-40FE-ACF3-AABDD76D6A7B";
paths = (
{
closed = 1;
nodes = (
"1495 980 LINE",
"1485 1303 OFFCURVE",
"1250 1524 OFFCURVE",
"852 1524 CURVE SMOOTH",
"446 1524 OFFCURVE",
"130 1239 OFFCURVE",
"130 750 CURVE SMOOTH",
"130 261 OFFCURVE",
"450 -24 OFFCURVE",
"862 -24 CURVE SMOOTH",
"1284 -24 OFFCURVE",
"1510 243 OFFCURVE",
"1518 548 CURVE",
"1474 548 LINE",
"1461 264 OFFCURVE",
"1255 20 OFFCURVE",
"862 20 CURVE SMOOTH",
"476 20 OFFCURVE",
"178 306 OFFCURVE",
"178 750 CURVE SMOOTH",
"178 1194 OFFCURVE",
"472 1480 OFFCURVE",
"852 1480 CURVE SMOOTH",
"1258 1480 OFFCURVE",
"1442 1239 OFFCURVE",
"1464 980 CURVE"
);
},
{
closed = 1;
nodes = (
"1464 1500 LINE",
"1464 1054 LINE",
"1495 980 LINE",
"1508 980 LINE",
"1508 1500 LINE"
);
}
);
width = 1638;
},
{
layerId = "1E61A082-F045-49A7-AB52-DD1B03FD9B54";
paths = (
{
closed = 1;
nodes = (
"1430 940 LINE",
"1421 1287 OFFCURVE",
"1198 1524 OFFCURVE",
"822 1524 CURVE SMOOTH",
"433 1524 OFFCURVE",
"130 1239 OFFCURVE",
"130 750 CURVE SMOOTH",
"130 261 OFFCURVE",
"437 -24 OFFCURVE",
"832 -24 CURVE SMOOTH",
"1235 -24 OFFCURVE",
"1450 262 OFFCURVE",
"1458 588 CURVE",
"1418 588 LINE",
"1406 279 OFFCURVE",
"1208 14 OFFCURVE",
"832 14 CURVE SMOOTH",
"463 14 OFFCURVE",
"178 302 OFFCURVE",
"178 750 CURVE SMOOTH",
"178 1198 OFFCURVE",
"459 1486 OFFCURVE",
"822 1486 CURVE SMOOTH",
"1208 1486 OFFCURVE",
"1383 1223 OFFCURVE",
"1404 940 CURVE"
);
},
{
closed = 1;
nodes = (
"1408 1500 LINE",
"1408 994 LINE",
"1430 940 LINE",
"1448 940 LINE",
"1448 1500 LINE"
);
}
);
width = 1608;
},
{
layerId = "219068EA-2B9B-40DC-949E-B60449C01B8A";
paths = (
{
closed = 1;
nodes = (
"1413 945 LINE",
"1378 1268 OFFCURVE",
"1177 1491 OFFCURVE",
"803 1491 CURVE SMOOTH",
"390 1491 OFFCURVE",
"61 1213 OFFCURVE",
"61 735 CURVE SMOOTH",
"61 258 OFFCURVE",
"394 -20 OFFCURVE",
"809 -20 CURVE SMOOTH",
"1227 -20 OFFCURVE",
"1428 193 OFFCURVE",
"1475 478 CURVE",
"1183 478 LINE",
"1147 387 OFFCURVE",
"1083 285 OFFCURVE",
"892 285 CURVE SMOOTH",
"677 285 OFFCURVE",
"523 460 OFFCURVE",
"523 735 CURVE SMOOTH",
"523 1035 OFFCURVE",
"669 1226 OFFCURVE",
"876 1226 CURVE SMOOTH",
"1092 1226 OFFCURVE",
"1182 1089 OFFCURVE",
"1191 945 CURVE"
);
},
{
closed = 1;
nodes = (
"1188 1471 LINE",
"1188 1238 LINE",
"1413 945 LINE",
"1450 945 LINE",
"1450 1471 LINE"
);
}
);
width = 1533;
},
{
layerId = "0C29AA02-E021-4BD1-A2C4-87F681D64C35";
paths = (
{
closed = 1;
nodes = (
"1477 879 LINE",
"1453 1274 OFFCURVE",
"1244 1491 OFFCURVE",
"840 1491 CURVE SMOOTH",
"385 1491 OFFCURVE",
"33 1213 OFFCURVE",
"33 735 CURVE SMOOTH",
"33 258 OFFCURVE",
"385 -20 OFFCURVE",
"840 -20 CURVE SMOOTH",
"1290 -20 OFFCURVE",
"1510 247 OFFCURVE",
"1530 617 CURVE",
"1293 617 LINE",
"1273 415 OFFCURVE",
"1177 245 OFFCURVE",
"920 245 CURVE SMOOTH",
"663 245 OFFCURVE",
"495 437 OFFCURVE",
"495 735 CURVE SMOOTH",
"495 1057 OFFCURVE",
"663 1263 OFFCURVE",
"920 1263 CURVE SMOOTH",
"1182 1263 OFFCURVE",
"1286 1077 OFFCURVE",
"1301 879 CURVE"
);
},
{
closed = 1;
nodes = (
"1301 1471 LINE",
"1301 1148 LINE",
"1477 879 LINE",
"1526 879 LINE",
"1526 1471 LINE"
);
}
);
width = 1595;
}
);
leftKerningGroup = O;
leftMetricsKey = O;
rightKerningGroup = C;
unicode = 0043;
},
{
glyphname = D;
lastChange = "2020-09-22 10:38:29 +0000";
layers = (
{
hints = (
{
origin = "{1, 1}";
scale = "{-1.08, 1}";
type = Corner;
name = _corner.Serif;
},
{
origin = "{1, 2}";
scale = "{1.1, 1}";
type = Corner;
name = _corner.Serif;
options = 1;
}
);
layerId = "CA54B7DC-FBBB-40FE-ACF3-AABDD76D6A7B";
paths = (
{
closed = 1;
nodes = (
"347 1456 LINE",
"725 1456 LINE SMOOTH",
"1159 1456 OFFCURVE",
"1443 1181 OFFCURVE",
"1443 750 CURVE SMOOTH",
"1443 319 OFFCURVE",
"1159 44 OFFCURVE",
"725 44 CURVE SMOOTH",
"347 44 LINE",
"347 0 LINE",
"725 0 LINE SMOOTH",
"1187 0 OFFCURVE",
"1491 275 OFFCURVE",
"1491 750 CURVE SMOOTH",
"1491 1225 OFFCURVE",
"1187 1500 OFFCURVE",
"725 1500 CURVE SMOOTH",
"347 1500 LINE"
);
},
{
closed = 1;
nodes = (
"347 1500 LINE",
"299 1500 LINE",
"299 0 LINE",
"347 0 LINE"
);
}
);
width = 1621;
},
{
hints = (
{
origin = "{1, 1}";
scale = "{-1.08, 1}";
type = Corner;
name = _corner.Serif;
},
{
origin = "{1, 2}";
scale = "{1.1, 1}";
type = Corner;
name = _corner.Serif;
options = 1;
}
);
layerId = "1E61A082-F045-49A7-AB52-DD1B03FD9B54";
paths = (
{
closed = 1;
nodes = (
"347 1462 LINE",
"695 1462 LINE SMOOTH",
"1129 1462 OFFCURVE",
"1413 1185 OFFCURVE",
"1413 750 CURVE SMOOTH",
"1413 315 OFFCURVE",
"1129 38 OFFCURVE",
"695 38 CURVE SMOOTH",
"347 38 LINE",
"347 0 LINE",
"695 0 LINE SMOOTH",
"1157 0 OFFCURVE",
"1461 275 OFFCURVE",
"1461 750 CURVE SMOOTH",
"1461 1225 OFFCURVE",
"1157 1500 OFFCURVE",
"695 1500 CURVE SMOOTH",
"347 1500 LINE"
);
},
{
closed = 1;
nodes = (
"347 1500 LINE",
"299 1500 LINE",
"299 0 LINE",
"347 0 LINE"
);
}
);
width = 1591;
},
{
hints = (
{
origin = "{1, 1}";
scale = "{-0.96, 0.96933}";
type = Corner;
name = _corner.Serif;
},
{
origin = "{1, 2}";
type = Corner;
name = _corner.Serif;
options = 1;
}
);
layerId = "219068EA-2B9B-40DC-949E-B60449C01B8A";
paths = (
{
closed = 1;
nodes = (
"672 1217 LINE",
"761 1217 LINE SMOOTH",
"988 1217 OFFCURVE",
"1125 1029 OFFCURVE",
"1125 737 CURVE SMOOTH",
"1125 445 OFFCURVE",
"988 260 OFFCURVE",
"761 260 CURVE SMOOTH",
"672 260 LINE",
"672 0 LINE",
"825 0 LINE SMOOTH",
"1290 0 OFFCURVE",
"1587 270 OFFCURVE",
"1587 735 CURVE SMOOTH",
"1587 1201 OFFCURVE",
"1290 1471 OFFCURVE",
"825 1471 CURVE SMOOTH",
"672 1471 LINE"
);
},
{
closed = 1;
nodes = (
"672 1471 LINE",
"253 1471 LINE",
"253 0 LINE",
"672 0 LINE"
);
}
);
width = 1647;
},
{
hints = (
{
origin = "{1, 1}";
scale = "{-0.96, 0.98467}";
type = Corner;
name = _corner.Serif;
},
{
origin = "{1, 2}";
type = Corner;
name = _corner.Serif;
options = 1;
}
);
layerId = "0C29AA02-E021-4BD1-A2C4-87F681D64C35";
paths = (
{
closed = 1;
nodes = (
"611 1250 LINE",
"703 1250 LINE SMOOTH",
"942 1250 OFFCURVE",
"1099 1052 OFFCURVE",
"1099 737 CURVE SMOOTH",
"1099 422 OFFCURVE",
"942 224 OFFCURVE",
"703 224 CURVE SMOOTH",
"611 224 LINE",
"611 0 LINE",
"765 0 LINE SMOOTH",
"1243 0 OFFCURVE",
"1561 270 OFFCURVE",
"1561 735 CURVE SMOOTH",
"1561 1201 OFFCURVE",
"1243 1471 OFFCURVE",
"765 1471 CURVE SMOOTH",
"611 1471 LINE"
);
},
{
closed = 1;
nodes = (
"611 1471 LINE",
"192 1471 LINE",
"192 0 LINE",
"611 0 LINE"
);
}
);
width = 1593;
}
);
leftKerningGroup = I;
leftMetricsKey = H;
rightKerningGroup = O;
rightMetricsKey = O;
unicode = 0044;
},
{
glyphname = E;
lastChange = "2020-09-22 10:43:50 +0000";
layers = (
{
hints = (
{
origin = "{2, 1}";
scale = "{-1.08, 1}";
type = Corner;
name = _corner.Serif;
},
{
origin = "{2, 2}";
scale = "{1.1, 1}";
type = Corner;
name = _corner.Serif;
options = 1;
}
);
layerId = "CA54B7DC-FBBB-40FE-ACF3-AABDD76D6A7B";
paths = (
{
closed = 1;
nodes = (
"1351 44 LINE",
"347 44 LINE",
"347 0 LINE",
"1351 0 LINE"
);
},
{
closed = 1;
nodes = (
"1333 1500 LINE",
"347 1500 LINE",
"347 1456 LINE",
"1333 1456 LINE"
);
},
{
closed = 1;
nodes = (
"347 1500 LINE",
"299 1500 LINE",
"299 0 LINE",
"347 0 LINE"
);
},
{
closed = 1;
nodes = (
"917 814 LINE",
"347 814 LINE",
"347 770 LINE",
"917 770 LINE"
);
},
{
closed = 1;
nodes = (
"1263 1456 OFFCURVE",
"1289 1430 OFFCURVE",
"1289 1326 CURVE SMOOTH",
"1289 1000 LINE",
"1333 1000 LINE",
"1333 1456 LINE",
"1163 1456 LINE"
);
},
{
closed = 1;
nodes = (
"1351 44 LINE",
"1351 520 LINE",
"1307 520 LINE",
"1307 174 LINE SMOOTH",
"1307 70 OFFCURVE",
"1281 44 OFFCURVE",
"1181 44 CURVE"
);
},
{
closed = 1;
nodes = (
"917 814 LINE",
"917 1146 LINE",
"875 1146 LINE",
"875 936 LINE SMOOTH",
"875 838 OFFCURVE",
"851 814 OFFCURVE",
"757 814 CURVE"
);
},
{
closed = 1;
nodes = (
"851 770 OFFCURVE",
"875 746 OFFCURVE",
"875 648 CURVE SMOOTH",
"875 364 LINE",
"917 364 LINE",
"917 770 LINE",
"757 770 LINE"
);
}
);
width = 1489;
},
{
hints = (
{
origin = "{2, 1}";
scale = "{-1.08, 1}";
type = Corner;
name = _corner.Serif;
},
{
origin = "{2, 2}";
scale = "{1.1, 1}";
type = Corner;
name = _corner.Serif;
options = 1;
}
);
layerId = "1E61A082-F045-49A7-AB52-DD1B03FD9B54";
paths = (
{
closed = 1;
nodes = (
"1331 38 LINE",
"347 38 LINE",
"347 0 LINE",
"1331 0 LINE"
);
},
{
closed = 1;
nodes = (
"1313 1500 LINE",
"347 1500 LINE",
"347 1462 LINE",
"1313 1462 LINE"
);
},
{
closed = 1;
nodes = (
"347 1500 LINE",
"299 1500 LINE",
"299 0 LINE",
"347 0 LINE"
);
},
{
closed = 1;
nodes = (
"917 810 LINE",
"347 810 LINE",
"347 772 LINE",
"917 772 LINE"
);
},
{
closed = 1;
nodes = (
"1247 1462 OFFCURVE",
"1273 1436 OFFCURVE",
"1273 1332 CURVE SMOOTH",
"1273 940 LINE",
"1313 940 LINE",
"1313 1462 LINE",
"1147 1462 LINE"
);
},
{
closed = 1;
nodes = (
"1331 38 LINE",
"1331 580 LINE",
"1291 580 LINE",
"1291 168 LINE SMOOTH",
"1291 64 OFFCURVE",
"1265 38 OFFCURVE",
"1165 38 CURVE"
);
},
{
closed = 1;
nodes = (
"917 810 LINE",
"917 1202 LINE",
"879 1202 LINE",
"879 932 LINE SMOOTH",
"879 834 OFFCURVE",
"855 810 OFFCURVE",
"761 810 CURVE"
);
},
{
closed = 1;
nodes = (
"855 772 OFFCURVE",
"879 748 OFFCURVE",
"879 650 CURVE SMOOTH",
"879 308 LINE",
"917 308 LINE",
"917 772 LINE",
"761 772 LINE"
);
}
);
width = 1489;
},
{
hints = (
{
origin = "{2, 1}";
scale = "{-0.96, 0.96933}";
type = Corner;
name = _corner.Serif;
},
{
origin = "{2, 2}";
type = Corner;
name = _corner.Serif;
options = 1;
}
);
layerId = "219068EA-2B9B-40DC-949E-B60449C01B8A";
paths = (
{
closed = 1;
nodes = (
"1377 260 LINE",
"672 260 LINE",
"672 0 LINE",
"1377 0 LINE"
);
},
{
closed = 1;
nodes = (
"1358 1471 LINE",
"672 1471 LINE",
"672 1217 LINE",
"1358 1217 LINE"
);
},
{
closed = 1;
nodes = (
"672 1471 LINE",
"253 1471 LINE",
"253 0 LINE",
"672 0 LINE"
);
},
{
closed = 1;
nodes = (
"1040 906 LINE",
"672 906 LINE",
"672 655 LINE",
"1040 655 LINE"
);
},
{
closed = 1;
nodes = (
"1009 1217 OFFCURVE",
"1090 1136 OFFCURVE",
"1090 964 CURVE SMOOTH",
"1090 989 LINE",
"1358 989 LINE",
"1358 1217 LINE",
"841 1217 LINE"
);
},
{
closed = 1;
nodes = (
"1377 260 LINE",
"1377 502 LINE",
"1109 502 LINE",
"1109 512 LINE SMOOTH",
"1109 341 OFFCURVE",
"1028 260 OFFCURVE",
"860 260 CURVE"
);
},
{
closed = 1;
nodes = (
"1040 906 LINE",
"1040 1115 LINE",
"781 1115 LINE",
"781 1148 LINE SMOOTH",
"781 984 OFFCURVE",
"703 906 OFFCURVE",
"543 906 CURVE"
);
},
{
closed = 1;
nodes = (
"703 655 OFFCURVE",
"781 578 OFFCURVE",
"781 414 CURVE SMOOTH",
"781 363 LINE",
"1040 363 LINE",
"1040 655 LINE",
"543 655 LINE"
);
}
);
width = 1517;
},
{
hints = (
{
origin = "{2, 1}";
scale = "{-0.96, 0.98467}";
type = Corner;
name = _corner.Serif;
},
{
origin = "{2, 2}";
type = Corner;
name = _corner.Serif;
options = 1;
}
);
layerId = "0C29AA02-E021-4BD1-A2C4-87F681D64C35";
paths = (
{
closed = 1;
nodes = (
"1317 224 LINE",
"611 224 LINE",
"611 0 LINE",
"1317 0 LINE"
);
},
{
closed = 1;
nodes = (
"1299 1471 LINE",
"611 1471 LINE",
"611 1250 LINE",
"1299 1250 LINE"
);
},
{
closed = 1;
nodes = (
"611 1471 LINE",
"192 1471 LINE",
"192 0 LINE",
"611 0 LINE"
);
},
{
closed = 1;
nodes = (
"984 881 LINE",
"611 881 LINE",
"611 663 LINE",
"984 663 LINE"
);
},
{
closed = 1;
nodes = (
"979 1250 OFFCURVE",
"1061 1169 OFFCURVE",
"1061 997 CURVE SMOOTH",
"1061 915 LINE",
"1299 915 LINE",
"1299 1250 LINE",
"812 1250 LINE"
);
},
{
closed = 1;
nodes = (
"1317 224 LINE",
"1317 575 LINE",
"1079 575 LINE",
"1079 477 LINE SMOOTH",
"1079 305 OFFCURVE",
"997 224 OFFCURVE",
"830 224 CURVE"
);
},
{
closed = 1;
nodes = (
"984 881 LINE",
"984 1142 LINE",
"760 1142 LINE",
"760 1114 LINE SMOOTH",
"760 954 OFFCURVE",
"687 881 OFFCURVE",
"532 881 CURVE"
);
},
{
closed = 1;
nodes = (
"687 663 OFFCURVE",
"760 590 OFFCURVE",
"760 431 CURVE SMOOTH",
"760 330 LINE",
"984 330 LINE",
"984 663 LINE",
"532 663 LINE"
);
}
);
width = 1418;
}
);
leftKerningGroup = I;
leftMetricsKey = H;
rightKerningGroup = E;
unicode = 0045;
},
{
glyphname = F;
lastChange = "2020-09-22 10:43:59 +0000";
layers = (
{
hints = (
{
origin = "{2, 0}";
scale = "{1.1, 1}";
type = Corner;
name = _corner.Serif;
options = 1;
},
{
origin = "{2, 1}";
scale = "{-1.6, 1}";
type = Corner;
name = _corner.Serif;
},
{
origin = "{2, 3}";
scale = "{-1.08, 1}";
type = Corner;
name = _corner.Serif;
}
);
layerId = "CA54B7DC-FBBB-40FE-ACF3-AABDD76D6A7B";
paths = (
{
closed = 1;
nodes = (
"1287 1500 LINE",
"347 1500 LINE",
"347 1456 LINE",
"1287 1456 LINE"
);
},
{
closed = 1;
nodes = (
"907 794 LINE",
"347 794 LINE",
"347 750 LINE",
"907 750 LINE"
);
},
{
closed = 1;
nodes = (
"299 0 LINE",
"347 0 LINE",
"347 1500 LINE",
"299 1500 LINE"
);
},
{
closed = 1;
nodes = (
"1217 1456 OFFCURVE",
"1243 1430 OFFCURVE",
"1243 1326 CURVE SMOOTH",
"1243 1000 LINE",
"1287 1000 LINE",
"1287 1456 LINE",
"1117 1456 LINE"
);
},
{
closed = 1;
nodes = (
"907 794 LINE",
"907 1146 LINE",
"865 1146 LINE",
"865 916 LINE SMOOTH",
"865 818 OFFCURVE",
"841 794 OFFCURVE",
"747 794 CURVE"
);
},
{
closed = 1;
nodes = (
"841 750 OFFCURVE",
"865 726 OFFCURVE",
"865 628 CURVE SMOOTH",
"865 386 LINE",
"907 386 LINE",
"907 750 LINE",
"747 750 LINE"
);
}
);
width = 1373;
},
{
hints = (
{
origin = "{2, 3}";
scale = "{-1.08, 1}";
type = Corner;
name = _corner.Serif;
},
{
origin = "{2, 0}";
scale = "{1.1, 1}";
type = Corner;
name = _corner.Serif;
options = 1;
},
{
origin = "{2, 1}";
scale = "{-1.6, 1}";
type = Corner;
name = _corner.Serif;
}
);
layerId = "1E61A082-F045-49A7-AB52-DD1B03FD9B54";
paths = (
{
closed = 1;
nodes = (
"1267 1500 LINE",
"347 1500 LINE",
"347 1462 LINE",
"1267 1462 LINE"
);
},
{
closed = 1;
nodes = (
"907 790 LINE",
"347 790 LINE",
"347 752 LINE",
"907 752 LINE"
);
},
{
closed = 1;
nodes = (
"299 0 LINE",
"347 0 LINE",
"347 1500 LINE",
"299 1500 LINE"
);
},
{
closed = 1;
nodes = (
"1201 1462 OFFCURVE",
"1227 1436 OFFCURVE",
"1227 1332 CURVE SMOOTH",
"1227 940 LINE",
"1267 940 LINE",
"1267 1462 LINE",
"1101 1462 LINE"
);
},
{
closed = 1;
nodes = (
"907 790 LINE",
"907 1202 LINE",
"869 1202 LINE",
"869 912 LINE SMOOTH",
"869 814 OFFCURVE",
"845 790 OFFCURVE",
"751 790 CURVE"
);
},
{
closed = 1;
nodes = (
"845 752 OFFCURVE",
"869 728 OFFCURVE",
"869 630 CURVE SMOOTH",
"869 330 LINE",
"907 330 LINE",
"907 752 LINE",
"751 752 LINE"
);
}
);
width = 1373;
},
{
hints = (
{
origin = "{2, 3}";
scale = "{-0.96, 0.96933}";
type = Corner;
name = _corner.Serif;
},
{
origin = "{2, 0}";
type = Corner;
name = _corner.Serif;
options = 1;
},
{
origin = "{2, 1}";
scale = "{-1.2, 1}";
type = Corner;
name = _corner.Serif;
}
);
layerId = "219068EA-2B9B-40DC-949E-B60449C01B8A";
paths = (
{
closed = 1;
nodes = (
"1355 1471 LINE",
"672 1471 LINE",
"672 1217 LINE",
"1355 1217 LINE"
);
},
{
closed = 1;
nodes = (
"1023 898 LINE",
"672 898 LINE",
"672 648 LINE",
"1023 648 LINE"
);
},
{
closed = 1;
nodes = (
"253 0 LINE",
"672 0 LINE",
"672 1471 LINE",
"253 1471 LINE"
);
},
{
closed = 1;
nodes = (
"1005 1217 OFFCURVE",
"1086 1136 OFFCURVE",
"1086 964 CURVE SMOOTH",
"1086 984 LINE",
"1355 984 LINE",
"1355 1217 LINE",
"838 1217 LINE"
);
},
{
closed = 1;
nodes = (
"1023 898 LINE",
"1023 1159 LINE",
"763 1159 LINE",
"763 1140 LINE SMOOTH",
"763 976 OFFCURVE",
"686 898 OFFCURVE",
"526 898 CURVE"
);
},
{
closed = 1;
nodes = (
"686 648 OFFCURVE",
"763 570 OFFCURVE",
"763 406 CURVE SMOOTH",
"763 338 LINE",
"1023 338 LINE",
"1023 648 LINE",
"526 648 LINE"
);
}
);
width = 1416;
},
{
hints = (
{
origin = "{2, 3}";
scale = "{-0.96, 0.98467}";
type = Corner;
name = _corner.Serif;
},
{
origin = "{2, 0}";
type = Corner;
name = _corner.Serif;
options = 1;
},
{
origin = "{2, 1}";
scale = "{-1.4, 1}";
type = Corner;
name = _corner.Serif;
}
);
layerId = "0C29AA02-E021-4BD1-A2C4-87F681D64C35";
paths = (
{
closed = 1;
nodes = (
"1294 1471 LINE",
"611 1471 LINE",
"611 1250 LINE",
"1294 1250 LINE"
);
},
{
closed = 1;
nodes = (
"966 877 LINE",
"611 877 LINE",
"611 659 LINE",
"966 659 LINE"
);
},
{
closed = 1;
nodes = (
"192 0 LINE",
"611 0 LINE",
"611 1471 LINE",
"192 1471 LINE"
);
},
{
closed = 1;
nodes = (
"975 1250 OFFCURVE",
"1056 1169 OFFCURVE",
"1056 997 CURVE SMOOTH",
"1056 915 LINE",
"1294 915 LINE",
"1294 1250 LINE",
"807 1250 LINE"
);
},
{
closed = 1;
nodes = (
"966 877 LINE",
"966 1145 LINE",
"742 1145 LINE",
"742 1109 LINE SMOOTH",
"742 950 OFFCURVE",
"669 877 OFFCURVE",
"513 877 CURVE"
);
},
{
closed = 1;
nodes = (
"669 659 OFFCURVE",
"742 586 OFFCURVE",
"742 426 CURVE SMOOTH",
"742 285 LINE",
"966 285 LINE",
"966 659 LINE",
"513 659 LINE"
);
}
);
width = 1342;
}
);
leftKerningGroup = I;
leftMetricsKey = H;
rightKerningGroup = F;
unicode = 0046;
},
{
glyphname = G;
lastChange = "2020-09-22 10:41:19 +0000";
layers = (
{
layerId = "CA54B7DC-FBBB-40FE-ACF3-AABDD76D6A7B";
paths = (
{
closed = 1;
nodes = (
"1465 1020 LINE",
"1457 1333 OFFCURVE",
"1237 1524 OFFCURVE",
"868 1524 CURVE SMOOTH",
"449 1524 OFFCURVE",
"130 1240 OFFCURVE",
"130 750 CURVE SMOOTH",
"130 260 OFFCURVE",
"450 -24 OFFCURVE",
"874 -24 CURVE SMOOTH",
"1305 -24 OFFCURVE",
"1512 276 OFFCURVE",
"1510 678 CURVE",
"1476 678 LINE",
"1476 326 OFFCURVE",
"1278 20 OFFCURVE",
"874 20 CURVE SMOOTH",
"476 20 OFFCURVE",
"178 306 OFFCURVE",
"178 750 CURVE SMOOTH",
"178 1194 OFFCURVE",
"477 1480 OFFCURVE",
"868 1480 CURVE SMOOTH",
"1242 1480 OFFCURVE",
"1412 1277 OFFCURVE",
"1434 1020 CURVE"
);
},
{
closed = 1;
nodes = (
"1434 1500 LINE",
"1434 1104 LINE",
"1465 1020 LINE",
"1478 1020 LINE",
"1478 1500 LINE"
);
},
{
closed = 1;
nodes = (
"810 678 LINE",
"1750 678 LINE",
"1750 722 LINE",
"810 722 LINE"
);
},
{
closed = 1;
nodes = (
"1476 678 LINE",
"1476 0 LINE",
"1520 0 LINE",
"1520 678 LINE"
);
}
);
width = 1742;
},
{
layerId = "1E61A082-F045-49A7-AB52-DD1B03FD9B54";
paths = (
{
closed = 1;
nodes = (
"1412 980 LINE",
"1404 1318 OFFCURVE",
"1190 1524 OFFCURVE",
"832 1524 CURVE SMOOTH",
"433 1524 OFFCURVE",
"130 1240 OFFCURVE",
"130 750 CURVE SMOOTH",
"130 260 OFFCURVE",
"437 -24 OFFCURVE",
"844 -24 CURVE SMOOTH",
"1250 -24 OFFCURVE",
"1449 269 OFFCURVE",
"1449 662 CURVE",
"1420 662 LINE",
"1420 311 OFFCURVE",
"1231 14 OFFCURVE",
"844 14 CURVE SMOOTH",
"463 14 OFFCURVE",
"178 302 OFFCURVE",
"178 750 CURVE SMOOTH",
"178 1198 OFFCURVE",
"461 1486 OFFCURVE",
"832 1486 CURVE SMOOTH",
"1197 1486 OFFCURVE",
"1363 1262 OFFCURVE",
"1384 980 CURVE"
);
},
{
closed = 1;
nodes = (
"1388 1500 LINE",
"1388 1034 LINE",
"1412 980 LINE",
"1428 980 LINE",
"1428 1500 LINE"
);
},
{
closed = 1;
nodes = (
"780 662 LINE",
"1690 662 LINE",
"1690 700 LINE",
"780 700 LINE"
);
},
{
closed = 1;
nodes = (
"1420 662 LINE",
"1420 0 LINE",
"1460 0 LINE",
"1460 662 LINE"
);
}
);
width = 1712;
},
{
layerId = "219068EA-2B9B-40DC-949E-B60449C01B8A";
paths = (
{
closed = 1;
nodes = (
"1399 959 LINE",
"1364 1269 OFFCURVE",
"1203 1491 OFFCURVE",
"801 1491 CURVE SMOOTH",
"385 1491 OFFCURVE",
"61 1213 OFFCURVE",
"61 735 CURVE SMOOTH",
"61 258 OFFCURVE",
"384 -20 OFFCURVE",
"797 -20 CURVE SMOOTH",
"1170 -20 OFFCURVE",
"1334 229 OFFCURVE",
"1349 497 CURVE",
"1156 497 LINE",
"1131 400 OFFCURVE",
"1076 285 OFFCURVE",
"870 285 CURVE SMOOTH",
"661 285 OFFCURVE",
"523 460 OFFCURVE",
"523 735 CURVE SMOOTH",
"523 1035 OFFCURVE",
"663 1226 OFFCURVE",
"872 1226 CURVE SMOOTH",
"1086 1226 OFFCURVE",
"1180 1099 OFFCURVE",
"1193 959 CURVE"
);
},
{
closed = 1;
nodes = (
"1189 1471 LINE",
"1189 1222 LINE",
"1399 959 LINE",
"1451 959 LINE",
"1451 1471 LINE"
);
},
{
closed = 1;
nodes = (
"852 497 LINE",
"1615 497 LINE",
"1615 751 LINE",
"852 751 LINE"
);
},
{
closed = 1;
nodes = (
"1187 497 LINE",
"1187 0 LINE",
"1453 0 LINE",
"1453 497 LINE"
);
}
);
width = 1671;
},
{
layerId = "0C29AA02-E021-4BD1-A2C4-87F681D64C35";
paths = (
{
closed = 1;
nodes = (
"1415 894 LINE",
"1398 1277 OFFCURVE",
"1204 1491 OFFCURVE",
"801 1491 CURVE SMOOTH",
"369 1491 OFFCURVE",
"33 1213 OFFCURVE",
"33 735 CURVE SMOOTH",
"33 258 OFFCURVE",
"366 -20 OFFCURVE",
"795 -20 CURVE SMOOTH",
"1209 -20 OFFCURVE",
"1378 235 OFFCURVE",
"1395 509 CURVE",
"1249 509 LINE",
"1223 388 OFFCURVE",
"1149 248 OFFCURVE",
"890 248 CURVE SMOOTH",
"650 248 OFFCURVE",
"495 437 OFFCURVE",
"495 735 CURVE SMOOTH",
"495 1058 OFFCURVE",
"645 1263 OFFCURVE",
"875 1263 CURVE SMOOTH",
"1124 1263 OFFCURVE",
"1236 1085 OFFCURVE",
"1251 894 CURVE"
);
},
{
closed = 1;
nodes = (
"1251 1471 LINE",
"1251 1132 LINE",
"1415 894 LINE",
"1476 894 LINE",
"1476 1471 LINE"
);
},
{
closed = 1;
nodes = (
"880 509 LINE",
"1643 509 LINE",
"1643 733 LINE",
"880 733 LINE"
);
},
{
closed = 1;
nodes = (
"1258 509 LINE",
"1258 0 LINE",
"1495 0 LINE",
"1495 509 LINE"
);
}
);
width = 1690;
}
);
leftKerningGroup = O;
leftMetricsKey = O;
rightKerningGroup = G;
unicode = 0047;
},
{
glyphname = H;
lastChange = "2020-09-22 09:34:24 +0000";
layers = (
{
hints = (
{
origin = "{1, 0}";
scale = "{1.18, 1}";
type = Corner;
name = _corner.Serif;
},
{
origin = "{1, 1}";
scale = "{-1.08, 1}";
type = Corner;
name = _corner.Serif;
},
{
origin = "{1, 2}";
scale = "{1.1, 1}";
type = Corner;
name = _corner.Serif;
options = 1;
},
{
origin = "{1, 3}";
scale = "{-1.2, 1}";
type = Corner;
name = _corner.Serif;
},
{
origin = "{2, 0}";
scale = "{1.08, 1}";
type = Corner;
name = _corner.Serif;
},
{
origin = "{2, 1}";
scale = "{-1.18, 1}";
type = Corner;
name = _corner.Serif;
},
{
origin = "{2, 2}";
scale = "{1.2, 1}";
type = Corner;
name = _corner.Serif;
options = 1;
},
{
origin = "{2, 3}";
scale = "{-1.1, 1}";
type = Corner;
name = _corner.Serif;
}
);
layerId = "CA54B7DC-FBBB-40FE-ACF3-AABDD76D6A7B";
paths = (
{
closed = 1;
nodes = (
"1353 782 LINE",
"347 782 LINE",
"347 738 LINE",
"1353 738 LINE"
);
},
{
closed = 1;
nodes = (
"347 1500 LINE",
"299 1500 LINE",
"299 0 LINE",
"347 0 LINE"
);
},
{
closed = 1;
nodes = (
"1401 1500 LINE",
"1353 1500 LINE",
"1353 0 LINE",
"1401 0 LINE"
);
}
);
width = 1700;
},
{
hints = (
{
origin = "{1, 0}";
scale = "{1.18, 1}";
type = Corner;
name = _corner.Serif;
},
{
origin = "{1, 1}";
scale = "{-1.08, 1}";
type = Corner;
name = _corner.Serif;
},
{
origin = "{1, 2}";
scale = "{1.1, 1}";
type = Corner;
name = _corner.Serif;
options = 1;
},
{
origin = "{1, 3}";
scale = "{-1.2, 1}";
type = Corner;
name = _corner.Serif;
},
{
origin = "{2, 0}";
scale = "{1.08, 1}";
type = Corner;
name = _corner.Serif;
},
{
origin = "{2, 1}";
scale = "{-1.18, 1}";
type = Corner;
name = _corner.Serif;
},
{
origin = "{2, 2}";
scale = "{1.2, 1}";
type = Corner;
name = _corner.Serif;
options = 1;
},
{
origin = "{2, 3}";
scale = "{-1.1, 1}";
type = Corner;
name = _corner.Serif;
}
);
layerId = "1E61A082-F045-49A7-AB52-DD1B03FD9B54";
paths = (
{
closed = 1;
nodes = (
"1333 780 LINE",
"347 780 LINE",
"347 742 LINE",
"1333 742 LINE"
);
},
{
closed = 1;
nodes = (
"347 1500 LINE",
"299 1500 LINE",
"299 0 LINE",
"347 0 LINE"
);
},
{
closed = 1;
nodes = (
"1381 1500 LINE",
"1333 1500 LINE",
"1333 0 LINE",
"1381 0 LINE"
);
}
);
width = 1680;
},
{
hints = (
{
origin = "{1, 0}";
scale = "{0.96, 0.96933}";
type = Corner;
name = _corner.Serif;
},
{
origin = "{1, 1}";
scale = "{-0.96, 0.96933}";
type = Corner;
name = _corner.Serif;
},
{
origin = "{1, 2}";
type = Corner;
name = _corner.Serif;
options = 1;
},
{
origin = "{1, 3}";
scale = "{-1, 1}";
type = Corner;
name = _corner.Serif;
},
{
origin = "{2, 0}";
scale = "{0.96, 0.96933}";
type = Corner;
name = _corner.Serif;
},
{
origin = "{2, 1}";
scale = "{-0.96, 0.96933}";
type = Corner;
name = _corner.Serif;
},
{
origin = "{2, 2}";
type = Corner;
name = _corner.Serif;
options = 1;
},
{
origin = "{2, 3}";
scale = "{-1, 1}";
type = Corner;
name = _corner.Serif;
}
);
layerId = "219068EA-2B9B-40DC-949E-B60449C01B8A";
paths = (
{
closed = 1;
nodes = (
"1119 875 LINE",
"672 875 LINE",
"672 615 LINE",
"1119 615 LINE"
);
},
{
closed = 1;
nodes = (
"672 1500 LINE",
"253 1500 LINE",
"253 0 LINE",
"672 0 LINE"
);
},
{
closed = 1;
nodes = (
"1538 1500 LINE",
"1119 1500 LINE",
"1119 0 LINE",
"1538 0 LINE"
);
}
);
width = 1791;
},
{
hints = (
{
origin = "{1, 0}";
scale = "{1.06, 0.98467}";
type = Corner;
name = _corner.Serif;
},
{
origin = "{1, 1}";
scale = "{-0.96, 0.98467}";
type = Corner;
name = _corner.Serif;
},
{
origin = "{1, 2}";
type = Corner;
name = _corner.Serif;
options = 1;
},
{
origin = "{1, 3}";
scale = "{-1.1, 1}";
type = Corner;
name = _corner.Serif;
},
{
origin = "{2, 0}";
scale = "{0.96, 0.98467}";
type = Corner;
name = _corner.Serif;
},
{
origin = "{2, 1}";
scale = "{-1.06, 0.98467}";
type = Corner;
name = _corner.Serif;
},
{
origin = "{2, 2}";
scale = "{1.1, 1}";
type = Corner;
name = _corner.Serif;
options = 1;
},
{
origin = "{2, 3}";
scale = "{-1, 1}";
type = Corner;
name = _corner.Serif;
}
);
layerId = "0C29AA02-E021-4BD1-A2C4-87F681D64C35";
paths = (
{
closed = 1;
nodes = (
"1058 857 LINE",
"611 857 LINE",
"611 633 LINE",
"1058 633 LINE"
);
},
{
closed = 1;
nodes = (
"611 1500 LINE",
"192 1500 LINE",
"192 0 LINE",
"611 0 LINE"
);
},
{
closed = 1;
nodes = (
"1477 1500 LINE",
"1058 1500 LINE",
"1058 0 LINE",
"1477 0 LINE"
);
}
);
width = 1669;
}
);
leftKerningGroup = I;
rightKerningGroup = I;
unicode = 0048;
},
{
glyphname = I;
lastChange = "2020-09-22 09:27:55 +0000";
layers = (
{
hints = (
{
origin = "{0, 0}";
scale = "{-1.18, 1}";
type = Corner;
name = _corner.Serif;
},
{
origin = "{0, 1}";
scale = "{1.2, 1}";
type = Corner;
name = _corner.Serif;
options = 1;
},
{
origin = "{0, 2}";
scale = "{-1.2, 1}";
type = Corner;
name = _corner.Serif;
},
{
origin = "{0, 3}";
scale = "{1.18, 1}";
type = Corner;
name = _corner.Serif;
}
);
layerId = "CA54B7DC-FBBB-40FE-ACF3-AABDD76D6A7B";
paths = (
{
closed = 1;
nodes = (
"318 1500 LINE",
"318 0 LINE",
"366 0 LINE",
"366 1500 LINE"
);
}
);
width = 684;
},
{
hints = (
{
origin = "{0, 0}";
scale = "{-1.18, 1}";
type = Corner;
name = _corner.Serif;
},
{
origin = "{0, 1}";
scale = "{1.2, 1}";
type = Corner;
name = _corner.Serif;
options = 1;
},
{
origin = "{0, 2}";
scale = "{-1.2, 1}";
type = Corner;
name = _corner.Serif;
},
{
origin = "{0, 3}";
scale = "{1.18, 1}";
type = Corner;
name = _corner.Serif;
}
);
layerId = "1E61A082-F045-49A7-AB52-DD1B03FD9B54";
paths = (
{
closed = 1;
nodes = (
"318 1500 LINE",
"318 0 LINE",
"366 0 LINE",
"366 1500 LINE"
);
}
);
width = 684;
},
{
hints = (
{
origin = "{0, 3}";
scale = "{0.96, 0.96933}";
type = Corner;
name = _corner.Serif;
},
{
origin = "{0, 0}";
scale = "{-0.96, 0.96933}";
type = Corner;
name = _corner.Serif;
},
{
origin = "{0, 1}";
type = Corner;
name = _corner.Serif;
options = 1;
},
{
origin = "{0, 2}";
scale = "{-1, 1}";
type = Corner;
name = _corner.Serif;
}
);
layerId = "219068EA-2B9B-40DC-949E-B60449C01B8A";
paths = (
{
closed = 1;
nodes = (
"253 1500 LINE",
"253 0 LINE",
"672 0 LINE",
"672 1500 LINE"
);
}
);
width = 925;
},
{
hints = (
{
origin = "{0, 0}";
scale = "{-0.96, 0.98467}";
type = Corner;
name = _corner.Serif;
},
{
origin = "{0, 1}";
type = Corner;
name = _corner.Serif;
options = 1;
},
{
origin = "{0, 2}";
scale = "{-1, 1}";
type = Corner;
name = _corner.Serif;
},
{
origin = "{0, 3}";
scale = "{0.96, 0.98467}";
type = Corner;
name = _corner.Serif;
}
);
layerId = "0C29AA02-E021-4BD1-A2C4-87F681D64C35";
paths = (
{
closed = 1;
nodes = (
"192 1501 LINE",
"192 0 LINE",
"611 0 LINE",
"611 1501 LINE"
);
}
);
width = 803;
}
);
leftKerningGroup = I;
rightKerningGroup = I;
unicode = 0049;
},
{
glyphname = J;
lastChange = "2020-09-22 10:44:05 +0000";
layers = (
{
hints = (
{
origin = "{0, 0}";
scale = "{-1.58, 1}";
type = Corner;
name = _corner.Serif;
options = 1;
},
{
origin = "{0, 17}";
scale = "{1.08, 1}";
type = Corner;
name = _corner.Serif;
}
);
layerId = "CA54B7DC-FBBB-40FE-ACF3-AABDD76D6A7B";
paths = (
{
closed = 1;
nodes = (
"862 1500 LINE",
"862 436 LINE SMOOTH",
"862 166 OFFCURVE",
"721 28 OFFCURVE",
"492 28 CURVE SMOOTH",
"263 28 OFFCURVE",
"122 166 OFFCURVE",
"122 436 CURVE SMOOTH",
"122 530 LINE",
"78 530 LINE",
"78 432 LINE SMOOTH",
"78 127 OFFCURVE",
"242 -16 OFFCURVE",
"494 -16 CURVE SMOOTH",
"746 -16 OFFCURVE",
"910 126 OFFCURVE",
"910 440 CURVE SMOOTH",
"910 1500 LINE"
);
}
);
width = 1188;
},
{
hints = (
{
origin = "{0, 17}";
scale = "{1.08, 1}";
type = Corner;
name = _corner.Serif;
},
{
origin = "{0, 0}";
scale = "{-1.58, 1}";
type = Corner;
name = _corner.Serif;
options = 1;
}
);
layerId = "1E61A082-F045-49A7-AB52-DD1B03FD9B54";
paths = (
{
closed = 1;
nodes = (
"862 1500 LINE",
"862 426 LINE SMOOTH",
"862 159 OFFCURVE",
"724 22 OFFCURVE",
"500 22 CURVE SMOOTH",
"276 22 OFFCURVE",
"138 159 OFFCURVE",
"138 426 CURVE SMOOTH",
"138 590 LINE",
"98 590 LINE",
"98 422 LINE SMOOTH",
"98 124 OFFCURVE",
"258 -16 OFFCURVE",
"504 -16 CURVE SMOOTH",
"750 -16 OFFCURVE",
"910 123 OFFCURVE",
"910 430 CURVE SMOOTH",
"910 1500 LINE"
);
}
);
width = 1188;
},
{
hints = (
{
origin = "{0, 17}";
scale = "{0.96, 0.96933}";
type = Corner;
name = _corner.Serif;
},
{
origin = "{0, 0}";
scale = "{-1.16, 0.96933}";
type = Corner;
name = _corner.Serif;
options = 1;
}
);
layerId = "219068EA-2B9B-40DC-949E-B60449C01B8A";
paths = (
{
closed = 1;
nodes = (
"638 1471 LINE",
"638 459 LINE SMOOTH",
"638 360 OFFCURVE",
"613 291 OFFCURVE",
"502 291 CURVE SMOOTH",
"390 291 OFFCURVE",
"353 360 OFFCURVE",
"353 450 CURVE SMOOTH",
"353 491 LINE",
"79 491 LINE",
"79 441 LINE SMOOTH",
"79 146 OFFCURVE",
"238 -22 OFFCURVE",
"562 -22 CURVE SMOOTH",
"891 -22 OFFCURVE",
"1057 151 OFFCURVE",
"1057 437 CURVE SMOOTH",
"1057 1471 LINE"
);
}
);
width = 1304;
},
{
hints = (
{
origin = "{0, 17}";
scale = "{0.96, 0.98467}";
type = Corner;
name = _corner.Serif;
},
{
origin = "{0, 0}";
scale = "{-1.36, 0.98467}";
type = Corner;
name = _corner.Serif;
options = 1;
}
);
layerId = "0C29AA02-E021-4BD1-A2C4-87F681D64C35";
paths = (
{
closed = 1;
nodes = (
"558 1471 LINE",
"558 457 LINE SMOOTH",
"558 346 OFFCURVE",
"529 269 OFFCURVE",
"409 269 CURVE SMOOTH",
"289 269 OFFCURVE",
"248 346 OFFCURVE",
"248 448 CURVE SMOOTH",
"248 557 LINE",
"13 557 LINE",
"13 441 LINE SMOOTH",
"13 146 OFFCURVE",
"171 -22 OFFCURVE",
"489 -22 CURVE SMOOTH",
"814 -22 OFFCURVE",
"977 151 OFFCURVE",
"977 437 CURVE SMOOTH",
"977 1471 LINE"
);
}
);
width = 1163;
}
);
leftKerningGroup = J;
rightKerningGroup = U;
rightMetricsKey = U;
unicode = 004A;
},
{
glyphname = K;
lastChange = "2020-09-22 10:57:31 +0000";
layers = (
{
hints = (
{
origin = "{0, 0}";
scale = "{-1.08, 1}";
type = Corner;
name = _corner.Serif;
},
{
origin = "{0, 1}";
scale = "{1.1, 1}";
type = Corner;
name = _corner.Serif;
options = 1;
},
{
origin = "{0, 2}";
scale = "{-1.2, 1}";
type = Corner;
name = _corner.Serif;
},
{
origin = "{0, 3}";
scale = "{1.18, 1}";
type = Corner;
name = _corner.Serif;
},
{
origin = "{1, 0}";
scale = "{-1.38, 1}";
type = Corner;
name = _corner.Serif;
options = 1;
},
{
origin = "{1, 3}";
scale = "{0.62, 1}";
type = Corner;
name = _corner.Serif;
},
{
origin = "{2, 2}";
scale = "{1.4, 1}";
type = Corner;
name = _corner.Serif;
},
{
origin = "{2, 3}";
scale = "{-0.66, 1}";
type = Corner;
name = _corner.Serif;
options = 1;
}
);
layerId = "CA54B7DC-FBBB-40FE-ACF3-AABDD76D6A7B";
paths = (
{
closed = 1;
nodes = (
"299 1500 LINE",
"299 0 LINE",
"347 0 LINE",
"347 1500 LINE"
);
},
{
closed = 1;
nodes = (
"1329 1500 LINE",
"313 585 LINE",
"338 551 LINE",
"1395 1500 LINE"
);
},
{
closed = 1;
nodes = (
"626 835 LINE",
"593 806 LINE",
"1390 0 LINE",
"1455 0 LINE"
);
}
);
width = 1608;
},
{
hints = (
{
origin = "{0, 0}";
scale = "{-1.08, 1}";
type = Corner;
name = _corner.Serif;
},
{
origin = "{0, 1}";
scale = "{1.1, 1}";
type = Corner;
name = _corner.Serif;
options = 1;
},
{
origin = "{0, 2}";
scale = "{-1.2, 1}";
type = Corner;
name = _corner.Serif;
},
{
origin = "{0, 3}";
scale = "{1.18, 1}";
type = Corner;
name = _corner.Serif;
},
{
origin = "{1, 0}";
scale = "{-1.38, 1}";
type = Corner;
name = _corner.Serif;
options = 1;
},
{
origin = "{1, 3}";
scale = "{0.62, 1}";
type = Corner;
name = _corner.Serif;
},
{
origin = "{2, 2}";
scale = "{1.4, 1}";
type = Corner;
name = _corner.Serif;
},
{
origin = "{2, 3}";
scale = "{-0.66, 1}";
type = Corner;
name = _corner.Serif;
options = 1;
}
);
layerId = "1E61A082-F045-49A7-AB52-DD1B03FD9B54";
paths = (
{
closed = 1;
nodes = (
"299 1500 LINE",
"299 0 LINE",
"347 0 LINE",
"347 1500 LINE"
);
},
{
closed = 1;
nodes = (
"1311 1500 LINE",
"313 615 LINE",
"338 584 LINE",
"1375 1500 LINE"
);
},
{
closed = 1;
nodes = (
"603 848 LINE",
"573 816 LINE",
"1370 0 LINE",
"1435 0 LINE"
);
}
);
width = 1618;
},
{
hints = (
{
origin = "{0, 0}";
scale = "{-0.96, 0.96933}";
type = Corner;
name = _corner.Serif;
},
{
origin = "{0, 1}";
type = Corner;
name = _corner.Serif;
options = 1;
},
{
origin = "{0, 2}";
scale = "{-0.724, 1}";
type = Corner;
name = _corner.Serif;
},
{
origin = "{0, 3}";
scale = "{0.71467, 0.96933}";
type = Corner;
name = _corner.Serif;
},
{
origin = "{1, 0}";
scale = "{-2.38667, 0.96933}";
type = Corner;
name = _corner.Serif;
options = 1;
},
{
origin = "{1, 3}";
scale = "{-0.21467, 0.96933}";
type = Corner;
name = _corner.Serif;
},
{
origin = "{2, 2}";
scale = "{1.59867, 1}";
type = Corner;
name = _corner.Serif;
},
{
origin = "{2, 3}";
scale = "{0.236, 1}";
type = Corner;
name = _corner.Serif;
options = 1;
}
);
layerId = "219068EA-2B9B-40DC-949E-B60449C01B8A";
paths = (
{
closed = 1;
nodes = (
"253 1471 LINE",
"253 0 LINE",
"672 0 LINE",
"672 1471 LINE"
);
},
{
closed = 1;
nodes = (
"1256 1471 LINE",
"428 607 LINE",
"605 423 LINE",
"1634 1471 LINE"
);
},
{
closed = 1;
nodes = (
"946 960 LINE",
"656 689 LINE",
"1111 0 LINE",
"1638 0 LINE"
);
}
);
width = 1660;
},
{
hints = (
{
origin = "{0, 0}";
scale = "{-0.96, 0.98467}";
type = Corner;
name = _corner.Serif;
},
{
origin = "{0, 1}";
type = Corner;
name = _corner.Serif;
options = 1;
},
{
origin = "{0, 2}";
scale = "{-0.84667, 1}";
type = Corner;
name = _corner.Serif;
},
{
origin = "{0, 3}";
scale = "{0.83733, 0.98467}";
type = Corner;
name = _corner.Serif;
},
{
origin = "{1, 0}";
scale = "{-2.20267, 0.98467}";
type = Corner;
name = _corner.Serif;
options = 1;
},
{
origin = "{1, 3}";
scale = "{-0.21467, 0.98467}";
type = Corner;
name = _corner.Serif;
},
{
origin = "{2, 2}";
scale = "{1.50667, 1}";
type = Corner;
name = _corner.Serif;
},
{
origin = "{2, 3}";
scale = "{0.236, 1}";
type = Corner;
name = _corner.Serif;
options = 1;
}
);
layerId = "0C29AA02-E021-4BD1-A2C4-87F681D64C35";
paths = (
{
closed = 1;
nodes = (
"192 1471 LINE",
"192 0 LINE",
"611 0 LINE",
"611 1471 LINE"
);
},
{
closed = 1;
nodes = (
"1231 1471 LINE",
"383 610 LINE",
"529 431 LINE",
"1564 1471 LINE"
);
},
{
closed = 1;
nodes = (
"886 960 LINE",
"595 689 LINE",
"1051 0 LINE",
"1577 0 LINE"
);
}
);
width = 1577;
}
);
leftKerningGroup = I;
leftMetricsKey = H;
rightKerningGroup = K;
rightMetricsKey = X;
unicode = 004B;
},
{
glyphname = L;
lastChange = "2020-09-22 10:44:08 +0000";
layers = (
{
hints = (
{
origin = "{1, 0}";
scale = "{1.58, 1}";
type = Corner;
name = _corner.Serif;
},
{
origin = "{1, 1}";
scale = "{-1.08, 1}";
type = Corner;
name = _corner.Serif;
},
{
origin = "{1, 2}";
scale = "{1.1, 1}";
type = Corner;
name = _corner.Serif;
options = 1;
}
);
layerId = "CA54B7DC-FBBB-40FE-ACF3-AABDD76D6A7B";
paths = (
{
closed = 1;
nodes = (
"1301 44 LINE",
"347 44 LINE",
"347 0 LINE",
"1301 0 LINE"
);
},
{
closed = 1;
nodes = (
"347 1500 LINE",
"299 1500 LINE",
"299 0 LINE",
"347 0 LINE"
);
},
{
closed = 1;
nodes = (
"1301 44 LINE",
"1301 520 LINE",
"1257 520 LINE",
"1257 174 LINE SMOOTH",
"1257 70 OFFCURVE",
"1231 44 OFFCURVE",
"1131 44 CURVE"
);
}
);
width = 1387;
},
{
hints = (
{
origin = "{1, 1}";
scale = "{-1.08, 1}";
type = Corner;
name = _corner.Serif;
},
{
origin = "{1, 2}";
scale = "{1.1, 1}";
type = Corner;
name = _corner.Serif;
options = 1;
},
{
origin = "{1, 0}";
scale = "{1.58, 1}";
type = Corner;
name = _corner.Serif;
}
);
layerId = "1E61A082-F045-49A7-AB52-DD1B03FD9B54";
paths = (
{
closed = 1;
nodes = (
"1281 38 LINE",
"347 38 LINE",
"347 0 LINE",
"1281 0 LINE"
);
},
{
closed = 1;
nodes = (
"347 1500 LINE",
"299 1500 LINE",
"299 0 LINE",
"347 0 LINE"
);
},
{
closed = 1;
nodes = (
"1281 38 LINE",
"1281 580 LINE",
"1241 580 LINE",
"1241 168 LINE SMOOTH",
"1241 64 OFFCURVE",
"1215 38 OFFCURVE",
"1115 38 CURVE"
);
}
);
width = 1387;
},
{
hints = (
{
origin = "{1, 1}";
scale = "{-0.96, 0.96933}";
type = Corner;
name = _corner.Serif;
},
{
origin = "{1, 2}";
type = Corner;
name = _corner.Serif;
options = 1;
},
{
origin = "{1, 0}";
scale = "{1.16, 0.96933}";
type = Corner;
name = _corner.Serif;
}
);
layerId = "219068EA-2B9B-40DC-949E-B60449C01B8A";
paths = (
{
closed = 1;
nodes = (
"1335 261 LINE",
"672 261 LINE",
"672 0 LINE",
"1335 0 LINE"
);
},
{
closed = 1;
nodes = (
"672 1471 LINE",
"253 1471 LINE",
"253 0 LINE",
"672 0 LINE"
);
},
{
closed = 1;
nodes = (
"1335 261 LINE",
"1335 475 LINE",
"1067 475 LINE",
"1067 513 LINE SMOOTH",
"1067 342 OFFCURVE",
"986 261 OFFCURVE",
"818 261 CURVE"
);
}
);
width = 1397;
},
{
hints = (
{
origin = "{1, 1}";
scale = "{-0.96, 0.98467}";
type = Corner;
name = _corner.Serif;
},
{
origin = "{1, 2}";
type = Corner;
name = _corner.Serif;
options = 1;
},
{
origin = "{1, 0}";
scale = "{1.36, 0.98467}";
type = Corner;
name = _corner.Serif;
}
);
layerId = "0C29AA02-E021-4BD1-A2C4-87F681D64C35";
paths = (
{
closed = 1;
nodes = (
"1275 224 LINE",
"611 224 LINE",
"611 0 LINE",
"1275 0 LINE"
);
},
{
closed = 1;
nodes = (
"611 1471 LINE",
"192 1471 LINE",
"192 0 LINE",
"611 0 LINE"
);
},
{
closed = 1;
nodes = (
"1275 224 LINE",
"1275 560 LINE",
"1037 560 LINE",
"1037 477 LINE SMOOTH",
"1037 305 OFFCURVE",
"955 224 OFFCURVE",
"788 224 CURVE"
);
}
);
width = 1323;
}
);
leftKerningGroup = I;
leftMetricsKey = H;
rightKerningGroup = L;
unicode = 004C;
},
{
glyphname = M;
lastChange = "2020-09-22 10:45:13 +0000";
layers = (
{
hints = (
{
origin = "{0, 2}";
scale = "{-1.08, 1}";
type = Corner;
name = _corner.Serif;
},
{
origin = "{0, 3}";
scale = "{1.1, 1}";
type = Corner;
name = _corner.Serif;
options = 1;
},
{
origin = "{0, 4}";
scale = "{-1.2, 1}";
type = Corner;
name = _corner.Serif;
},
{
origin = "{1, 0}";
scale = "{1.08, 1}";
type = Corner;
name = _corner.Serif;
},
{
origin = "{1, 2}";
scale = "{1.2, 1}";
type = Corner;
name = _corner.Serif;
},
{
origin = "{1, 3}";
scale = "{-1.1, 1}";
type = Corner;
name = _corner.Serif;
options = 1;
}
);
layerId = "CA54B7DC-FBBB-40FE-ACF3-AABDD76D6A7B";
paths = (
{
closed = 1;
nodes = (
"343 1437 LINE",
"343 1500 LINE",
"299 1500 LINE",
"299 0 LINE",
"343 0 LINE"
);
},
{
closed = 1;
nodes = (
"1849 1500 LINE",
"1801 1500 LINE",
"1801 0 LINE",
"1849 0 LINE"
);
},
{
closed = 1;
nodes = (
"1054 0 LINE",
"1090 0 LINE",
"1801 1430 LINE",
"1801 1500 LINE",
"1787 1500 LINE",
"1067 52 LINE",
"1082 52 LINE",
"365 1500 LINE",
"343 1500 LINE",
"343 1437 LINE"
);
}
);
width = 2148;
},
{
hints = (
{
origin = "{0, 2}";
scale = "{-1.08, 1}";
type = Corner;
name = _corner.Serif;
},
{
origin = "{0, 3}";
scale = "{1.1, 1}";
type = Corner;
name = _corner.Serif;
options = 1;
},
{
origin = "{0, 4}";
scale = "{-1.2, 1}";
type = Corner;
name = _corner.Serif;
},
{
origin = "{1, 0}";
scale = "{1.08, 1}";
type = Corner;
name = _corner.Serif;
},
{
origin = "{1, 2}";
scale = "{1.2, 1}";
type = Corner;
name = _corner.Serif;
},
{
origin = "{1, 3}";
scale = "{-1.1, 1}";
type = Corner;
name = _corner.Serif;
options = 1;
}
);
layerId = "1E61A082-F045-49A7-AB52-DD1B03FD9B54";
paths = (
{
closed = 1;
nodes = (
"339 1438 LINE",
"339 1500 LINE",
"299 1500 LINE",
"299 0 LINE",
"339 0 LINE"
);
},
{
closed = 1;
nodes = (
"1745 1500 LINE",
"1697 1500 LINE",
"1697 0 LINE",
"1745 0 LINE"
);
},
{
closed = 1;
nodes = (
"1000 0 LINE",
"1036 0 LINE",
"1697 1430 LINE",
"1697 1500 LINE",
"1685 1500 LINE",
"1016 52 LINE",
"1029 52 LINE",
"363 1500 LINE",
"339 1500 LINE",
"339 1438 LINE"
);
}
);
width = 2044;
},
{
hints = (
{
origin = "{0, 2}";
scale = "{-0.96, 0.96933}";
type = Corner;
name = _corner.Serif;
},
{
origin = "{0, 3}";
type = Corner;
name = _corner.Serif;
options = 1;
},
{
origin = "{0, 4}";
scale = "{-1, 1}";
type = Corner;
name = _corner.Serif;
},
{
origin = "{1, 2}";
type = Corner;
name = _corner.Serif;
},
{
origin = "{1, 3}";
scale = "{-1, 1}";
type = Corner;
name = _corner.Serif;
options = 1;
},
{
origin = "{1, 0}";
scale = "{0.96, 0.96933}";
type = Corner;
name = _corner.Serif;
}
);
layerId = "219068EA-2B9B-40DC-949E-B60449C01B8A";
paths = (
{
closed = 1;
nodes = (
"526 927 LINE",
"526 1471 LINE",
"253 1471 LINE",
"253 0 LINE",
"526 0 LINE"
);
},
{
closed = 1;
nodes = (
"1995 1471 LINE",
"1579 1471 LINE",
"1579 0 LINE",
"1995 0 LINE"
);
},
{
closed = 1;
nodes = (
"900 0 LINE",
"1221 0 LINE",
"1579 929 LINE",
"1579 1471 LINE",
"1529 1471 LINE",
"1089 339 LINE",
"1209 339 LINE",
"749 1471 LINE",
"526 1471 LINE",
"526 927 LINE"
);
}
);
width = 2248;
},
{
hints = (
{
origin = "{0, 2}";
scale = "{-0.96, 0.98467}";
type = Corner;
name = _corner.Serif;
},
{
origin = "{0, 3}";
type = Corner;
name = _corner.Serif;
options = 1;
},
{
origin = "{0, 4}";
scale = "{-1, 1}";
type = Corner;
name = _corner.Serif;
},
{
origin = "{1, 0}";
scale = "{0.96, 0.98467}";
type = Corner;
name = _corner.Serif;
},
{
origin = "{1, 2}";
type = Corner;
name = _corner.Serif;
},
{
origin = "{1, 3}";
scale = "{-1, 1}";
type = Corner;
name = _corner.Serif;
options = 1;
}
);
layerId = "0C29AA02-E021-4BD1-A2C4-87F681D64C35";
paths = (
{
closed = 1;
nodes = (
"426 931 LINE",
"426 1471 LINE",
"192 1471 LINE",
"192 0 LINE",
"426 0 LINE"
);
},
{
closed = 1;
nodes = (
"1909 1471 LINE",
"1493 1471 LINE",
"1493 0 LINE",
"1909 0 LINE"
);
},
{
closed = 1;
nodes = (
"835 0 LINE",
"1106 0 LINE",
"1493 943 LINE",
"1491 1471 LINE",
"1476 1471 LINE",
"1032 395 LINE",
"1110 395 LINE",
"640 1471 LINE",
"426 1471 LINE",
"426 931 LINE"
);
}
);
width = 2101;
}
);
leftKerningGroup = I;
leftMetricsKey = H;
rightKerningGroup = I;
rightMetricsKey = H;
unicode = 004D;
},
{
glyphname = N;
lastChange = "2020-09-22 10:38:34 +0000";
layers = (
{
hints = (
{
origin = "{0, 2}";
scale = "{-1.08, 1}";
type = Corner;
name = _corner.Serif;
},
{
origin = "{0, 3}";
scale = "{1.1, 1}";
type = Corner;
name = _corner.Serif;
options = 1;
},
{
origin = "{0, 4}";
scale = "{-1.2, 1}";
type = Corner;
name = _corner.Serif;
},
{
origin = "{2, 0}";
scale = "{1.08, 1}";
type = Corner;
name = _corner.Serif;
},
{
origin = "{2, 1}";
scale = "{-1.18, 1}";
type = Corner;
name = _corner.Serif;
options = 1;
}
);
layerId = "CA54B7DC-FBBB-40FE-ACF3-AABDD76D6A7B";
rightMetricsKey = "=H-16";
paths = (
{
closed = 1;
nodes = (
"339 1423 LINE",
"343 1500 LINE",
"299 1500 LINE",
"299 0 LINE",
"339 0 LINE"
);
},
{
closed = 1;
nodes = (
"343 1500 LINE",
"339 1423 LINE",
"1393 0 LINE",
"1397 77 LINE"
);
},
{
closed = 1;
nodes = (
"1437 1500 LINE",
"1397 1500 LINE",
"1397 77 LINE",
"1393 0 LINE",
"1437 0 LINE"
);
}
);
width = 1715;
},
{
hints = (
{
origin = "{0, 2}";
scale = "{-1.08, 1}";
type = Corner;
name = _corner.Serif;
},
{
origin = "{0, 3}";
scale = "{1.1, 1}";
type = Corner;
name = _corner.Serif;
options = 1;
},
{
origin = "{0, 4}";
scale = "{-1.2, 1}";
type = Corner;
name = _corner.Serif;
},
{
origin = "{2, 0}";
scale = "{1.08, 1}";
type = Corner;
name = _corner.Serif;
},
{
origin = "{2, 1}";
scale = "{-1.18, 1}";
type = Corner;
name = _corner.Serif;
options = 1;
}
);
layerId = "1E61A082-F045-49A7-AB52-DD1B03FD9B54";
rightMetricsKey = "=H-16";
paths = (
{
closed = 1;
nodes = (
"339 1423 LINE",
"343 1500 LINE",
"299 1500 LINE",
"299 0 LINE",
"339 0 LINE"
);
},
{
closed = 1;
nodes = (
"343 1500 LINE",
"339 1423 LINE",
"1373 0 LINE",
"1377 77 LINE"
);
},
{
closed = 1;
nodes = (
"1417 1500 LINE",
"1377 1500 LINE",
"1377 77 LINE",
"1373 0 LINE",
"1417 0 LINE"
);
}
);
width = 1695;
},
{
hints = (
{
origin = "{0, 2}";
scale = "{-0.96, 0.96933}";
type = Corner;
name = _corner.Serif;
},
{
origin = "{0, 3}";
type = Corner;
name = _corner.Serif;
options = 1;
},
{
origin = "{0, 4}";
scale = "{-1, 1}";
type = Corner;
name = _corner.Serif;
},
{
origin = "{2, 0}";
scale = "{0.96, 0.96933}";
type = Corner;
name = _corner.Serif;
},
{
origin = "{2, 1}";
scale = "{-0.96, 0.96933}";
type = Corner;
name = _corner.Serif;
options = 1;
}
);
layerId = "219068EA-2B9B-40DC-949E-B60449C01B8A";
paths = (
{
closed = 1;
nodes = (
"526 889 LINE",
"611 1471 LINE",
"253 1471 LINE",
"253 0 LINE",
"526 0 LINE"
);
},
{
closed = 1;
nodes = (
"611 1471 LINE",
"526 889 LINE",
"1211 0 LINE",
"1211 694 LINE"
);
},
{
closed = 1;
nodes = (
"1484 1471 LINE",
"1211 1471 LINE",
"1211 694 LINE",
"1211 0 LINE",
"1484 0 LINE"
);
}
);
width = 1731;
},
{
hints = (
{
origin = "{0, 2}";
scale = "{-0.96, 0.98467}";
type = Corner;
name = _corner.Serif;
},
{
origin = "{0, 3}";
type = Corner;
name = _corner.Serif;
options = 1;
},
{
origin = "{0, 4}";
scale = "{-1.15333, 1}";
type = Corner;
name = _corner.Serif;
},
{
origin = "{2, 0}";
scale = "{0.96, 0.98467}";
type = Corner;
name = _corner.Serif;
},
{
origin = "{2, 1}";
scale = "{-1.11333, 0.98467}";
type = Corner;
name = _corner.Serif;
options = 1;
}
);
layerId = "0C29AA02-E021-4BD1-A2C4-87F681D64C35";
paths = (
{
closed = 1;
nodes = (
"426 890 LINE",
"496 1471 LINE",
"192 1471 LINE",
"192 0 LINE",
"426 0 LINE"
);
},
{
closed = 1;
nodes = (
"496 1471 LINE",
"426 890 LINE",
"1173 0 LINE",
"1173 672 LINE"
);
},
{
closed = 1;
nodes = (
"1407 1471 LINE",
"1173 1471 LINE",
"1173 672 LINE",
"1173 0 LINE",
"1407 0 LINE"
);
}
);
width = 1593;
}
);
leftKerningGroup = I;
leftMetricsKey = H;
rightKerningGroup = N;
rightMetricsKey = H;
unicode = 004E;
},
{
glyphname = O;
lastChange = "2020-09-22 09:36:51 +0000";
layers = (
{
layerId = "CA54B7DC-FBBB-40FE-ACF3-AABDD76D6A7B";
paths = (
{
closed = 1;
nodes = (
"1310 -24 OFFCURVE",
"1626 260 OFFCURVE",
"1626 750 CURVE SMOOTH",
"1626 1240 OFFCURVE",
"1310 1524 OFFCURVE",
"878 1524 CURVE SMOOTH",
"446 1524 OFFCURVE",
"130 1240 OFFCURVE",
"130 750 CURVE SMOOTH",
"130 260 OFFCURVE",
"446 -24 OFFCURVE",
"878 -24 CURVE SMOOTH"
);
},
{
closed = 1;
nodes = (
"458 20 OFFCURVE",
"178 308 OFFCURVE",
"178 750 CURVE SMOOTH",
"178 1192 OFFCURVE",
"458 1480 OFFCURVE",
"878 1480 CURVE SMOOTH",
"1298 1480 OFFCURVE",
"1578 1192 OFFCURVE",
"1578 750 CURVE SMOOTH",
"1578 308 OFFCURVE",
"1298 20 OFFCURVE",
"878 20 CURVE SMOOTH"
);
}
);
width = 1756;
},
{
layerId = "1E61A082-F045-49A7-AB52-DD1B03FD9B54";
paths = (
{
closed = 1;
nodes = (
"1278 -24 OFFCURVE",
"1586 260 OFFCURVE",
"1586 750 CURVE SMOOTH",
"1586 1240 OFFCURVE",
"1278 1524 OFFCURVE",
"858 1524 CURVE SMOOTH",
"438 1524 OFFCURVE",
"130 1240 OFFCURVE",
"130 750 CURVE SMOOTH",
"130 260 OFFCURVE",
"438 -24 OFFCURVE",
"858 -24 CURVE SMOOTH"
);
},
{
closed = 1;
nodes = (
"450 14 OFFCURVE",
"178 304 OFFCURVE",
"178 750 CURVE SMOOTH",
"178 1196 OFFCURVE",
"450 1486 OFFCURVE",
"858 1486 CURVE SMOOTH",
"1266 1486 OFFCURVE",
"1538 1196 OFFCURVE",
"1538 750 CURVE SMOOTH",
"1538 304 OFFCURVE",
"1266 14 OFFCURVE",
"858 14 CURVE SMOOTH"
);
}
);
width = 1716;
},
{
layerId = "219068EA-2B9B-40DC-949E-B60449C01B8A";
paths = (
{
closed = 1;
nodes = (
"1332 -20 OFFCURVE",
"1671 258 OFFCURVE",
"1671 735 CURVE SMOOTH",
"1671 1213 OFFCURVE",
"1332 1491 OFFCURVE",
"866 1491 CURVE SMOOTH",
"400 1491 OFFCURVE",
"61 1213 OFFCURVE",
"61 735 CURVE SMOOTH",
"61 258 OFFCURVE",
"400 -20 OFFCURVE",
"866 -20 CURVE SMOOTH"
);
},
{
closed = 1;
nodes = (
"654 238 OFFCURVE",
"523 434 OFFCURVE",
"523 735 CURVE SMOOTH",
"523 1037 OFFCURVE",
"654 1233 OFFCURVE",
"866 1233 CURVE SMOOTH",
"1077 1233 OFFCURVE",
"1209 1037 OFFCURVE",
"1209 735 CURVE SMOOTH",
"1209 434 OFFCURVE",
"1077 238 OFFCURVE",
"866 238 CURVE SMOOTH"
);
}
);
width = 1731;
},
{
layerId = "0C29AA02-E021-4BD1-A2C4-87F681D64C35";
paths = (
{
closed = 1;
nodes = (
"1353 -20 OFFCURVE",
"1702 258 OFFCURVE",
"1702 735 CURVE SMOOTH",
"1702 1213 OFFCURVE",
"1353 1491 OFFCURVE",
"867 1491 CURVE SMOOTH",
"382 1491 OFFCURVE",
"33 1213 OFFCURVE",
"33 735 CURVE SMOOTH",
"33 258 OFFCURVE",
"382 -20 OFFCURVE",
"867 -20 CURVE SMOOTH"
);
},
{
closed = 1;
nodes = (
"633 201 OFFCURVE",
"495 411 OFFCURVE",
"495 735 CURVE SMOOTH",
"495 1060 OFFCURVE",
"633 1270 OFFCURVE",
"867 1270 CURVE SMOOTH",
"1102 1270 OFFCURVE",
"1240 1060 OFFCURVE",
"1240 735 CURVE SMOOTH",
"1240 411 OFFCURVE",
"1102 201 OFFCURVE",
"867 201 CURVE SMOOTH"
);
}
);
width = 1734;
}
);
leftKerningGroup = O;
rightKerningGroup = O;
unicode = 004F;
},
{
glyphname = P;
lastChange = "2020-09-22 10:38:51 +0000";
layers = (
{
hints = (
{
origin = "{1, 0}";
scale = "{1.1, 1}";
type = Corner;
name = _corner.Serif;
options = 1;
},
{
origin = "{1, 1}";
scale = "{-1.6, 1}";
type = Corner;
name = _corner.Serif;
},
{
origin = "{1, 3}";
scale = "{-1.08, 1}";
type = Corner;
name = _corner.Serif;
}
);
layerId = "CA54B7DC-FBBB-40FE-ACF3-AABDD76D6A7B";
paths = (
{
closed = 1;
nodes = (
"347 1456 LINE",
"867 1456 LINE SMOOTH",
"1133 1456 OFFCURVE",
"1301 1333 OFFCURVE",
"1301 1091 CURVE SMOOTH",
"1301 849 OFFCURVE",
"1133 726 OFFCURVE",
"867 726 CURVE SMOOTH",
"347 726 LINE",
"347 682 LINE",
"879 682 LINE SMOOTH",
"1161 682 OFFCURVE",
"1349 820 OFFCURVE",
"1349 1091 CURVE SMOOTH",
"1349 1362 OFFCURVE",
"1161 1500 OFFCURVE",
"879 1500 CURVE SMOOTH",
"347 1500 LINE"
);
},
{
closed = 1;
nodes = (
"299 0 LINE",
"347 0 LINE",
"347 1500 LINE",
"299 1500 LINE"
);
}
);
width = 1433;
},
{
hints = (
{
origin = "{1, 0}";
scale = "{1.1, 1}";
type = Corner;
name = _corner.Serif;
options = 1;
},
{
origin = "{1, 1}";
scale = "{-1.6, 1}";
type = Corner;
name = _corner.Serif;
},
{
origin = "{1, 3}";
scale = "{-1.08, 1}";
type = Corner;
name = _corner.Serif;
}
);
layerId = "1E61A082-F045-49A7-AB52-DD1B03FD9B54";
paths = (
{
closed = 1;
nodes = (
"347 1462 LINE",
"853 1462 LINE SMOOTH",
"1119 1462 OFFCURVE",
"1287 1337 OFFCURVE",
"1287 1091 CURVE SMOOTH",
"1287 845 OFFCURVE",
"1119 720 OFFCURVE",
"853 720 CURVE SMOOTH",
"347 720 LINE",
"347 682 LINE",
"865 682 LINE SMOOTH",
"1147 682 OFFCURVE",
"1335 820 OFFCURVE",
"1335 1091 CURVE SMOOTH",
"1335 1362 OFFCURVE",
"1147 1500 OFFCURVE",
"865 1500 CURVE SMOOTH",
"347 1500 LINE"
);
},
{
closed = 1;
nodes = (
"299 0 LINE",
"347 0 LINE",
"347 1500 LINE",
"299 1500 LINE"
);
}
);
width = 1433;
},
{
hints = (
{
origin = "{1, 0}";
type = Corner;
name = _corner.Serif;
options = 1;
},
{
origin = "{1, 1}";
scale = "{-1.2, 1}";
type = Corner;
name = _corner.Serif;
},
{
origin = "{1, 3}";
scale = "{-0.96, 0.96933}";
type = Corner;
name = _corner.Serif;
}
);
layerId = "219068EA-2B9B-40DC-949E-B60449C01B8A";
paths = (
{
closed = 1;
nodes = (
"672 1217 LINE",
"887 1217 LINE SMOOTH",
"1002 1217 OFFCURVE",
"1072 1154 OFFCURVE",
"1072 1035 CURVE SMOOTH",
"1072 915 OFFCURVE",
"1002 852 OFFCURVE",
"887 852 CURVE SMOOTH",
"672 852 LINE",
"672 598 LINE",
"967 598 LINE SMOOTH",
"1289 598 OFFCURVE",
"1503 745 OFFCURVE",
"1503 1035 CURVE SMOOTH",
"1503 1324 OFFCURVE",
"1289 1471 OFFCURVE",
"967 1471 CURVE SMOOTH",
"672 1471 LINE"
);
},
{
closed = 1;
nodes = (
"253 0 LINE",
"672 0 LINE",
"672 1471 LINE",
"253 1471 LINE"
);
}
);
width = 1536;
},
{
hints = (
{
origin = "{1, 0}";
type = Corner;
name = _corner.Serif;
options = 1;
},
{
origin = "{1, 1}";
scale = "{-1.4, 1}";
type = Corner;
name = _corner.Serif;
},
{
origin = "{1, 3}";
scale = "{-0.96, 0.98467}";
type = Corner;
name = _corner.Serif;
}
);
layerId = "0C29AA02-E021-4BD1-A2C4-87F681D64C35";
paths = (
{
closed = 1;
nodes = (
"611 1250 LINE",
"805 1250 LINE SMOOTH",
"933 1250 OFFCURVE",
"1012 1183 OFFCURVE",
"1012 1044 CURVE SMOOTH",
"1012 905 OFFCURVE",
"933 838 OFFCURVE",
"805 838 CURVE SMOOTH",
"611 838 LINE",
"611 617 LINE",
"915 617 LINE SMOOTH",
"1233 617 OFFCURVE",
"1443 761 OFFCURVE",
"1443 1044 CURVE SMOOTH",
"1443 1327 OFFCURVE",
"1233 1471 OFFCURVE",
"915 1471 CURVE SMOOTH",
"611 1471 LINE"
);
},
{
closed = 1;
nodes = (
"192 0 LINE",
"611 0 LINE",
"611 1471 LINE",
"192 1471 LINE"
);
}
);
width = 1470;
}
);
leftKerningGroup = I;
leftMetricsKey = H;
rightKerningGroup = P;
unicode = 0050;
},
{
glyphname = Q;
lastChange = "2020-09-22 10:41:57 +0000";
layers = (
{
layerId = "CA54B7DC-FBBB-40FE-ACF3-AABDD76D6A7B";
paths = (
{
closed = 1;
nodes = (
"1102 0 LINE",
"1102 196 LINE SMOOTH",
"1102 345 OFFCURVE",
"1026 420 OFFCURVE",
"914 420 CURVE SMOOTH",
"801 420 OFFCURVE",
"720 345 OFFCURVE",
"720 196 CURVE SMOOTH",
"720 0 LINE",
"764 0 LINE",
"764 196 LINE SMOOTH",
"764 317 OFFCURVE",
"817 378 OFFCURVE",
"912 378 CURVE SMOOTH",
"1006 378 OFFCURVE",
"1058 317 OFFCURVE",
"1058 196 CURVE SMOOTH",
"1058 0 LINE"
);
},
{
closed = 1;
nodes = (
"1400 -116 LINE SMOOTH",
"1400 -237 OFFCURVE",
"1346 -298 OFFCURVE",
"1250 -298 CURVE SMOOTH",
"1155 -298 OFFCURVE",
"1102 -237 OFFCURVE",
"1102 -116 CURVE SMOOTH",
"1102 0 LINE",
"1058 0 LINE",
"1058 -116 LINE SMOOTH",
"1058 -265 OFFCURVE",
"1140 -340 OFFCURVE",
"1254 -340 CURVE SMOOTH",
"1367 -340 OFFCURVE",
"1444 -265 OFFCURVE",
"1444 -116 CURVE SMOOTH",
"1444 0 LINE",
"1400 0 LINE"
);
},
{
closed = 1;
nodes = (
"1278 -24 OFFCURVE",
"1586 260 OFFCURVE",
"1586 750 CURVE SMOOTH",
"1586 1240 OFFCURVE",
"1278 1524 OFFCURVE",
"858 1524 CURVE SMOOTH",
"438 1524 OFFCURVE",
"130 1240 OFFCURVE",
"130 750 CURVE SMOOTH",
"130 260 OFFCURVE",
"438 -24 OFFCURVE",
"858 -24 CURVE SMOOTH"
);
},
{
closed = 1;
nodes = (
"450 20 OFFCURVE",
"178 308 OFFCURVE",
"178 750 CURVE SMOOTH",
"178 1192 OFFCURVE",
"450 1480 OFFCURVE",
"858 1480 CURVE SMOOTH",
"1266 1480 OFFCURVE",
"1538 1192 OFFCURVE",
"1538 750 CURVE SMOOTH",
"1538 308 OFFCURVE",
"1266 20 OFFCURVE",
"858 20 CURVE SMOOTH"
);
}
);
width = 1716;
},
{
layerId = "1E61A082-F045-49A7-AB52-DD1B03FD9B54";
paths = (
{
closed = 1;
nodes = (
"1102 0 LINE",
"1102 196 LINE SMOOTH",
"1102 345 OFFCURVE",
"1026 420 OFFCURVE",
"914 420 CURVE SMOOTH",
"801 420 OFFCURVE",
"720 345 OFFCURVE",
"720 196 CURVE SMOOTH",
"720 0 LINE",
"760 0 LINE",
"760 196 LINE SMOOTH",
"760 320 OFFCURVE",
"814 382 OFFCURVE",
"910 382 CURVE SMOOTH",
"1005 382 OFFCURVE",
"1058 320 OFFCURVE",
"1058 196 CURVE SMOOTH",
"1058 0 LINE"
);
},
{
closed = 1;
nodes = (
"1404 -116 LINE SMOOTH",
"1404 -240 OFFCURVE",
"1349 -302 OFFCURVE",
"1252 -302 CURVE SMOOTH",
"1156 -302 OFFCURVE",
"1102 -240 OFFCURVE",
"1102 -116 CURVE SMOOTH",
"1102 0 LINE",
"1058 0 LINE",
"1058 -116 LINE SMOOTH",
"1058 -265 OFFCURVE",
"1140 -340 OFFCURVE",
"1254 -340 CURVE SMOOTH",
"1367 -340 OFFCURVE",
"1444 -265 OFFCURVE",
"1444 -116 CURVE SMOOTH",
"1444 0 LINE",
"1404 0 LINE"
);
},
{
closed = 1;
nodes = (
"1278 -24 OFFCURVE",
"1586 260 OFFCURVE",
"1586 750 CURVE SMOOTH",
"1586 1240 OFFCURVE",
"1278 1524 OFFCURVE",
"858 1524 CURVE SMOOTH",
"438 1524 OFFCURVE",
"130 1240 OFFCURVE",
"130 750 CURVE SMOOTH",
"130 260 OFFCURVE",
"438 -24 OFFCURVE",
"858 -24 CURVE SMOOTH"
);
},
{
closed = 1;
nodes = (
"450 14 OFFCURVE",
"178 304 OFFCURVE",
"178 750 CURVE SMOOTH",
"178 1196 OFFCURVE",
"450 1486 OFFCURVE",
"858 1486 CURVE SMOOTH",
"1266 1486 OFFCURVE",
"1538 1196 OFFCURVE",
"1538 750 CURVE SMOOTH",
"1538 304 OFFCURVE",
"1266 14 OFFCURVE",
"858 14 CURVE SMOOTH"
);
}
);
width = 1716;
},
{
layerId = "219068EA-2B9B-40DC-949E-B60449C01B8A";
paths = (
{
closed = 1;
nodes = (
"1185 0 LINE",
"1185 359 LINE SMOOTH",
"1185 561 OFFCURVE",
"1069 665 OFFCURVE",
"888 665 CURVE SMOOTH",
"706 665 OFFCURVE",
"586 561 OFFCURVE",
"586 359 CURVE SMOOTH",
"586 67 LINE",
"823 67 LINE",
"823 392 LINE SMOOTH",
"823 396 OFFCURVE",
"829 408 OFFCURVE",
"841 408 CURVE SMOOTH",
"853 408 OFFCURVE",
"860 396 OFFCURVE",
"860 392 CURVE SMOOTH",
"860 0 LINE"
);
},
{
closed = 1;
nodes = (
"1222 -58 LINE SMOOTH",
"1222 -61 OFFCURVE",
"1215 -73 OFFCURVE",
"1203 -73 CURVE SMOOTH",
"1192 -73 OFFCURVE",
"1185 -61 OFFCURVE",
"1185 -58 CURVE SMOOTH",
"1185 0 LINE",
"860 0 LINE",
"860 -18 LINE SMOOTH",
"860 -221 OFFCURVE",
"967 -325 OFFCURVE",
"1149 -325 CURVE SMOOTH",
"1330 -325 OFFCURVE",
"1447 -221 OFFCURVE",
"1447 -18 CURVE SMOOTH",
"1447 0 LINE",
"1222 0 LINE"
);
},
{
closed = 1;
nodes = (
"1332 -20 OFFCURVE",
"1671 258 OFFCURVE",
"1671 735 CURVE SMOOTH",
"1671 1213 OFFCURVE",
"1332 1491 OFFCURVE",
"866 1491 CURVE SMOOTH",
"400 1491 OFFCURVE",
"61 1213 OFFCURVE",
"61 735 CURVE SMOOTH",
"61 258 OFFCURVE",
"400 -20 OFFCURVE",
"866 -20 CURVE SMOOTH"
);
},
{
closed = 1;
nodes = (
"654 238 OFFCURVE",
"523 434 OFFCURVE",
"523 735 CURVE SMOOTH",
"523 1037 OFFCURVE",
"654 1233 OFFCURVE",
"866 1233 CURVE SMOOTH",
"1077 1233 OFFCURVE",
"1209 1037 OFFCURVE",
"1209 735 CURVE SMOOTH",
"1209 434 OFFCURVE",
"1077 238 OFFCURVE",
"866 238 CURVE SMOOTH"
);
}
);
width = 1731;
},
{
layerId = "0C29AA02-E021-4BD1-A2C4-87F681D64C35";
paths = (
{
closed = 1;
nodes = (
"1171 0 LINE",
"1171 435 LINE SMOOTH",
"1171 627 OFFCURVE",
"1049 727 OFFCURVE",
"877 727 CURVE SMOOTH",
"704 727 OFFCURVE",
"578 627 OFFCURVE",
"578 435 CURVE SMOOTH",
"578 67 LINE",
"791 67 LINE",
"791 447 LINE SMOOTH",
"791 463 OFFCURVE",
"800 475 OFFCURVE",
"818 475 CURVE SMOOTH",
"836 475 OFFCURVE",
"845 463 OFFCURVE",
"845 447 CURVE SMOOTH",
"845 0 LINE"
);
},
{
closed = 1;
nodes = (
"1226 -113 LINE SMOOTH",
"1226 -129 OFFCURVE",
"1217 -141 OFFCURVE",
"1199 -141 CURVE SMOOTH",
"1181 -141 OFFCURVE",
"1171 -129 OFFCURVE",
"1171 -113 CURVE SMOOTH",
"1171 0 LINE",
"845 0 LINE",
"845 -95 LINE SMOOTH",
"845 -286 OFFCURVE",
"960 -386 OFFCURVE",
"1135 -386 CURVE SMOOTH",
"1304 -386 OFFCURVE",
"1427 -286 OFFCURVE",
"1427 -95 CURVE SMOOTH",
"1427 0 LINE",
"1226 0 LINE"
);
},
{
closed = 1;
nodes = (
"1353 -20 OFFCURVE",
"1702 258 OFFCURVE",
"1702 735 CURVE SMOOTH",
"1702 1213 OFFCURVE",
"1353 1491 OFFCURVE",
"867 1491 CURVE SMOOTH",
"382 1491 OFFCURVE",
"33 1213 OFFCURVE",
"33 735 CURVE SMOOTH",
"33 258 OFFCURVE",
"382 -20 OFFCURVE",
"867 -20 CURVE SMOOTH"
);
},
{
closed = 1;
nodes = (
"633 201 OFFCURVE",
"495 411 OFFCURVE",
"495 735 CURVE SMOOTH",
"495 1060 OFFCURVE",
"633 1270 OFFCURVE",
"867 1270 CURVE SMOOTH",
"1102 1270 OFFCURVE",
"1240 1060 OFFCURVE",
"1240 735 CURVE SMOOTH",
"1240 411 OFFCURVE",
"1102 201 OFFCURVE",
"867 201 CURVE SMOOTH"
);
}
);
width = 1734;
}
);
leftKerningGroup = O;
leftMetricsKey = O;
rightKerningGroup = O;
rightMetricsKey = O;
unicode = 0051;
},
{
glyphname = R;
lastChange = "2020-09-22 10:44:12 +0000";
layers = (
{
hints = (
{
origin = "{2, 0}";
scale = "{1.1, 1}";
type = Corner;
name = _corner.Serif;
options = 1;
},
{
origin = "{2, 1}";
scale = "{-1.4, 1}";
type = Corner;
name = _corner.Serif;
},
{
origin = "{2, 3}";
scale = "{-1.08, 1}";
type = Corner;
name = _corner.Serif;
}
);
layerId = "CA54B7DC-FBBB-40FE-ACF3-AABDD76D6A7B";
paths = (
{
closed = 1;
nodes = (
"347 1456 LINE",
"927 1456 LINE SMOOTH",
"1187 1456 OFFCURVE",
"1351 1339 OFFCURVE",
"1351 1109 CURVE SMOOTH",
"1351 879 OFFCURVE",
"1187 762 OFFCURVE",
"927 762 CURVE SMOOTH",
"347 762 LINE",
"347 718 LINE",
"893 718 LINE",
"915 718 LINE",
"939 718 LINE SMOOTH",
"1211 718 OFFCURVE",
"1399 850 OFFCURVE",
"1399 1109 CURVE SMOOTH",
"1399 1368 OFFCURVE",
"1211 1500 OFFCURVE",
"939 1500 CURVE SMOOTH",
"347 1500 LINE"
);
},
{
closed = 1;
nodes = (
"347 718 LINE",
"763 718 LINE SMOOTH",
"925 718 OFFCURVE",
"1015 624 OFFCURVE",
"1015 456 CURVE SMOOTH",
"1015 200 LINE SMOOTH",
"1015 66 OFFCURVE",
"1077 -20 OFFCURVE",
"1211 -20 CURVE SMOOTH",
"1345 -20 OFFCURVE",
"1407 66 OFFCURVE",
"1407 200 CURVE SMOOTH",
"1407 520 LINE",
"1363 520 LINE",
"1363 200 LINE SMOOTH",
"1363 100 OFFCURVE",
"1319 22 OFFCURVE",
"1213 22 CURVE SMOOTH",
"1105 22 OFFCURVE",
"1063 100 OFFCURVE",
"1063 200 CURVE SMOOTH",
"1063 448 LINE SMOOTH",
"1063 638 OFFCURVE",
"978 735 OFFCURVE",
"781 735 CURVE SMOOTH",
"347 735 LINE"
);
},
{
closed = 1;
nodes = (
"299 0 LINE",
"347 0 LINE",
"347 1500 LINE",
"299 1500 LINE"
);
}
);
width = 1545;
},
{
hints = (
{
origin = "{2, 0}";
scale = "{1.1, 1}";
type = Corner;
name = _corner.Serif;
options = 1;
},
{
origin = "{2, 1}";
scale = "{-1.4, 1}";
type = Corner;
name = _corner.Serif;
},
{
origin = "{2, 3}";
scale = "{-1.08, 1}";
type = Corner;
name = _corner.Serif;
}
);
layerId = "1E61A082-F045-49A7-AB52-DD1B03FD9B54";
paths = (
{
closed = 1;
nodes = (
"347 1462 LINE",
"907 1462 LINE SMOOTH",
"1167 1462 OFFCURVE",
"1331 1344 OFFCURVE",
"1331 1111 CURVE SMOOTH",
"1331 878 OFFCURVE",
"1167 760 OFFCURVE",
"907 760 CURVE SMOOTH",
"347 760 LINE",
"347 722 LINE",
"873 722 LINE",
"895 722 LINE",
"919 722 LINE SMOOTH",
"1191 722 OFFCURVE",
"1379 853 OFFCURVE",
"1379 1111 CURVE SMOOTH",
"1379 1369 OFFCURVE",
"1191 1500 OFFCURVE",
"919 1500 CURVE SMOOTH",
"347 1500 LINE"
);
},
{
closed = 1;
nodes = (
"347 722 LINE",
"743 722 LINE SMOOTH",
"905 722 OFFCURVE",
"995 628 OFFCURVE",
"995 460 CURVE SMOOTH",
"995 200 LINE SMOOTH",
"995 66 OFFCURVE",
"1057 -20 OFFCURVE",
"1191 -20 CURVE SMOOTH",
"1325 -20 OFFCURVE",
"1387 66 OFFCURVE",
"1387 200 CURVE SMOOTH",
"1387 604 LINE",
"1347 604 LINE",
"1347 200 LINE SMOOTH",
"1347 98 OFFCURVE",
"1302 18 OFFCURVE",
"1195 18 CURVE SMOOTH",
"1086 18 OFFCURVE",
"1043 98 OFFCURVE",
"1043 200 CURVE SMOOTH",
"1043 452 LINE SMOOTH",
"1043 642 OFFCURVE",
"958 739 OFFCURVE",
"761 739 CURVE SMOOTH",
"347 739 LINE"
);
},
{
closed = 1;
nodes = (
"299 0 LINE",
"347 0 LINE",
"347 1500 LINE",
"299 1500 LINE"
);
}
);
width = 1545;
},
{
hints = (
{
origin = "{2, 0}";
type = Corner;
name = _corner.Serif;
options = 1;
},
{
origin = "{2, 1}";
scale = "{-1.2, 1}";
type = Corner;
name = _corner.Serif;
},
{
origin = "{2, 3}";
scale = "{-0.96, 0.96933}";
type = Corner;
name = _corner.Serif;
}
);
layerId = "219068EA-2B9B-40DC-949E-B60449C01B8A";
paths = (
{
closed = 1;
nodes = (
"672 1217 LINE",
"936 1217 LINE SMOOTH",
"1041 1217 OFFCURVE",
"1105 1155 OFFCURVE",
"1105 1041 CURVE SMOOTH",
"1105 928 OFFCURVE",
"1041 866 OFFCURVE",
"936 866 CURVE SMOOTH",
"672 866 LINE",
"672 612 LINE",
"816 612 LINE",
"865 640 LINE",
"1015 640 LINE SMOOTH",
"1327 640 OFFCURVE",
"1537 782 OFFCURVE",
"1537 1057 CURVE SMOOTH",
"1537 1330 OFFCURVE",
"1330 1471 OFFCURVE",
"1015 1471 CURVE SMOOTH",
"672 1471 LINE"
);
},
{
closed = 1;
nodes = (
"672 612 LINE",
"660 612 LINE SMOOTH",
"750 612 OFFCURVE",
"802 565 OFFCURVE",
"802 485 CURVE SMOOTH",
"802 368 LINE SMOOTH",
"802 132 OFFCURVE",
"933 -20 OFFCURVE",
"1215 -20 CURVE SMOOTH",
"1476 -20 OFFCURVE",
"1592 119 OFFCURVE",
"1592 338 CURVE SMOOTH",
"1592 691 LINE",
"1345 691 LINE",
"1345 328 LINE SMOOTH",
"1345 285 OFFCURVE",
"1328 259 OFFCURVE",
"1280 259 CURVE SMOOTH",
"1232 259 OFFCURVE",
"1215 285 OFFCURVE",
"1215 328 CURVE SMOOTH",
"1215 376 LINE SMOOTH",
"1215 570 OFFCURVE",
"1111 678 OFFCURVE",
"856 678 CURVE SMOOTH",
"672 678 LINE"
);
},
{
closed = 1;
nodes = (
"253 0 LINE",
"672 0 LINE",
"672 1471 LINE",
"253 1471 LINE"
);
}
);
width = 1623;
},
{
hints = (
{
origin = "{2, 0}";
type = Corner;
name = _corner.Serif;
options = 1;
},
{
origin = "{2, 1}";
scale = "{-0.78667, 1}";
type = Corner;
name = _corner.Serif;
},
{
origin = "{2, 3}";
scale = "{-0.96, 0.98467}";
type = Corner;
name = _corner.Serif;
}
);
layerId = "0C29AA02-E021-4BD1-A2C4-87F681D64C35";
paths = (
{
closed = 1;
nodes = (
"611 1250 LINE",
"854 1250 LINE SMOOTH",
"973 1250 OFFCURVE",
"1045 1183 OFFCURVE",
"1045 1047 CURVE SMOOTH",
"1045 912 OFFCURVE",
"973 845 OFFCURVE",
"854 845 CURVE SMOOTH",
"611 845 LINE",
"611 624 LINE",
"757 624 LINE",
"745 649 LINE",
"949 649 LINE SMOOTH",
"1268 649 OFFCURVE",
"1476 788 OFFCURVE",
"1476 1060 CURVE SMOOTH",
"1476 1331 OFFCURVE",
"1274 1471 OFFCURVE",
"964 1471 CURVE SMOOTH",
"611 1471 LINE"
);
},
{
closed = 1;
nodes = (
"611 624 LINE",
"576 624 LINE SMOOTH",
"679 624 OFFCURVE",
"736 571 OFFCURVE",
"736 479 CURVE SMOOTH",
"736 336 LINE SMOOTH",
"736 121 OFFCURVE",
"851 -20 OFFCURVE",
"1109 -20 CURVE SMOOTH",
"1347 -20 OFFCURVE",
"1453 109 OFFCURVE",
"1453 306 CURVE SMOOTH",
"1453 603 LINE",
"1219 603 LINE",
"1219 297 LINE SMOOTH",
"1219 263 OFFCURVE",
"1208 244 OFFCURVE",
"1178 244 CURVE SMOOTH",
"1149 244 OFFCURVE",
"1137 263 OFFCURVE",
"1137 297 CURVE SMOOTH",
"1137 367 LINE SMOOTH",
"1137 547 OFFCURVE",
"1042 647 OFFCURVE",
"809 647 CURVE SMOOTH",
"611 647 LINE"
);
},
{
closed = 1;
nodes = (
"192 0 LINE",
"611 0 LINE",
"611 1471 LINE",
"192 1471 LINE"
);
}
);
width = 1518;
}
);
leftKerningGroup = I;
leftMetricsKey = H;
rightKerningGroup = R;
unicode = 0052;
},
{
glyphname = S;
lastChange = "2020-09-22 10:42:36 +0000";
layers = (
{
layerId = "CA54B7DC-FBBB-40FE-ACF3-AABDD76D6A7B";
paths = (
{
closed = 1;
nodes = (
"188 890 OFFCURVE",
"388 802 OFFCURVE",
"646 762 CURVE SMOOTH",
"854 730 LINE SMOOTH",
"1095 693 OFFCURVE",
"1292 614 OFFCURVE",
"1292 371 CURVE SMOOTH",
"1292 145 OFFCURVE",
"1140 20 OFFCURVE",
"862 20 CURVE SMOOTH",
"581 20 OFFCURVE",
"332 162 OFFCURVE",
"222 470 CURVE",
"184 470 LINE",
"283 124 OFFCURVE",
"561 -24 OFFCURVE",
"862 -24 CURVE SMOOTH",
"1159 -24 OFFCURVE",
"1340 106 OFFCURVE",
"1340 371 CURVE SMOOTH",
"1340 638 OFFCURVE",
"1137 735 OFFCURVE",
"862 777 CURVE SMOOTH",
"654 809 LINE SMOOTH",
"414 846 OFFCURVE",
"236 922 OFFCURVE",
"236 1149 CURVE SMOOTH",
"236 1367 OFFCURVE",
"385 1480 OFFCURVE",
"660 1480 CURVE SMOOTH",
"926 1480 OFFCURVE",
"1154 1351 OFFCURVE",
"1252 1050 CURVE",
"1287 1050 LINE",
"1211 1391 OFFCURVE",
"942 1524 OFFCURVE",
"660 1524 CURVE SMOOTH",
"370 1524 OFFCURVE",
"188 1406 OFFCURVE",
"188 1149 CURVE SMOOTH"
);
},
{
closed = 1;
nodes = (
"1254 1500 LINE",
"1254 1124 LINE",
"1287 1050 LINE",
"1298 1050 LINE",
"1298 1500 LINE"
);
},
{
closed = 1;
nodes = (
"220 0 LINE",
"220 392 LINE",
"184 470 LINE",
"176 470 LINE",
"176 0 LINE"
);
}
);
width = 1496;
},
{
layerId = "1E61A082-F045-49A7-AB52-DD1B03FD9B54";
paths = (
{
closed = 1;
nodes = (
"208 890 OFFCURVE",
"399 812 OFFCURVE",
"646 767 CURVE SMOOTH",
"854 729 LINE SMOOTH",
"1084 687 OFFCURVE",
"1272 614 OFFCURVE",
"1272 371 CURVE SMOOTH",
"1272 142 OFFCURVE",
"1117 16 OFFCURVE",
"852 16 CURVE SMOOTH",
"580 16 OFFCURVE",
"347 178 OFFCURVE",
"240 530 CURVE",
"206 530 LINE",
"300 139 OFFCURVE",
"560 -24 OFFCURVE",
"852 -24 CURVE SMOOTH",
"1137 -24 OFFCURVE",
"1320 106 OFFCURVE",
"1320 371 CURVE SMOOTH",
"1320 638 OFFCURVE",
"1126 724 OFFCURVE",
"862 772 CURVE SMOOTH",
"654 810 LINE SMOOTH",
"425 852 OFFCURVE",
"256 922 OFFCURVE",
"256 1149 CURVE SMOOTH",
"256 1370 OFFCURVE",
"408 1484 OFFCURVE",
"670 1484 CURVE SMOOTH",
"926 1484 OFFCURVE",
"1140 1336 OFFCURVE",
"1234 990 CURVE",
"1267 990 LINE",
"1190 1374 OFFCURVE",
"942 1524 OFFCURVE",
"670 1524 CURVE SMOOTH",
"392 1524 OFFCURVE",
"208 1406 OFFCURVE",
"208 1149 CURVE SMOOTH"
);
},
{
closed = 1;
nodes = (
"1238 1500 LINE",
"1238 1064 LINE",
"1267 990 LINE",
"1278 990 LINE",
"1278 1500 LINE"
);
},
{
closed = 1;
nodes = (
"236 0 LINE",
"236 452 LINE",
"206 530 LINE",
"196 530 LINE",
"196 0 LINE"
);
}
);
width = 1496;
},
{
layerId = "219068EA-2B9B-40DC-949E-B60449C01B8A";
paths = (
{
closed = 1;
nodes = (
"98 742 OFFCURVE",
"325 598 OFFCURVE",
"666 551 CURVE SMOOTH",
"806 532 LINE SMOOTH",
"912 517 OFFCURVE",
"995 475 OFFCURVE",
"995 391 CURVE SMOOTH",
"995 302 OFFCURVE",
"926 236 OFFCURVE",
"789 236 CURVE SMOOTH",
"617 236 OFFCURVE",
"455 352 OFFCURVE",
"382 466 CURVE",
"147 466 LINE",
"264 108 OFFCURVE",
"524 -22 OFFCURVE",
"844 -22 CURVE SMOOTH",
"1165 -22 OFFCURVE",
"1374 146 OFFCURVE",
"1374 467 CURVE SMOOTH",
"1374 774 OFFCURVE",
"1125 896 OFFCURVE",
"784 944 CURVE SMOOTH",
"643 963 LINE SMOOTH",
"540 977 OFFCURVE",
"474 1033 OFFCURVE",
"474 1106 CURVE SMOOTH",
"474 1184 OFFCURVE",
"550 1235 OFFCURVE",
"670 1235 CURVE SMOOTH",
"825 1235 OFFCURVE",
"963 1152 OFFCURVE",
"1045 1040 CURVE",
"1295 1040 LINE",
"1165 1342 OFFCURVE",
"930 1493 OFFCURVE",
"633 1493 CURVE SMOOTH",
"337 1493 OFFCURVE",
"98 1353 OFFCURVE",
"98 1048 CURVE SMOOTH"
);
},
{
closed = 1;
nodes = (
"1056 1471 LINE",
"1056 1267 LINE",
"1295 1040 LINE",
"1318 1040 LINE",
"1318 1471 LINE"
);
},
{
closed = 1;
nodes = (
"369 0 LINE",
"369 219 LINE",
"147 466 LINE",
"108 466 LINE",
"108 0 LINE"
);
}
);
width = 1471;
},
{
layerId = "0C29AA02-E021-4BD1-A2C4-87F681D64C35";
paths = (
{
closed = 1;
nodes = (
"76 731 OFFCURVE",
"312 593 OFFCURVE",
"643 543 CURVE SMOOTH",
"784 523 LINE SMOOTH",
"901 507 OFFCURVE",
"997 464 OFFCURVE",
"997 363 CURVE SMOOTH",
"997 256 OFFCURVE",
"923 202 OFFCURVE",
"792 202 CURVE SMOOTH",
"577 202 OFFCURVE",
"399 324 OFFCURVE",
"322 535 CURVE",
"146 535 LINE",
"232 130 OFFCURVE",
"484 -22 OFFCURVE",
"808 -22 CURVE SMOOTH",
"1131 -22 OFFCURVE",
"1352 148 OFFCURVE",
"1352 469 CURVE SMOOTH",
"1352 778 OFFCURVE",
"1099 904 OFFCURVE",
"761 954 CURVE SMOOTH",
"621 973 LINE SMOOTH",
"511 988 OFFCURVE",
"427 1038 OFFCURVE",
"427 1129 CURVE SMOOTH",
"427 1224 OFFCURVE",
"500 1269 OFFCURVE",
"628 1269 CURVE SMOOTH",
"815 1269 OFFCURVE",
"987 1158 OFFCURVE",
"1060 971 CURVE",
"1236 971 LINE",
"1144 1346 OFFCURVE",
"910 1493 OFFCURVE",
"613 1493 CURVE SMOOTH",
"316 1493 OFFCURVE",
"76 1350 OFFCURVE",
"76 1045 CURVE SMOOTH"
);
},
{
closed = 1;
nodes = (
"1076 1471 LINE",
"1076 1045 LINE",
"1236 971 LINE",
"1301 971 LINE",
"1301 1471 LINE"
);
},
{
closed = 1;
nodes = (
"304 0 LINE",
"304 442 LINE",
"146 535 LINE",
"79 535 LINE",
"79 0 LINE"
);
}
);
width = 1411;
}
);
leftKerningGroup = S;
rightKerningGroup = S;
unicode = 0053;
},
{
glyphname = T;
lastChange = "2020-09-22 10:44:17 +0000";
layers = (
{
hints = (
{
origin = "{0, 2}";
scale = "{1.4, 1}";
type = Corner;
name = _corner.Serif;
},
{
origin = "{0, 3}";
scale = "{-1.4, 1}";
type = Corner;
name = _corner.Serif;
options = 1;
}
);
layerId = "CA54B7DC-FBBB-40FE-ACF3-AABDD76D6A7B";
paths = (
{
closed = 1;
nodes = (
"814 1500 LINE",
"766 1500 LINE",
"766 0 LINE",
"814 0 LINE"
);
},
{
closed = 1;
nodes = (
"1484 1500 LINE",
"96 1500 LINE",
"96 1456 LINE",
"1484 1456 LINE"
);
},
{
closed = 1;
nodes = (
"1414 1456 OFFCURVE",
"1440 1430 OFFCURVE",
"1440 1326 CURVE SMOOTH",
"1440 1040 LINE",
"1484 1040 LINE",
"1484 1456 LINE",
"1314 1456 LINE"
);
},
{
closed = 1;
nodes = (
"96 1456 LINE",
"96 1040 LINE",
"140 1040 LINE",
"140 1326 LINE SMOOTH",
"140 1430 OFFCURVE",
"166 1456 OFFCURVE",
"266 1456 CURVE"
);
}
);
width = 1580;
},
{
hints = (
{
origin = "{0, 2}";
scale = "{1.4, 1}";
type = Corner;
name = _corner.Serif;
},
{
origin = "{0, 3}";
scale = "{-1.4, 1}";
type = Corner;
name = _corner.Serif;
options = 1;
}
);
layerId = "1E61A082-F045-49A7-AB52-DD1B03FD9B54";
paths = (
{
closed = 1;
nodes = (
"814 1500 LINE",
"766 1500 LINE",
"766 0 LINE",
"814 0 LINE"
);
},
{
closed = 1;
nodes = (
"1474 1500 LINE",
"106 1500 LINE",
"106 1462 LINE",
"1474 1462 LINE"
);
},
{
closed = 1;
nodes = (
"1408 1462 OFFCURVE",
"1434 1436 OFFCURVE",
"1434 1332 CURVE SMOOTH",
"1434 980 LINE",
"1474 980 LINE",
"1474 1462 LINE",
"1308 1462 LINE"
);
},
{
closed = 1;
nodes = (
"106 1462 LINE",
"106 980 LINE",
"146 980 LINE",
"146 1332 LINE SMOOTH",
"146 1436 OFFCURVE",
"172 1462 OFFCURVE",
"272 1462 CURVE"
);
}
);
width = 1580;
},
{
hints = (
{
origin = "{0, 2}";
scale = "{1.2, 1}";
type = Corner;
name = _corner.Serif;
},
{
origin = "{0, 3}";
scale = "{-1.2, 1}";
type = Corner;
name = _corner.Serif;
options = 1;
}
);
layerId = "219068EA-2B9B-40DC-949E-B60449C01B8A";
paths = (
{
closed = 1;
nodes = (
"996 1471 LINE",
"577 1471 LINE",
"577 0 LINE",
"996 0 LINE"
);
},
{
closed = 1;
nodes = (
"1503 1471 LINE",
"71 1471 LINE",
"71 1217 LINE",
"1503 1217 LINE"
);
},
{
closed = 1;
nodes = (
"1153 1217 OFFCURVE",
"1235 1136 OFFCURVE",
"1235 964 CURVE SMOOTH",
"1235 984 LINE",
"1503 984 LINE",
"1503 1217 LINE",
"986 1217 LINE"
);
},
{
closed = 1;
nodes = (
"71 1217 LINE",
"71 984 LINE",
"339 984 LINE",
"339 964 LINE SMOOTH",
"339 1136 OFFCURVE",
"420 1217 OFFCURVE",
"588 1217 CURVE"
);
}
);
width = 1574;
},
{
hints = (
{
origin = "{0, 2}";
scale = "{1.4, 1}";
type = Corner;
name = _corner.Serif;
},
{
origin = "{0, 3}";
scale = "{-1.4, 1}";
type = Corner;
name = _corner.Serif;
options = 1;
}
);
layerId = "0C29AA02-E021-4BD1-A2C4-87F681D64C35";
paths = (
{
closed = 1;
nodes = (
"970 1471 LINE",
"551 1471 LINE",
"551 0 LINE",
"970 0 LINE"
);
},
{
closed = 1;
nodes = (
"1477 1471 LINE",
"45 1471 LINE",
"45 1250 LINE",
"1477 1250 LINE"
);
},
{
closed = 1;
nodes = (
"1157 1250 OFFCURVE",
"1239 1169 OFFCURVE",
"1239 997 CURVE SMOOTH",
"1239 915 LINE",
"1477 915 LINE",
"1477 1250 LINE",
"990 1250 LINE"
);
},
{
closed = 1;
nodes = (
"45 1250 LINE",
"45 915 LINE",
"283 915 LINE",
"283 997 LINE SMOOTH",
"283 1169 OFFCURVE",
"364 1250 OFFCURVE",
"532 1250 CURVE"
);
}
);
width = 1521;
}
);
leftKerningGroup = T;
rightKerningGroup = T;
unicode = 0054;
},
{
glyphname = U;
lastChange = "2020-09-22 10:42:50 +0000";
layers = (
{
hints = (
{
origin = "{0, 6}";
scale = "{1.08, 1}";
type = Corner;
name = _corner.Serif;
},
{
origin = "{0, 7}";
scale = "{-1.18, 1}";
type = Corner;
name = _corner.Serif;
options = 1;
},
{
origin = "{0, 15}";
scale = "{1.18, 1}";
type = Corner;
name = _corner.Serif;
options = 1;
},
{
origin = "{0, 16}";
scale = "{-1.08, 1}";
type = Corner;
name = _corner.Serif;
}
);
layerId = "CA54B7DC-FBBB-40FE-ACF3-AABDD76D6A7B";
leftMetricsKey = "=H-16";
rightMetricsKey = "=H-16";
paths = (
{
closed = 1;
nodes = (
"278 196 OFFCURVE",
"475 -24 OFFCURVE",
"864 -24 CURVE SMOOTH",
"1253 -24 OFFCURVE",
"1450 196 OFFCURVE",
"1450 584 CURVE SMOOTH",
"1450 1500 LINE",
"1406 1500 LINE",
"1406 584 LINE SMOOTH",
"1406 238 OFFCURVE",
"1234 20 OFFCURVE",
"866 20 CURVE SMOOTH",
"498 20 OFFCURVE",
"326 238 OFFCURVE",
"326 584 CURVE SMOOTH",
"326 1500 LINE",
"278 1500 LINE",
"278 584 LINE SMOOTH"
);
}
);
width = 1728;
},
{
hints = (
{
origin = "{0, 6}";
scale = "{1.08, 1}";
type = Corner;
name = _corner.Serif;
},
{
origin = "{0, 7}";
scale = "{-1.18, 1}";
type = Corner;
name = _corner.Serif;
options = 1;
},
{
origin = "{0, 15}";
scale = "{1.18, 1}";
type = Corner;
name = _corner.Serif;
options = 1;
},
{
origin = "{0, 16}";
scale = "{-1.08, 1}";
type = Corner;
name = _corner.Serif;
}
);
layerId = "1E61A082-F045-49A7-AB52-DD1B03FD9B54";
leftMetricsKey = "=H-16";
rightMetricsKey = "=H-16";
paths = (
{
closed = 1;
nodes = (
"278 192 OFFCURVE",
"472 -24 OFFCURVE",
"854 -24 CURVE SMOOTH",
"1236 -24 OFFCURVE",
"1430 192 OFFCURVE",
"1430 574 CURVE SMOOTH",
"1430 1500 LINE",
"1390 1500 LINE",
"1390 574 LINE SMOOTH",
"1390 230 OFFCURVE",
"1221 14 OFFCURVE",
"858 14 CURVE SMOOTH",
"495 14 OFFCURVE",
"326 230 OFFCURVE",
"326 574 CURVE SMOOTH",
"326 1500 LINE",
"278 1500 LINE",
"278 574 LINE SMOOTH"
);
}
);
width = 1708;
},
{
hints = (
{
origin = "{0, 6}";
scale = "{0.96, 0.96933}";
type = Corner;
name = _corner.Serif;
},
{
origin = "{0, 7}";
scale = "{-1.06, 0.96933}";
type = Corner;
name = _corner.Serif;
options = 1;
},
{
origin = "{0, 15}";
scale = "{1.06, 0.96933}";
type = Corner;
name = _corner.Serif;
options = 1;
},
{
origin = "{0, 16}";
scale = "{-0.96, 0.96933}";
type = Corner;
name = _corner.Serif;
}
);
layerId = "219068EA-2B9B-40DC-949E-B60449C01B8A";
paths = (
{
closed = 1;
nodes = (
"247 199 OFFCURVE",
"470 -20 OFFCURVE",
"892 -20 CURVE SMOOTH",
"1314 -20 OFFCURVE",
"1537 199 OFFCURVE",
"1537 589 CURVE SMOOTH",
"1537 1471 LINE",
"1215 1471 LINE",
"1215 546 LINE SMOOTH",
"1215 357 OFFCURVE",
"1143 238 OFFCURVE",
"942 238 CURVE SMOOTH",
"742 238 OFFCURVE",
"669 357 OFFCURVE",
"669 546 CURVE SMOOTH",
"669 1471 LINE",
"247 1471 LINE",
"247 589 LINE SMOOTH"
);
}
);
width = 1784;
},
{
hints = (
{
origin = "{0, 6}";
scale = "{0.96, 0.98467}";
type = Corner;
name = _corner.Serif;
},
{
origin = "{0, 7}";
scale = "{-1.16, 0.98467}";
type = Corner;
name = _corner.Serif;
options = 1;
},
{
origin = "{0, 15}";
scale = "{1.16, 0.98467}";
type = Corner;
name = _corner.Serif;
options = 1;
},
{
origin = "{0, 16}";
scale = "{-0.96, 0.98467}";
type = Corner;
name = _corner.Serif;
}
);
layerId = "0C29AA02-E021-4BD1-A2C4-87F681D64C35";
paths = (
{
closed = 1;
nodes = (
"186 196 OFFCURVE",
"406 -20 OFFCURVE",
"822 -20 CURVE SMOOTH",
"1236 -20 OFFCURVE",
"1454 196 OFFCURVE",
"1454 580 CURVE SMOOTH",
"1454 1471 LINE",
"1214 1471 LINE",
"1214 556 LINE SMOOTH",
"1214 356 OFFCURVE",
"1118 229 OFFCURVE",
"910 229 CURVE SMOOTH",
"702 229 OFFCURVE",
"605 356 OFFCURVE",
"605 556 CURVE SMOOTH",
"605 1471 LINE",
"186 1471 LINE",
"186 580 LINE SMOOTH"
);
}
);
width = 1640;
}
);
leftKerningGroup = U;
leftMetricsKey = H;
rightKerningGroup = U;
rightMetricsKey = H;
unicode = 0055;
},
{
glyphname = V;
lastChange = "2020-09-22 10:38:37 +0000";
layers = (
{
hints = (
{
origin = "{0, 0}";
scale = "{-1.28, 1}";
type = Corner;
name = _corner.Serif;
options = 1;
},
{
origin = "{0, 3}";
scale = "{1.28, 1}";
type = Corner;
name = _corner.Serif;
},
{
origin = "{0, 4}";
scale = "{-0.74, 1}";
type = Corner;
name = _corner.Serif;
options = 1;
},
{
origin = "{0, 7}";
scale = "{0.74, 1}";
type = Corner;
name = _corner.Serif;
}
);
layerId = "CA54B7DC-FBBB-40FE-ACF3-AABDD76D6A7B";
paths = (
{
closed = 1;
nodes = (
"1435 1500 LINE",
"816 47 LINE",
"833 47 LINE",
"213 1500 LINE",
"161 1500 LINE",
"803 0 LINE",
"841 0 LINE",
"1483 1500 LINE"
);
}
);
width = 1646;
},
{
hints = (
{
origin = "{0, 0}";
scale = "{-1.28, 1}";
type = Corner;
name = _corner.Serif;
options = 1;
},
{
origin = "{0, 3}";
scale = "{1.28, 1}";
type = Corner;
name = _corner.Serif;
},
{
origin = "{0, 4}";
scale = "{-0.74, 1}";
type = Corner;
name = _corner.Serif;
options = 1;
},
{
origin = "{0, 7}";
scale = "{0.74, 1}";
type = Corner;
name = _corner.Serif;
}
);
layerId = "1E61A082-F045-49A7-AB52-DD1B03FD9B54";
paths = (
{
closed = 1;
nodes = (
"1410 1500 LINE",
"819 47 LINE",
"836 47 LINE",
"245 1500 LINE",
"193 1500 LINE",
"805 0 LINE",
"841 0 LINE",
"1453 1500 LINE"
);
}
);
width = 1646;
},
{
hints = (
{
origin = "{0, 0}";
scale = "{-1.52, 0.96933}";
type = Corner;
name = _corner.Serif;
options = 1;
},
{
origin = "{0, 3}";
scale = "{1.52, 0.96933}";
type = Corner;
name = _corner.Serif;
},
{
origin = "{0, 4}";
scale = "{-0.38533, 0.96933}";
type = Corner;
name = _corner.Serif;
options = 1;
},
{
origin = "{0, 7}";
scale = "{0.38533, 0.96933}";
type = Corner;
name = _corner.Serif;
}
);
layerId = "219068EA-2B9B-40DC-949E-B60449C01B8A";
paths = (
{
closed = 1;
nodes = (
"1309 1471 LINE",
"833 231 LINE",
"1010 229 LINE",
"553 1471 LINE",
"100 1471 LINE",
"670 0 LINE",
"1037 0 LINE",
"1607 1471 LINE"
);
}
);
width = 1707;
},
{
hints = (
{
origin = "{0, 0}";
scale = "{-1.62, 0.98467}";
type = Corner;
name = _corner.Serif;
options = 1;
},
{
origin = "{0, 3}";
scale = "{1.62, 0.98467}";
type = Corner;
name = _corner.Serif;
},
{
origin = "{0, 4}";
scale = "{-0.38533, 0.98467}";
type = Corner;
name = _corner.Serif;
options = 1;
},
{
origin = "{0, 7}";
scale = "{0.38533, 0.98467}";
type = Corner;
name = _corner.Serif;
}
);
layerId = "0C29AA02-E021-4BD1-A2C4-87F681D64C35";
paths = (
{
closed = 1;
nodes = (
"1337 1471 LINE",
"861 231 LINE",
"1017 229 LINE",
"558 1471 LINE",
"105 1471 LINE",
"675 0 LINE",
"1023 0 LINE",
"1593 1471 LINE"
);
}
);
width = 1696;
}
);
leftKerningGroup = V;
leftMetricsKey = A;
rightKerningGroup = V;
rightMetricsKey = A;
unicode = 0056;
},
{
glyphname = W;
lastChange = "2020-09-22 10:38:37 +0000";
layers = (
{
hints = (
{
origin = "{0, 0}";
scale = "{-1.28, 1}";
type = Corner;
name = _corner.Serif;
options = 1;
},
{
origin = "{0, 3}";
scale = "{1.28, 1}";
type = Corner;
name = _corner.Serif;
},
{
origin = "{0, 4}";
scale = "{-0.74, 1}";
type = Corner;
name = _corner.Serif;
options = 1;
},
{
origin = "{0, 7}";
scale = "{0.74, 1}";
type = Corner;
name = _corner.Serif;
},
{
origin = "{1, 3}";
scale = "{1.28, 1}";
type = Corner;
name = _corner.Serif;
},
{
origin = "{1, 4}";
scale = "{-0.74, 1}";
type = Corner;
name = _corner.Serif;
options = 1;
}
);
layerId = "CA54B7DC-FBBB-40FE-ACF3-AABDD76D6A7B";
paths = (
{
closed = 1;
nodes = (
"1963 1500 LINE",
"1481 47 LINE",
"1500 47 LINE",
"1018 1500 LINE",
"967 1500 LINE",
"1467 0 LINE",
"1505 0 LINE",
"2005 1500 LINE"
);
},
{
closed = 1;
nodes = (
"1077 1252 LINE",
"677 47 LINE",
"696 47 LINE",
"214 1500 LINE",
"163 1500 LINE",
"663 0 LINE",
"701 0 LINE",
"1097 1187 LINE"
);
}
);
width = 2170;
},
{
hints = (
{
origin = "{0, 0}";
scale = "{-1.28, 1}";
type = Corner;
name = _corner.Serif;
options = 1;
},
{
origin = "{0, 3}";
scale = "{1.28, 1}";
type = Corner;
name = _corner.Serif;
},
{
origin = "{0, 4}";
scale = "{-0.74, 1}";
type = Corner;
name = _corner.Serif;
options = 1;
},
{
origin = "{0, 7}";
scale = "{0.74, 1}";
type = Corner;
name = _corner.Serif;
},
{
origin = "{1, 3}";
scale = "{1.28, 1}";
type = Corner;
name = _corner.Serif;
},
{
origin = "{1, 4}";
scale = "{-0.74, 1}";
type = Corner;
name = _corner.Serif;
options = 1;
}
);
layerId = "1E61A082-F045-49A7-AB52-DD1B03FD9B54";
paths = (
{
closed = 1;
nodes = (
"1994 1500 LINE",
"1512 47 LINE",
"1531 47 LINE",
"1049 1500 LINE",
"998 1500 LINE",
"1498 0 LINE",
"1536 0 LINE",
"2036 1500 LINE"
);
},
{
closed = 1;
nodes = (
"1108 1252 LINE",
"708 47 LINE",
"727 47 LINE",
"245 1500 LINE",
"194 1500 LINE",
"694 0 LINE",
"732 0 LINE",
"1128 1187 LINE"
);
}
);
width = 2230;
},
{
hints = (
{
origin = "{0, 0}";
scale = "{-1.21333, 0.98467}";
type = Corner;
name = _corner.Serif;
options = 1;
},
{
origin = "{0, 3}";
scale = "{1.21333, 0.98467}";
type = Corner;
name = _corner.Serif;
},
{
origin = "{0, 4}";
scale = "{-0.324, 0.98467}";
type = Corner;
name = _corner.Serif;
options = 1;
},
{
origin = "{0, 7}";
scale = "{0.416, 0.98467}";
type = Corner;
name = _corner.Serif;
},
{
origin = "{1, 3}";
scale = "{1.12133, 0.98467}";
type = Corner;
name = _corner.Serif;
},
{
origin = "{1, 4}";
scale = "{-0.416, 0.98467}";
type = Corner;
name = _corner.Serif;
options = 1;
}
);
layerId = "219068EA-2B9B-40DC-949E-B60449C01B8A";
paths = (
{
closed = 1;
nodes = (
"1810 1471 LINE",
"1477 231 LINE",
"1653 229 LINE",
"1336 1471 LINE",
"915 1471 LINE",
"1318 0 LINE",
"1683 0 LINE",
"2086 1471 LINE"
);
},
{
closed = 1;
nodes = (
"1014 1394 LINE",
"696 231 LINE",
"869 229 LINE",
"556 1471 LINE",
"115 1471 LINE",
"519 0 LINE",
"892 0 LINE",
"1199 1121 LINE"
);
}
);
width = 2201;
},
{
hints = (
{
origin = "{0, 0}";
scale = "{-1.336, 0.98467}";
type = Corner;
name = _corner.Serif;
options = 1;
},
{
origin = "{0, 3}";
scale = "{1.336, 0.98467}";
type = Corner;
name = _corner.Serif;
},
{
origin = "{0, 4}";
scale = "{-0.416, 0.98467}";
type = Corner;
name = _corner.Serif;
options = 1;
},
{
origin = "{0, 7}";
scale = "{0.416, 0.98467}";
type = Corner;
name = _corner.Serif;
},
{
origin = "{1, 3}";
scale = "{1.30533, 0.98467}";
type = Corner;
name = _corner.Serif;
},
{
origin = "{1, 4}";
scale = "{-0.416, 0.98467}";
type = Corner;
name = _corner.Serif;
options = 1;
}
);
layerId = "0C29AA02-E021-4BD1-A2C4-87F681D64C35";
paths = (
{
closed = 1;
nodes = (
"1827 1471 LINE",
"1494 231 LINE",
"1665 229 LINE",
"1347 1471 LINE",
"927 1471 LINE",
"1330 0 LINE",
"1672 0 LINE",
"2075 1471 LINE"
);
},
{
closed = 1;
nodes = (
"1021 1394 LINE",
"703 231 LINE",
"872 229 LINE",
"558 1471 LINE",
"118 1471 LINE",
"521 0 LINE",
"872 0 LINE",
"1178 1121 LINE"
);
}
);
width = 2191;
}
);
leftKerningGroup = W;
leftMetricsKey = V;
rightKerningGroup = W;
rightMetricsKey = V;
unicode = 0057;
},
{
glyphname = X;
lastChange = "2020-09-22 10:48:44 +0000";
layers = (
{
hints = (
{
origin = "{0, 2}";
scale = "{0.64, 1}";
type = Corner;
name = _corner.Serif;
},
{
origin = "{0, 3}";
scale = "{-1.38, 1}";
type = Corner;
name = _corner.Serif;
options = 1;
},
{
origin = "{0, 6}";
scale = "{1.38, 1}";
type = Corner;
name = _corner.Serif;
},
{
origin = "{0, 7}";
scale = "{-0.64, 1}";
type = Corner;
name = _corner.Serif;
options = 1;
},
{
origin = "{1, 2}";
scale = "{0.66, 1}";
type = Corner;
name = _corner.Serif;
},
{
origin = "{1, 3}";
scale = "{-1.4, 1}";
type = Corner;
name = _corner.Serif;
options = 1;
},
{
origin = "{1, 6}";
scale = "{1.4, 1}";
type = Corner;
name = _corner.Serif;
},
{
origin = "{1, 7}";
scale = "{-0.66, 1}";
type = Corner;
name = _corner.Serif;
options = 1;
}
);
layerId = "CA54B7DC-FBBB-40FE-ACF3-AABDD76D6A7B";
paths = (
{
closed = 1;
nodes = (
"809 738 LINE",
"830 738 LINE",
"1456 1500 LINE",
"1399 1500 LINE",
"805 777 LINE",
"839 777 LINE",
"245 1500 LINE",
"183 1500 LINE"
);
},
{
closed = 1;
nodes = (
"829 794 LINE",
"808 794 LINE",
"156 0 LINE",
"213 0 LINE",
"833 755 LINE",
"799 755 LINE",
"1419 0 LINE",
"1481 0 LINE"
);
}
);
width = 1637;
},
{
hints = (
{
origin = "{0, 2}";
scale = "{0.64, 1}";
type = Corner;
name = _corner.Serif;
},
{
origin = "{0, 3}";
scale = "{-1.38, 1}";
type = Corner;
name = _corner.Serif;
options = 1;
},
{
origin = "{0, 6}";
scale = "{1.38, 1}";
type = Corner;
name = _corner.Serif;
},
{
origin = "{0, 7}";
scale = "{-0.64, 1}";
type = Corner;
name = _corner.Serif;
options = 1;
},
{
origin = "{1, 3}";
scale = "{-1.4, 1}";
type = Corner;
name = _corner.Serif;
options = 1;
},
{
origin = "{1, 6}";
scale = "{1.4, 1}";
type = Corner;
name = _corner.Serif;
},
{
origin = "{1, 7}";
scale = "{-0.66, 1}";
type = Corner;
name = _corner.Serif;
options = 1;
},
{
origin = "{1, 2}";
scale = "{0.66, 1}";
type = Corner;
name = _corner.Serif;
}
);
layerId = "1E61A082-F045-49A7-AB52-DD1B03FD9B54";
paths = (
{
closed = 1;
nodes = (
"810 738 LINE",
"829 738 LINE",
"1426 1500 LINE",
"1373 1500 LINE",
"806 777 LINE",
"840 777 LINE",
"274 1500 LINE",
"213 1500 LINE"
);
},
{
closed = 1;
nodes = (
"829 794 LINE",
"810 794 LINE",
"188 0 LINE",
"241 0 LINE",
"833 755 LINE",
"799 755 LINE",
"1390 0 LINE",
"1451 0 LINE"
);
}
);
width = 1637;
},
{
hints = (
{
origin = "{0, 6}";
scale = "{1.96467, 0.96933}";
type = Corner;
name = _corner.Serif;
},
{
origin = "{0, 7}";
scale = "{0.268, 0.96933}";
type = Corner;
name = _corner.Serif;
options = 1;
},
{
origin = "{0, 2}";
scale = "{-0.268, 0.96933}";
type = Corner;
name = _corner.Serif;
},
{
origin = "{0, 3}";
scale = "{-1.90333, 0.96933}";
type = Corner;
name = _corner.Serif;
options = 1;
},
{
origin = "{1, 2}";
scale = "{-0.228, 1}";
type = Corner;
name = _corner.Serif;
},
{
origin = "{1, 3}";
scale = "{-2.05067, 1}";
type = Corner;
name = _corner.Serif;
options = 1;
},
{
origin = "{1, 6}";
scale = "{1.98933, 1}";
type = Corner;
name = _corner.Serif;
},
{
origin = "{1, 7}";
scale = "{0.228, 1}";
type = Corner;
name = _corner.Serif;
options = 1;
}
);
layerId = "219068EA-2B9B-40DC-949E-B60449C01B8A";
paths = (
{
closed = 1;
nodes = (
"632 662 LINE",
"955 662 LINE",
"1610 1471 LINE",
"1265 1471 LINE",
"800 885 LINE",
"958 885 LINE",
"546 1471 LINE",
"25 1471 LINE"
);
},
{
closed = 1;
nodes = (
"1021 838 LINE",
"719 838 LINE",
"41 0 LINE",
"385 0 LINE",
"876 615 LINE",
"697 615 LINE",
"1129 0 LINE",
"1651 0 LINE"
);
}
);
width = 1673;
},
{
hints = (
{
origin = "{0, 2}";
scale = "{-0.268, 0.98467}";
type = Corner;
name = _corner.Serif;
},
{
origin = "{0, 3}";
scale = "{-1.98, 0.98467}";
type = Corner;
name = _corner.Serif;
options = 1;
},
{
origin = "{0, 6}";
scale = "{1.91867, 0.98467}";
type = Corner;
name = _corner.Serif;
},
{
origin = "{0, 7}";
scale = "{0.268, 0.98467}";
type = Corner;
name = _corner.Serif;
options = 1;
},
{
origin = "{1, 3}";
scale = "{-2.12733, 1}";
type = Corner;
name = _corner.Serif;
options = 1;
},
{
origin = "{1, 6}";
scale = "{2.066, 1}";
type = Corner;
name = _corner.Serif;
},
{
origin = "{1, 7}";
scale = "{0.228, 1}";
type = Corner;
name = _corner.Serif;
options = 1;
},
{
origin = "{1, 2}";
scale = "{-0.228, 1}";
type = Corner;
name = _corner.Serif;
}
);
layerId = "0C29AA02-E021-4BD1-A2C4-87F681D64C35";
paths = (
{
closed = 1;
nodes = (
"606 662 LINE",
"907 662 LINE",
"1562 1471 LINE",
"1266 1471 LINE",
"797 885 LINE",
"932 885 LINE",
"519 1471 LINE",
"-1 1471 LINE"
);
},
{
closed = 1;
nodes = (
"989 838 LINE",
"691 838 LINE",
"12 0 LINE",
"308 0 LINE",
"802 615 LINE",
"665 615 LINE",
"1097 0 LINE",
"1619 0 LINE"
);
}
);
width = 1619;
}
);
leftKerningGroup = X;
rightKerningGroup = X;
unicode = 0058;
},
{
glyphname = Y;
lastChange = "2020-09-22 10:52:16 +0000";
layers = (
{
hints = (
{
origin = "{0, 2}";
scale = "{1.4, 1}";
type = Corner;
name = _corner.Serif;
},
{
origin = "{0, 3}";
scale = "{-1.4, 1}";
type = Corner;
name = _corner.Serif;
options = 1;
},
{
origin = "{1, 0}";
scale = "{-1.38, 1}";
type = Corner;
name = _corner.Serif;
options = 1;
},
{
origin = "{1, 3}";
scale = "{1.38, 1}";
type = Corner;
name = _corner.Serif;
},
{
origin = "{1, 4}";
scale = "{-0.64, 1}";
type = Corner;
name = _corner.Serif;
options = 1;
},
{
origin = "{1, 7}";
scale = "{0.64, 1}";
type = Corner;
name = _corner.Serif;
}
);
layerId = "CA54B7DC-FBBB-40FE-ACF3-AABDD76D6A7B";
leftMetricsKey = "=V-24";
rightMetricsKey = "=V-24";
paths = (
{
closed = 1;
nodes = (
"811 630 LINE",
"763 630 LINE",
"763 0 LINE",
"811 0 LINE"
);
},
{
closed = 1;
nodes = (
"1410 1500 LINE",
"783 633 LINE",
"799 633 LINE",
"169 1500 LINE",
"110 1500 LINE",
"766 597 LINE",
"808 597 LINE",
"1464 1500 LINE"
);
}
);
width = 1576;
},
{
hints = (
{
origin = "{0, 2}";
scale = "{1.4, 1}";
type = Corner;
name = _corner.Serif;
},
{
origin = "{0, 3}";
scale = "{-1.4, 1}";
type = Corner;
name = _corner.Serif;
options = 1;
},
{
origin = "{1, 0}";
scale = "{-1.38, 1}";
type = Corner;
name = _corner.Serif;
options = 1;
},
{
origin = "{1, 3}";
scale = "{1.38, 1}";
type = Corner;
name = _corner.Serif;
},
{
origin = "{1, 4}";
scale = "{-0.64, 1}";
type = Corner;
name = _corner.Serif;
options = 1;
},
{
origin = "{1, 7}";
scale = "{0.64, 1}";
type = Corner;
name = _corner.Serif;
}
);
layerId = "1E61A082-F045-49A7-AB52-DD1B03FD9B54";
paths = (
{
closed = 1;
nodes = (
"840 640 LINE",
"792 640 LINE",
"792 0 LINE",
"840 0 LINE"
);
},
{
closed = 1;
nodes = (
"1416 1500 LINE",
"813 643 LINE",
"828 643 LINE",
"224 1500 LINE",
"165 1500 LINE",
"795 607 LINE",
"837 607 LINE",
"1467 1500 LINE"
);
}
);
width = 1632;
},
{
hints = (
{
origin = "{0, 2}";
scale = "{1.2, 1}";
type = Corner;
name = _corner.Serif;
},
{
origin = "{0, 3}";
scale = "{-1.2, 1}";
type = Corner;
name = _corner.Serif;
options = 1;
},
{
origin = "{1, 0}";
scale = "{-1.67333, 0.96933}";
type = Corner;
name = _corner.Serif;
options = 1;
},
{
origin = "{1, 3}";
scale = "{1.67333, 0.96933}";
type = Corner;
name = _corner.Serif;
},
{
origin = "{1, 4}";
scale = "{-0.04, 0.96933}";
type = Corner;
name = _corner.Serif;
options = 1;
},
{
origin = "{1, 7}";
scale = "{0.04, 0.96933}";
type = Corner;
name = _corner.Serif;
}
);
layerId = "219068EA-2B9B-40DC-949E-B60449C01B8A";
paths = (
{
closed = 1;
nodes = (
"962 788 LINE",
"543 788 LINE",
"543 0 LINE",
"962 0 LINE"
);
},
{
closed = 1;
nodes = (
"1164 1471 LINE",
"769 771 LINE",
"902 771 LINE",
"520 1471 LINE",
"29 1471 LINE",
"569 548 LINE",
"939 548 LINE",
"1478 1471 LINE"
);
}
);
width = 1507;
},
{
hints = (
{
origin = "{0, 2}";
scale = "{1.4, 1}";
type = Corner;
name = _corner.Serif;
},
{
origin = "{0, 3}";
scale = "{-1.4, 1}";
type = Corner;
name = _corner.Serif;
options = 1;
},
{
origin = "{1, 0}";
scale = "{-1.712, 0.98467}";
type = Corner;
name = _corner.Serif;
options = 1;
},
{
origin = "{1, 3}";
scale = "{1.712, 0.98467}";
type = Corner;
name = _corner.Serif;
},
{
origin = "{1, 4}";
scale = "{-0.07067, 0.98467}";
type = Corner;
name = _corner.Serif;
options = 1;
},
{
origin = "{1, 7}";
scale = "{0.07067, 0.98467}";
type = Corner;
name = _corner.Serif;
}
);
layerId = "0C29AA02-E021-4BD1-A2C4-87F681D64C35";
paths = (
{
closed = 1;
nodes = (
"972 792 LINE",
"553 792 LINE",
"553 0 LINE",
"972 0 LINE"
);
},
{
closed = 1;
nodes = (
"1219 1471 LINE",
"825 771 LINE",
"913 771 LINE",
"529 1471 LINE",
"40 1471 LINE",
"579 548 LINE",
"949 548 LINE",
"1489 1471 LINE"
);
}
);
width = 1527;
}
);
leftKerningGroup = Y;
leftMetricsKey = V;
rightKerningGroup = Y;
rightMetricsKey = V;
unicode = 0059;
},
{
glyphname = Z;
lastChange = "2020-09-22 10:44:22 +0000";
layers = (
{
layerId = "CA54B7DC-FBBB-40FE-ACF3-AABDD76D6A7B";
paths = (
{
closed = 1;
nodes = (
"168 1456 LINE",
"1267 1456 LINE",
"1332 1460 LINE",
"1332 1500 LINE",
"168 1500 LINE"
);
},
{
closed = 1;
nodes = (
"124 0 LINE",
"1324 0 LINE",
"1324 44 LINE",
"189 44 LINE",
"124 40 LINE"
);
},
{
closed = 1;
nodes = (
"189 44 LINE",
"1332 1460 LINE",
"1267 1456 LINE",
"124 40 LINE"
);
},
{
closed = 1;
nodes = (
"168 1456 LINE",
"168 1020 LINE",
"212 1020 LINE",
"212 1326 LINE SMOOTH",
"212 1430 OFFCURVE",
"238 1456 OFFCURVE",
"338 1456 CURVE"
);
},
{
closed = 1;
nodes = (
"1324 44 LINE",
"1324 500 LINE",
"1280 500 LINE",
"1280 174 LINE SMOOTH",
"1280 70 OFFCURVE",
"1254 44 OFFCURVE",
"1154 44 CURVE"
);
}
);
width = 1456;
},
{
layerId = "1E61A082-F045-49A7-AB52-DD1B03FD9B54";
paths = (
{
closed = 1;
nodes = (
"188 1462 LINE",
"1248 1462 LINE",
"1312 1466 LINE",
"1312 1500 LINE",
"188 1500 LINE"
);
},
{
closed = 1;
nodes = (
"144 0 LINE",
"1304 0 LINE",
"1304 38 LINE",
"208 38 LINE",
"144 34 LINE"
);
},
{
closed = 1;
nodes = (
"208 38 LINE",
"1312 1466 LINE",
"1248 1462 LINE",
"144 34 LINE"
);
},
{
closed = 1;
nodes = (
"188 1462 LINE",
"188 960 LINE",
"228 960 LINE",
"228 1332 LINE SMOOTH",
"228 1436 OFFCURVE",
"254 1462 OFFCURVE",
"354 1462 CURVE"
);
},
{
closed = 1;
nodes = (
"1304 38 LINE",
"1304 560 LINE",
"1264 560 LINE",
"1264 168 LINE SMOOTH",
"1264 64 OFFCURVE",
"1238 38 OFFCURVE",
"1138 38 CURVE"
);
}
);
width = 1456;
},
{
layerId = "219068EA-2B9B-40DC-949E-B60449C01B8A";
paths = (
{
closed = 1;
nodes = (
"134 1217 LINE",
"797 1217 LINE",
"1342 1252 LINE",
"1342 1471 LINE",
"134 1471 LINE"
);
},
{
closed = 1;
nodes = (
"93 0 LINE",
"1342 0 LINE",
"1342 260 LINE",
"637 260 LINE",
"93 225 LINE"
);
},
{
closed = 1;
nodes = (
"637 260 LINE",
"1342 1252 LINE",
"797 1217 LINE",
"93 225 LINE"
);
},
{
closed = 1;
nodes = (
"134 1217 LINE",
"134 989 LINE",
"403 989 LINE",
"403 964 LINE SMOOTH",
"403 1136 OFFCURVE",
"484 1217 OFFCURVE",
"651 1217 CURVE"
);
},
{
closed = 1;
nodes = (
"1342 260 LINE",
"1342 517 LINE",
"1073 517 LINE",
"1073 512 LINE SMOOTH",
"1073 341 OFFCURVE",
"992 260 OFFCURVE",
"825 260 CURVE"
);
}
);
width = 1441;
},
{
layerId = "0C29AA02-E021-4BD1-A2C4-87F681D64C35";
paths = (
{
closed = 1;
nodes = (
"106 1250 LINE",
"771 1250 LINE",
"1305 1284 LINE",
"1305 1471 LINE",
"106 1471 LINE"
);
},
{
closed = 1;
nodes = (
"56 0 LINE",
"1295 0 LINE",
"1295 224 LINE",
"590 224 LINE",
"56 189 LINE"
);
},
{
closed = 1;
nodes = (
"590 224 LINE",
"1305 1284 LINE",
"771 1250 LINE",
"56 189 LINE"
);
},
{
closed = 1;
nodes = (
"106 1250 LINE",
"106 915 LINE",
"345 915 LINE",
"345 997 LINE SMOOTH",
"345 1169 OFFCURVE",
"426 1250 OFFCURVE",
"593 1250 CURVE"
);
},
{
closed = 1;
nodes = (
"1295 224 LINE",
"1295 575 LINE",
"1057 575 LINE",
"1057 477 LINE SMOOTH",
"1057 305 OFFCURVE",
"976 224 OFFCURVE",
"808 224 CURVE"
);
}
);
width = 1364;
}
);
leftKerningGroup = Z;
rightKerningGroup = Z;
unicode = 005A;
},
{
glyphname = a;
lastChange = "2020-09-22 09:23:43 +0000";
layers = (
{
layerId = "CA54B7DC-FBBB-40FE-ACF3-AABDD76D6A7B";
paths = (
{
closed = 1;
nodes = (
"683 565 LINE SMOOTH",
"829 596 OFFCURVE",
"913 627 OFFCURVE",
"952 706 CURVE",
"952 840 LINE",
"952 684 OFFCURVE",
"838 642 OFFCURVE",
"674 608 CURVE SMOOTH",
"490 570 LINE SMOOTH",
"292 529 OFFCURVE",
"146 451 OFFCURVE",
"146 257 CURVE SMOOTH",
"146 85 OFFCURVE",
"293 -16 OFFCURVE",
"505 -16 CURVE SMOOTH",
"782 -16 OFFCURVE",
"993 143 OFFCURVE",
"991 546 CURVE",
"952 546 LINE",
"952 169 OFFCURVE",
"751 28 OFFCURVE",
"511 28 CURVE SMOOTH",
"328 28 OFFCURVE",
"194 110 OFFCURVE",
"194 257 CURVE SMOOTH",
"194 436 OFFCURVE",
"334 493 OFFCURVE",
"507 529 CURVE SMOOTH"
);
},
{
closed = 1;
nodes = (
"952 706 LINE",
"952 330 LINE",
"956 330 LINE",
"956 188 LINE SMOOTH",
"956 58 OFFCURVE",
"1025 -16 OFFCURVE",
"1137 -16 CURVE SMOOTH",
"1249 -16 OFFCURVE",
"1316 58 OFFCURVE",
"1316 188 CURVE SMOOTH",
"1316 580 LINE",
"1272 580 LINE",
"1272 188 LINE SMOOTH",
"1272 91 OFFCURVE",
"1227 24 OFFCURVE",
"1137 24 CURVE SMOOTH",
"1046 24 OFFCURVE",
"1000 91 OFFCURVE",
"1000 188 CURVE SMOOTH",
"1000 830 LINE",
"952 848 LINE"
);
},
{
closed = 1;
nodes = (
"211 787 OFFCURVE",
"246 750 OFFCURVE",
"290 750 CURVE SMOOTH",
"325 750 OFFCURVE",
"346 771 OFFCURVE",
"346 805 CURVE SMOOTH",
"346 849 OFFCURVE",
"294 874 OFFCURVE",
"243 867 CURVE",
"260 854 LINE",
"253 1006 OFFCURVE",
"435 1072 OFFCURVE",
"629 1072 CURVE SMOOTH",
"852 1072 OFFCURVE",
"952 984 OFFCURVE",
"952 848 CURVE",
"1000 830 LINE",
"1000 1024 OFFCURVE",
"865 1116 OFFCURVE",
"631 1116 CURVE SMOOTH",
"412 1116 OFFCURVE",
"211 1030 OFFCURVE",
"211 852 CURVE SMOOTH"
);
}
);
width = 1328;
},
{
layerId = "1E61A082-F045-49A7-AB52-DD1B03FD9B54";
paths = (
{
closed = 1;
nodes = (
"630 562 LINE SMOOTH",
"785 596 OFFCURVE",
"853 628 OFFCURVE",
"890 704 CURVE",
"890 810 LINE",
"890 666 OFFCURVE",
"779 634 OFFCURVE",
"622 599 CURVE SMOOTH",
"460 563 LINE SMOOTH",
"267 520 OFFCURVE",
"134 443 OFFCURVE",
"134 255 CURVE SMOOTH",
"134 86 OFFCURVE",
"268 -16 OFFCURVE",
"464 -16 CURVE SMOOTH",
"729 -16 OFFCURVE",
"919 140 OFFCURVE",
"917 536 CURVE",
"890 536 LINE",
"890 162 OFFCURVE",
"698 22 OFFCURVE",
"470 22 CURVE SMOOTH",
"302 22 OFFCURVE",
"182 107 OFFCURVE",
"182 255 CURVE SMOOTH",
"182 415 OFFCURVE",
"287 486 OFFCURVE",
"476 528 CURVE SMOOTH"
);
},
{
closed = 1;
nodes = (
"890 704 LINE",
"890 380 LINE",
"894 380 LINE",
"894 166 LINE SMOOTH",
"894 50 OFFCURVE",
"956 -16 OFFCURVE",
"1058 -16 CURVE SMOOTH",
"1160 -16 OFFCURVE",
"1222 50 OFFCURVE",
"1222 166 CURVE SMOOTH",
"1222 620 LINE",
"1178 620 LINE",
"1178 166 LINE SMOOTH",
"1178 82 OFFCURVE",
"1137 24 OFFCURVE",
"1058 24 CURVE SMOOTH",
"979 24 OFFCURVE",
"938 82 OFFCURVE",
"938 166 CURVE SMOOTH",
"938 800 LINE",
"890 818 LINE"
);
},
{
closed = 1;
nodes = (
"208 747 OFFCURVE",
"241 710 OFFCURVE",
"285 710 CURVE SMOOTH",
"319 710 OFFCURVE",
"339 731 OFFCURVE",
"339 765 CURVE SMOOTH",
"339 809 OFFCURVE",
"287 834 OFFCURVE",
"236 827 CURVE",
"253 811 LINE",
"247 993 OFFCURVE",
"411 1058 OFFCURVE",
"588 1058 CURVE SMOOTH",
"799 1058 OFFCURVE",
"890 967 OFFCURVE",
"890 818 CURVE",
"938 800 LINE",
"938 1005 OFFCURVE",
"812 1096 OFFCURVE",
"590 1096 CURVE SMOOTH",
"390 1096 OFFCURVE",
"208 1013 OFFCURVE",
"208 812 CURVE SMOOTH"
);
}
);
width = 1316;
},
{
associatedMasterId = "CA54B7DC-FBBB-40FE-ACF3-AABDD76D6A7B";
layerId = "0536A818-D7E4-477E-A2C8-13EA6A8F5ED4";
name = "Aug 25 20, 14:38";
paths = (
{
closed = 1;
nodes = (
"226 784 OFFCURVE",
"238 742 OFFCURVE",
"272 742 CURVE SMOOTH",
"293 742 OFFCURVE",
"303 756 OFFCURVE",
"303 777 CURVE SMOOTH",
"303 812 OFFCURVE",
"285 822 OFFCURVE",
"285 882 CURVE SMOOTH",
"285 996 OFFCURVE",
"419 1076 OFFCURVE",
"616 1076 CURVE SMOOTH",
"813 1076 OFFCURVE",
"910 996 OFFCURVE",
"910 848 CURVE",
"958 830 LINE",
"958 1026 OFFCURVE",
"829 1116 OFFCURVE",
"618 1116 CURVE SMOOTH",
"402 1116 OFFCURVE",
"226 1026 OFFCURVE",
"226 844 CURVE SMOOTH"
);
},
{
closed = 1;
nodes = (
"650 568 LINE SMOOTH",
"805 606 OFFCURVE",
"875 632 OFFCURVE",
"910 706 CURVE",
"910 840 LINE",
"910 683 OFFCURVE",
"800 647 OFFCURVE",
"642 608 CURVE SMOOTH",
"488 570 LINE SMOOTH",
"279 518 OFFCURVE",
"166 436 OFFCURVE",
"166 257 CURVE SMOOTH",
"166 85 OFFCURVE",
"298 -16 OFFCURVE",
"492 -16 CURVE SMOOTH",
"752 -16 OFFCURVE",
"950 143 OFFCURVE",
"948 546 CURVE",
"910 546 LINE",
"910 166 OFFCURVE",
"722 24 OFFCURVE",
"498 24 CURVE SMOOTH",
"332 24 OFFCURVE",
"214 107 OFFCURVE",
"214 257 CURVE SMOOTH",
"214 424 OFFCURVE",
"323 487 OFFCURVE",
"504 532 CURVE SMOOTH"
);
},
{
closed = 1;
nodes = (
"910 330 LINE",
"914 330 LINE",
"914 158 LINE SMOOTH",
"914 47 OFFCURVE",
"973 -16 OFFCURVE",
"1070 -16 CURVE SMOOTH",
"1167 -16 OFFCURVE",
"1226 47 OFFCURVE",
"1226 158 CURVE SMOOTH",
"1226 240 LINE",
"1182 240 LINE",
"1182 158 LINE SMOOTH",
"1182 79 OFFCURVE",
"1144 24 OFFCURVE",
"1070 24 CURVE SMOOTH",
"996 24 OFFCURVE",
"958 79 OFFCURVE",
"958 158 CURVE SMOOTH",
"958 830 LINE",
"910 848 LINE"
);
}
);
width = 1282;
},
{
associatedMasterId = "1E61A082-F045-49A7-AB52-DD1B03FD9B54";
layerId = "F53F3C62-3605-4696-AA8D-BFAEBE8FB8E8";
name = "Aug 25 20, 14:38";
paths = (
{
closed = 1;
nodes = (
"188 726 OFFCURVE",
"204 674 OFFCURVE",
"239 674 CURVE SMOOTH",
"258 674 OFFCURVE",
"269 686 OFFCURVE",
"269 706 CURVE SMOOTH",
"269 740 OFFCURVE",
"243 752 OFFCURVE",
"243 818 CURVE SMOOTH",
"243 972 OFFCURVE",
"405 1056 OFFCURVE",
"584 1056 CURVE SMOOTH",
"782 1056 OFFCURVE",
"868 970 OFFCURVE",
"868 838 CURVE",
"916 820 LINE",
"916 1007 OFFCURVE",
"796 1096 OFFCURVE",
"586 1096 CURVE SMOOTH",
"378 1096 OFFCURVE",
"188 999 OFFCURVE",
"188 790 CURVE SMOOTH"
);
},
{
closed = 1;
nodes = (
"608 557 LINE SMOOTH",
"763 593 OFFCURVE",
"833 622 OFFCURVE",
"868 696 CURVE",
"868 830 LINE",
"868 672 OFFCURVE",
"758 634 OFFCURVE",
"600 597 CURVE SMOOTH",
"446 561 LINE SMOOTH",
"256 517 OFFCURVE",
"124 441 OFFCURVE",
"124 253 CURVE SMOOTH",
"124 84 OFFCURVE",
"256 -16 OFFCURVE",
"450 -16 CURVE SMOOTH",
"710 -16 OFFCURVE",
"908 140 OFFCURVE",
"906 536 CURVE",
"868 536 LINE",
"868 163 OFFCURVE",
"680 24 OFFCURVE",
"456 24 CURVE SMOOTH",
"290 24 OFFCURVE",
"172 106 OFFCURVE",
"172 253 CURVE SMOOTH",
"172 413 OFFCURVE",
"276 480 OFFCURVE",
"462 523 CURVE SMOOTH"
);
},
{
closed = 1;
nodes = (
"868 320 LINE",
"872 320 LINE",
"872 176 LINE SMOOTH",
"872 54 OFFCURVE",
"938 -16 OFFCURVE",
"1046 -16 CURVE SMOOTH",
"1154 -16 OFFCURVE",
"1220 54 OFFCURVE",
"1220 176 CURVE SMOOTH",
"1220 570 LINE",
"1176 570 LINE",
"1176 176 LINE SMOOTH",
"1176 86 OFFCURVE",
"1132 24 OFFCURVE",
"1046 24 CURVE SMOOTH",
"960 24 OFFCURVE",
"916 86 OFFCURVE",
"916 176 CURVE SMOOTH",
"916 820 LINE",
"868 838 LINE"
);
}
);
width = 1268;
},
{
layerId = "219068EA-2B9B-40DC-949E-B60449C01B8A";
paths = (
{
closed = 1;
nodes = (
"645 514 LINE SMOOTH",
"708 538 OFFCURVE",
"743 574 OFFCURVE",
"766 619 CURVE",
"770 842 LINE",
"770 753 OFFCURVE",
"709 717 OFFCURVE",
"597 689 CURVE SMOOTH",
"403 640 LINE SMOOTH",
"196 588 OFFCURVE",
"58 496 OFFCURVE",
"58 292 CURVE SMOOTH",
"58 99 OFFCURVE",
"214 -22 OFFCURVE",
"430 -22 CURVE SMOOTH",
"679 -22 OFFCURVE",
"848 128 OFFCURVE",
"854 428 CURVE",
"766 475 LINE",
"766 320 OFFCURVE",
"686 258 OFFCURVE",
"590 258 CURVE SMOOTH",
"518 258 OFFCURVE",
"468 290 OFFCURVE",
"468 362 CURVE SMOOTH",
"468 436 OFFCURVE",
"522 468 OFFCURVE",
"605 499 CURVE SMOOTH"
);
},
{
closed = 1;
nodes = (
"766 619 LINE",
"766 378 LINE",
"811 360 LINE",
"811 348 LINE SMOOTH",
"811 112 OFFCURVE",
"927 -22 OFFCURVE",
"1162 -22 CURVE SMOOTH",
"1401 -22 OFFCURVE",
"1512 129 OFFCURVE",
"1512 371 CURVE SMOOTH",
"1512 660 LINE",
"1282 660 LINE",
"1282 328 LINE SMOOTH",
"1282 275 OFFCURVE",
"1256 242 OFFCURVE",
"1211 242 CURVE SMOOTH",
"1169 242 OFFCURVE",
"1142 275 OFFCURVE",
"1142 328 CURVE SMOOTH",
"1142 799 LINE",
"770 841 LINE"
);
},
{
closed = 1;
nodes = (
"130 786 OFFCURVE",
"240 726 OFFCURVE",
"361 726 CURVE SMOOTH",
"484 726 OFFCURVE",
"557 790 OFFCURVE",
"557 878 CURVE SMOOTH",
"557 966 OFFCURVE",
"484 1004 OFFCURVE",
"361 1010 CURVE",
"371 827 LINE",
"371 948 OFFCURVE",
"490 992 OFFCURVE",
"590 992 CURVE SMOOTH",
"683 992 OFFCURVE",
"770 955 OFFCURVE",
"770 841 CURVE",
"1142 799 LINE",
"1145 1060 OFFCURVE",
"988 1182 OFFCURVE",
"681 1182 CURVE SMOOTH",
"404 1182 OFFCURVE",
"130 1088 OFFCURVE",
"130 914 CURVE SMOOTH"
);
}
);
width = 1524;
},
{
layerId = "0C29AA02-E021-4BD1-A2C4-87F681D64C35";
paths = (
{
closed = 1;
nodes = (
"617 526 LINE SMOOTH",
"670 549 OFFCURVE",
"703 583 OFFCURVE",
"718 629 CURVE",
"722 832 LINE",
"722 743 OFFCURVE",
"670 700 OFFCURVE",
"569 671 CURVE SMOOTH",
"387 618 LINE SMOOTH",
"192 561 OFFCURVE",
"50 470 OFFCURVE",
"50 278 CURVE SMOOTH",
"50 101 OFFCURVE",
"185 -22 OFFCURVE",
"414 -22 CURVE SMOOTH",
"648 -22 OFFCURVE",
"793 110 OFFCURVE",
"793 406 CURVE",
"718 433 LINE",
"718 299 OFFCURVE",
"652 246 OFFCURVE",
"572 246 CURVE SMOOTH",
"506 246 OFFCURVE",
"456 285 OFFCURVE",
"456 361 CURVE SMOOTH",
"456 440 OFFCURVE",
"511 479 OFFCURVE",
"583 511 CURVE SMOOTH"
);
},
{
closed = 1;
nodes = (
"718 629 LINE",
"718 360 LINE",
"765 350 LINE",
"765 328 LINE SMOOTH",
"765 104 OFFCURVE",
"876 -22 OFFCURVE",
"1093 -22 CURVE SMOOTH",
"1326 -22 OFFCURVE",
"1430 113 OFFCURVE",
"1430 331 CURVE SMOOTH",
"1430 720 LINE",
"1226 720 LINE",
"1226 318 LINE SMOOTH",
"1226 271 OFFCURVE",
"1201 242 OFFCURVE",
"1157 242 CURVE SMOOTH",
"1119 242 OFFCURVE",
"1094 271 OFFCURVE",
"1094 318 CURVE SMOOTH",
"1094 789 LINE",
"722 831 LINE"
);
},
{
closed = 1;
nodes = (
"108 739 OFFCURVE",
"213 682 OFFCURVE",
"329 682 CURVE SMOOTH",
"458 682 OFFCURVE",
"535 747 OFFCURVE",
"535 836 CURVE SMOOTH",
"535 934 OFFCURVE",
"447 968 OFFCURVE",
"309 968 CURVE",
"319 855 LINE",
"347 937 OFFCURVE",
"441 998 OFFCURVE",
"554 998 CURVE SMOOTH",
"650 998 OFFCURVE",
"722 946 OFFCURVE",
"722 831 CURVE",
"1094 789 LINE",
"1097 1043 OFFCURVE",
"947 1162 OFFCURVE",
"653 1162 CURVE SMOOTH",
"379 1162 OFFCURVE",
"108 1057 OFFCURVE",
"108 862 CURVE SMOOTH"
);
}
);
width = 1444;
}
);
leftKerningGroup = a;
rightKerningGroup = a;
unicode = 0061;
},
{
glyphname = b;
lastChange = "2020-09-22 09:23:58 +0000";
layers = (
{
hints = (
{
origin = "{0, 5}";
scale = "{-0.9, 1}";
type = Corner;
name = _corner.Serif;
}
);
layerId = "CA54B7DC-FBBB-40FE-ACF3-AABDD76D6A7B";
paths = (
{
closed = 1;
nodes = (
"303 0 LINE",
"303 334 LINE",
"277 550 LINE",
"307 746 LINE",
"307 1560 LINE",
"259 1560 LINE",
"259 0 LINE"
);
},
{
closed = 1;
nodes = (
"453 1116 OFFCURVE",
"263 902 OFFCURVE",
"263 551 CURVE",
"263 549 LINE",
"263 198 OFFCURVE",
"453 -16 OFFCURVE",
"765 -16 CURVE SMOOTH",
"1057 -16 OFFCURVE",
"1267 198 OFFCURVE",
"1267 550 CURVE SMOOTH",
"1267 902 OFFCURVE",
"1057 1116 OFFCURVE",
"765 1116 CURVE SMOOTH"
);
},
{
closed = 1;
nodes = (
"1031 1072 OFFCURVE",
"1219 877 OFFCURVE",
"1219 550 CURVE SMOOTH",
"1219 223 OFFCURVE",
"1031 28 OFFCURVE",
"765 28 CURVE SMOOTH",
"495 28 OFFCURVE",
"303 223 OFFCURVE",
"303 550 CURVE SMOOTH",
"303 877 OFFCURVE",
"495 1072 OFFCURVE",
"765 1072 CURVE SMOOTH"
);
}
);
width = 1391;
},
{
hints = (
{
origin = "{0, 5}";
scale = "{-0.9, 1}";
type = Corner;
name = _corner.Serif;
}
);
layerId = "1E61A082-F045-49A7-AB52-DD1B03FD9B54";
paths = (
{
closed = 1;
nodes = (
"287 0 LINE",
"287 324 LINE",
"271 540 LINE",
"291 736 LINE",
"291 1500 LINE",
"243 1500 LINE",
"243 0 LINE"
);
},
{
closed = 1;
nodes = (
"426 1096 OFFCURVE",
"261 887 OFFCURVE",
"261 541 CURVE",
"261 539 LINE",
"261 193 OFFCURVE",
"425 -16 OFFCURVE",
"719 -16 CURVE SMOOTH",
"993 -16 OFFCURVE",
"1191 194 OFFCURVE",
"1191 540 CURVE SMOOTH",
"1191 886 OFFCURVE",
"993 1096 OFFCURVE",
"719 1096 CURVE SMOOTH"
);
},
{
closed = 1;
nodes = (
"967 1058 OFFCURVE",
"1143 865 OFFCURVE",
"1143 540 CURVE SMOOTH",
"1143 215 OFFCURVE",
"967 22 OFFCURVE",
"719 22 CURVE SMOOTH",
"467 22 OFFCURVE",
"287 215 OFFCURVE",
"287 540 CURVE SMOOTH",
"287 865 OFFCURVE",
"467 1058 OFFCURVE",
"719 1058 CURVE SMOOTH"
);
}
);
width = 1301;
},
{
hints = (
{
origin = "{0, 5}";
scale = "{-0.9, 0.96933}";
type = Corner;
name = _corner.Serif;
}
);
layerId = "219068EA-2B9B-40DC-949E-B60449C01B8A";
paths = (
{
closed = 1;
nodes = (
"558 0 LINE",
"558 262 LINE",
"527 581 LINE",
"588 838 LINE",
"588 1580 LINE",
"188 1580 LINE",
"188 0 LINE"
);
},
{
closed = 1;
nodes = (
"623 1176 OFFCURVE",
"499 942 OFFCURVE",
"499 580 CURVE",
"471 580 LINE",
"471 228 OFFCURVE",
"623 -16 OFFCURVE",
"945 -16 CURVE SMOOTH",
"1259 -16 OFFCURVE",
"1494 208 OFFCURVE",
"1494 580 CURVE SMOOTH",
"1494 952 OFFCURVE",
"1259 1176 OFFCURVE",
"949 1176 CURVE SMOOTH"
);
},
{
closed = 1;
nodes = (
"964 924 OFFCURVE",
"1054 806 OFFCURVE",
"1054 580 CURVE SMOOTH",
"1054 354 OFFCURVE",
"964 236 OFFCURVE",
"812 236 CURVE SMOOTH",
"658 236 OFFCURVE",
"568 354 OFFCURVE",
"568 580 CURVE SMOOTH",
"568 806 OFFCURVE",
"658 924 OFFCURVE",
"812 924 CURVE SMOOTH"
);
}
);
width = 1552;
},
{
hints = (
{
origin = "{0, 5}";
scale = "{-0.9, 0.96933}";
type = Corner;
name = _corner.Serif;
}
);
layerId = "0C29AA02-E021-4BD1-A2C4-87F681D64C35";
paths = (
{
closed = 1;
nodes = (
"558 0 LINE",
"558 262 LINE",
"527 581 LINE",
"588 838 LINE",
"588 1500 LINE",
"188 1500 LINE",
"188 0 LINE"
);
},
{
closed = 1;
nodes = (
"594 1154 OFFCURVE",
"489 915 OFFCURVE",
"489 570 CURVE",
"467 570 LINE",
"465 235 OFFCURVE",
"594 -14 OFFCURVE",
"915 -14 CURVE SMOOTH",
"1208 -14 OFFCURVE",
"1422 205 OFFCURVE",
"1422 570 CURVE SMOOTH",
"1422 935 OFFCURVE",
"1208 1154 OFFCURVE",
"919 1154 CURVE SMOOTH"
);
},
{
closed = 1;
nodes = (
"908 934 OFFCURVE",
"982 809 OFFCURVE",
"982 570 CURVE SMOOTH",
"982 331 OFFCURVE",
"908 206 OFFCURVE",
"776 206 CURVE SMOOTH",
"642 206 OFFCURVE",
"568 331 OFFCURVE",
"568 570 CURVE SMOOTH",
"568 809 OFFCURVE",
"642 934 OFFCURVE",
"776 934 CURVE SMOOTH"
);
}
);
width = 1484;
}
);
leftKerningGroup = b;
rightKerningGroup = o;
rightMetricsKey = o;
unicode = 0062;
},
{
glyphname = c;
lastChange = "2020-09-22 09:23:58 +0000";
layers = (
{
layerId = "CA54B7DC-FBBB-40FE-ACF3-AABDD76D6A7B";
paths = (
{
closed = 1;
nodes = (
"1062 361 LINE",
"1051 236 OFFCURVE",
"928 28 OFFCURVE",
"652 28 CURVE SMOOTH",
"367 28 OFFCURVE",
"174 224 OFFCURVE",
"174 550 CURVE SMOOTH",
"174 876 OFFCURVE",
"373 1072 OFFCURVE",
"664 1072 CURVE",
"664 1116 LINE",
"347 1116 OFFCURVE",
"124 910 OFFCURVE",
"124 550 CURVE SMOOTH",
"124 190 OFFCURVE",
"342 -16 OFFCURVE",
"652 -16 CURVE SMOOTH",
"960 -16 OFFCURVE",
"1094 212 OFFCURVE",
"1106 361 CURVE"
);
},
{
closed = 1;
nodes = (
"664 1072 LINE",
"931 1072 OFFCURVE",
"1044 918 OFFCURVE",
"1040 792 CURVE",
"1057 803 LINE",
"1011 809 OFFCURVE",
"964 790 OFFCURVE",
"964 743 CURVE SMOOTH",
"964 711 OFFCURVE",
"985 691 OFFCURVE",
"1018 691 CURVE SMOOTH",
"1062 691 OFFCURVE",
"1088 730 OFFCURVE",
"1088 795 CURVE SMOOTH",
"1088 943 OFFCURVE",
"951 1116 OFFCURVE",
"664 1116 CURVE"
);
}
);
width = 1230;
},
{
layerId = "1E61A082-F045-49A7-AB52-DD1B03FD9B54";
paths = (
{
closed = 1;
nodes = (
"991 409 LINE",
"977 228 OFFCURVE",
"860 24 OFFCURVE",
"590 24 CURVE SMOOTH",
"330 24 OFFCURVE",
"160 218 OFFCURVE",
"160 540 CURVE SMOOTH",
"160 863 OFFCURVE",
"338 1058 OFFCURVE",
"604 1058 CURVE",
"604 1096 LINE",
"312 1096 OFFCURVE",
"110 894 OFFCURVE",
"110 540 CURVE SMOOTH",
"110 186 OFFCURVE",
"305 -16 OFFCURVE",
"590 -16 CURVE SMOOTH",
"886 -16 OFFCURVE",
"1015 197 OFFCURVE",
"1031 409 CURVE"
);
},
{
closed = 1;
nodes = (
"604 1058 LINE",
"866 1058 OFFCURVE",
"974 908 OFFCURVE",
"970 768 CURVE",
"987 780 LINE",
"939 786 OFFCURVE",
"890 767 OFFCURVE",
"890 720 CURVE SMOOTH",
"890 688 OFFCURVE",
"911 668 OFFCURVE",
"944 668 CURVE SMOOTH",
"988 668 OFFCURVE",
"1014 707 OFFCURVE",
"1014 772 CURVE SMOOTH",
"1014 932 OFFCURVE",
"884 1096 OFFCURVE",
"604 1096 CURVE"
);
}
);
width = 1141;
},
{
layerId = "219068EA-2B9B-40DC-949E-B60449C01B8A";
paths = (
{
closed = 1;
nodes = (
"1006 465 LINE",
"984 360 OFFCURVE",
"900 278 OFFCURVE",
"766 278 CURVE SMOOTH",
"568 278 OFFCURVE",
"457 428 OFFCURVE",
"457 639 CURVE SMOOTH",
"457 840 OFFCURVE",
"567 978 OFFCURVE",
"746 978 CURVE",
"699 1182 LINE",
"326 1182 OFFCURVE",
"58 968 OFFCURVE",
"58 581 CURVE SMOOTH",
"58 193 OFFCURVE",
"321 -22 OFFCURVE",
"689 -22 CURVE SMOOTH",
"1025 -22 OFFCURVE",
"1227 195 OFFCURVE",
"1234 465 CURVE"
);
},
{
closed = 1;
nodes = (
"746 978 LINE",
"864 978 OFFCURVE",
"923 948 OFFCURVE",
"1002 858 CURVE",
"1017 990 LINE",
"874 990 OFFCURVE",
"781 955 OFFCURVE",
"781 842 CURVE SMOOTH",
"781 750 OFFCURVE",
"865 679 OFFCURVE",
"991 679 CURVE SMOOTH",
"1120 679 OFFCURVE",
"1216 748 OFFCURVE",
"1216 870 CURVE SMOOTH",
"1216 1061 OFFCURVE",
"990 1182 OFFCURVE",
"699 1182 CURVE"
);
}
);
width = 1292;
},
{
layerId = "0C29AA02-E021-4BD1-A2C4-87F681D64C35";
paths = (
{
closed = 1;
nodes = (
"982 489 LINE",
"963 371 OFFCURVE",
"879 272 OFFCURVE",
"730 272 CURVE SMOOTH",
"548 272 OFFCURVE",
"445 421 OFFCURVE",
"445 629 CURVE SMOOTH",
"445 833 OFFCURVE",
"540 991 OFFCURVE",
"730 991 CURVE",
"661 1162 LINE",
"312 1162 OFFCURVE",
"62 952 OFFCURVE",
"62 571 CURVE SMOOTH",
"62 189 OFFCURVE",
"304 -22 OFFCURVE",
"643 -22 CURVE SMOOTH",
"983 -22 OFFCURVE",
"1163 187 OFFCURVE",
"1170 489 CURVE"
);
},
{
closed = 1;
nodes = (
"730 991 LINE",
"838 991 OFFCURVE",
"909 956 OFFCURVE",
"966 856 CURVE",
"941 950 LINE",
"810 950 OFFCURVE",
"725 910 OFFCURVE",
"725 782 CURVE SMOOTH",
"725 690 OFFCURVE",
"809 619 OFFCURVE",
"935 619 CURVE SMOOTH",
"1064 619 OFFCURVE",
"1160 695 OFFCURVE",
"1160 830 CURVE SMOOTH",
"1160 1043 OFFCURVE",
"926 1162 OFFCURVE",
"661 1162 CURVE"
);
}
);
width = 1232;
}
);
leftKerningGroup = o;
leftMetricsKey = o;
rightKerningGroup = o;
rightMetricsKey = o;
unicode = 0063;
},
{
glyphname = d;
lastChange = "2020-09-22 09:23:58 +0000";
layers = (
{
hints = (
{
origin = "{0, 1}";
scale = "{-0.9, 1}";
type = Corner;
name = _corner.Serif;
},
{
origin = "{0, 6}";
scale = "{-0.9, 1}";
type = Corner;
name = _corner.Serif;
}
);
layerId = "CA54B7DC-FBBB-40FE-ACF3-AABDD76D6A7B";
paths = (
{
closed = 1;
nodes = (
"1132 1560 LINE",
"1084 1560 LINE",
"1084 746 LINE",
"1114 550 LINE",
"1088 334 LINE",
"1088 0 LINE",
"1132 0 LINE"
);
},
{
closed = 1;
nodes = (
"334 1116 OFFCURVE",
"124 902 OFFCURVE",
"124 550 CURVE SMOOTH",
"124 198 OFFCURVE",
"334 -16 OFFCURVE",
"626 -16 CURVE SMOOTH",
"938 -16 OFFCURVE",
"1128 198 OFFCURVE",
"1128 549 CURVE",
"1128 551 LINE",
"1128 902 OFFCURVE",
"938 1116 OFFCURVE",
"626 1116 CURVE SMOOTH"
);
},
{
closed = 1;
nodes = (
"896 1072 OFFCURVE",
"1088 877 OFFCURVE",
"1088 550 CURVE SMOOTH",
"1088 223 OFFCURVE",
"896 28 OFFCURVE",
"626 28 CURVE SMOOTH",
"360 28 OFFCURVE",
"172 223 OFFCURVE",
"172 550 CURVE SMOOTH",
"172 877 OFFCURVE",
"360 1072 OFFCURVE",
"626 1072 CURVE SMOOTH"
);
}
);
width = 1425;
},
{
hints = (
{
origin = "{0, 6}";
scale = "{-0.9, 1}";
type = Corner;
name = _corner.Serif;
},
{
origin = "{0, 1}";
scale = "{-0.9, 1}";
type = Corner;
name = _corner.Serif;
}
);
layerId = "1E61A082-F045-49A7-AB52-DD1B03FD9B54";
paths = (
{
closed = 1;
nodes = (
"1058 1500 LINE",
"1010 1500 LINE",
"1010 736 LINE",
"1026 540 LINE",
"1014 324 LINE",
"1014 0 LINE",
"1058 0 LINE"
);
},
{
closed = 1;
nodes = (
"308 1096 OFFCURVE",
"110 886 OFFCURVE",
"110 540 CURVE SMOOTH",
"110 194 OFFCURVE",
"308 -16 OFFCURVE",
"582 -16 CURVE SMOOTH",
"876 -16 OFFCURVE",
"1040 193 OFFCURVE",
"1040 539 CURVE",
"1040 541 LINE",
"1040 887 OFFCURVE",
"875 1096 OFFCURVE",
"582 1096 CURVE SMOOTH"
);
},
{
closed = 1;
nodes = (
"834 1058 OFFCURVE",
"1014 865 OFFCURVE",
"1014 540 CURVE SMOOTH",
"1014 215 OFFCURVE",
"834 22 OFFCURVE",
"582 22 CURVE SMOOTH",
"334 22 OFFCURVE",
"158 215 OFFCURVE",
"158 540 CURVE SMOOTH",
"158 865 OFFCURVE",
"334 1058 OFFCURVE",
"582 1058 CURVE SMOOTH"
);
}
);
width = 1299;
},
{
hints = (
{
origin = "{0, 1}";
scale = "{-0.96, 0.98}";
type = Corner;
name = _corner.Serif;
},
{
origin = "{0, 6}";
scale = "{-0.94, 0.98}";
type = Corner;
name = _corner.Serif;
}
);
layerId = "219068EA-2B9B-40DC-949E-B60449C01B8A";
paths = (
{
closed = 1;
nodes = (
"1364 1580 LINE",
"964 1580 LINE",
"964 838 LINE",
"1026 581 LINE",
"994 280 LINE",
"994 0 LINE",
"1364 0 LINE"
);
},
{
closed = 1;
nodes = (
"293 1176 OFFCURVE",
"58 952 OFFCURVE",
"58 580 CURVE SMOOTH",
"58 208 OFFCURVE",
"293 -16 OFFCURVE",
"607 -16 CURVE SMOOTH",
"929 -16 OFFCURVE",
"1081 228 OFFCURVE",
"1081 580 CURVE",
"1053 580 LINE",
"1053 942 OFFCURVE",
"929 1176 OFFCURVE",
"603 1176 CURVE SMOOTH"
);
},
{
closed = 1;
nodes = (
"894 924 OFFCURVE",
"984 806 OFFCURVE",
"984 580 CURVE SMOOTH",
"984 354 OFFCURVE",
"894 236 OFFCURVE",
"740 236 CURVE SMOOTH",
"588 236 OFFCURVE",
"498 354 OFFCURVE",
"498 580 CURVE SMOOTH",
"498 806 OFFCURVE",
"588 924 OFFCURVE",
"740 924 CURVE SMOOTH"
);
}
);
width = 1563;
},
{
hints = (
{
origin = "{0, 1}";
scale = "{-0.96, 0.98}";
type = Corner;
name = _corner.Serif;
},
{
origin = "{0, 6}";
scale = "{-0.94, 0.98}";
type = Corner;
name = _corner.Serif;
}
);
layerId = "0C29AA02-E021-4BD1-A2C4-87F681D64C35";
paths = (
{
closed = 1;
nodes = (
"1296 1500 LINE",
"896 1500 LINE",
"896 838 LINE",
"958 581 LINE",
"926 280 LINE",
"926 0 LINE",
"1296 0 LINE"
);
},
{
closed = 1;
nodes = (
"276 1154 OFFCURVE",
"62 935 OFFCURVE",
"62 570 CURVE SMOOTH",
"62 205 OFFCURVE",
"276 -14 OFFCURVE",
"569 -14 CURVE SMOOTH",
"890 -14 OFFCURVE",
"1019 235 OFFCURVE",
"1017 570 CURVE",
"995 570 LINE",
"995 915 OFFCURVE",
"890 1154 OFFCURVE",
"565 1154 CURVE SMOOTH"
);
},
{
closed = 1;
nodes = (
"842 934 OFFCURVE",
"916 809 OFFCURVE",
"916 570 CURVE SMOOTH",
"916 331 OFFCURVE",
"842 206 OFFCURVE",
"708 206 CURVE SMOOTH",
"576 206 OFFCURVE",
"502 331 OFFCURVE",
"502 570 CURVE SMOOTH",
"502 809 OFFCURVE",
"576 934 OFFCURVE",
"708 934 CURVE SMOOTH"
);
}
);
width = 1482;
}
);
leftKerningGroup = o;
leftMetricsKey = o;
rightKerningGroup = l;
rightMetricsKey = l;
unicode = 0064;
},
{
glyphname = e;
lastChange = "2020-09-22 09:23:58 +0000";
layers = (
{
layerId = "CA54B7DC-FBBB-40FE-ACF3-AABDD76D6A7B";
paths = (
{
closed = 1;
nodes = (
"1055 324 LINE",
"1028 208 OFFCURVE",
"922 28 OFFCURVE",
"636 28 CURVE SMOOTH",
"352 28 OFFCURVE",
"174 223 OFFCURVE",
"174 550 CURVE SMOOTH",
"174 876 OFFCURVE",
"354 1072 OFFCURVE",
"638 1072 CURVE",
"638 1116 LINE",
"330 1116 OFFCURVE",
"124 910 OFFCURVE",
"124 550 CURVE SMOOTH",
"124 190 OFFCURVE",
"328 -16 OFFCURVE",
"636 -16 CURVE SMOOTH",
"949 -16 OFFCURVE",
"1073 185 OFFCURVE",
"1100 324 CURVE"
);
},
{
closed = 1;
nodes = (
"1118 612 LINE",
"1118 908 OFFCURVE",
"948 1116 OFFCURVE",
"638 1116 CURVE",
"638 1072 LINE",
"926 1072 OFFCURVE",
"1062 878 OFFCURVE",
"1074 636 CURVE"
);
},
{
closed = 1;
nodes = (
"158 592 LINE",
"1118 592 LINE",
"1118 612 LINE",
"1074 636 LINE",
"158 636 LINE"
);
}
);
width = 1242;
},
{
layerId = "1E61A082-F045-49A7-AB52-DD1B03FD9B54";
paths = (
{
closed = 1;
nodes = (
"999 380 LINE",
"985 235 OFFCURVE",
"875 24 OFFCURVE",
"594 24 CURVE SMOOTH",
"334 24 OFFCURVE",
"160 217 OFFCURVE",
"160 540 CURVE SMOOTH",
"160 863 OFFCURVE",
"332 1058 OFFCURVE",
"594 1058 CURVE",
"594 1096 LINE",
"308 1096 OFFCURVE",
"110 894 OFFCURVE",
"110 540 CURVE SMOOTH",
"110 186 OFFCURVE",
"310 -16 OFFCURVE",
"594 -16 CURVE SMOOTH",
"898 -16 OFFCURVE",
"1024 214 OFFCURVE",
"1039 380 CURVE"
);
},
{
closed = 1;
nodes = (
"1048 600 LINE",
"1048 892 OFFCURVE",
"889 1096 OFFCURVE",
"594 1096 CURVE",
"594 1058 LINE",
"865 1058 OFFCURVE",
"994 864 OFFCURVE",
"1004 624 CURVE"
);
},
{
closed = 1;
nodes = (
"144 586 LINE",
"1048 586 LINE",
"1048 600 LINE",
"1004 624 LINE",
"144 624 LINE"
);
}
);
width = 1158;
},
{
layerId = "219068EA-2B9B-40DC-949E-B60449C01B8A";
paths = (
{
closed = 1;
nodes = (
"998 440 LINE",
"964 343 OFFCURVE",
"889 271 OFFCURVE",
"741 271 CURVE SMOOTH",
"562 271 OFFCURVE",
"450 401 OFFCURVE",
"450 610 CURVE SMOOTH",
"450 870 OFFCURVE",
"530 966 OFFCURVE",
"671 966 CURVE",
"659 1182 LINE",
"310 1182 OFFCURVE",
"58 967 OFFCURVE",
"58 580 CURVE SMOOTH",
"58 192 OFFCURVE",
"317 -22 OFFCURVE",
"685 -22 CURVE SMOOTH",
"1051 -22 OFFCURVE",
"1225 207 OFFCURVE",
"1250 440 CURVE"
);
},
{
closed = 1;
nodes = (
"1254 657 LINE",
"1254 970 OFFCURVE",
"1045 1182 OFFCURVE",
"659 1182 CURVE",
"671 966 LINE",
"794 966 OFFCURVE",
"856 871 OFFCURVE",
"860 758 CURVE"
);
},
{
closed = 1;
nodes = (
"238 560 LINE",
"1254 560 LINE",
"1254 657 LINE",
"860 758 LINE",
"238 758 LINE"
);
}
);
width = 1312;
},
{
layerId = "0C29AA02-E021-4BD1-A2C4-87F681D64C35";
paths = (
{
closed = 1;
nodes = (
"1010 490 LINE",
"991 364 OFFCURVE",
"909 253 OFFCURVE",
"745 253 CURVE SMOOTH",
"554 253 OFFCURVE",
"450 389 OFFCURVE",
"450 608 CURVE SMOOTH",
"450 895 OFFCURVE",
"529 982 OFFCURVE",
"647 982 CURVE",
"649 1162 LINE",
"309 1162 OFFCURVE",
"62 941 OFFCURVE",
"62 570 CURVE SMOOTH",
"62 198 OFFCURVE",
"307 -22 OFFCURVE",
"655 -22 CURVE SMOOTH",
"1007 -22 OFFCURVE",
"1192 212 OFFCURVE",
"1198 490 CURVE"
);
},
{
closed = 1;
nodes = (
"1202 631 LINE",
"1202 939 OFFCURVE",
"1008 1162 OFFCURVE",
"649 1162 CURVE",
"647 982 LINE",
"743 982 OFFCURVE",
"796 893 OFFCURVE",
"798 748 CURVE"
);
},
{
closed = 1;
nodes = (
"250 570 LINE",
"1202 570 LINE",
"1202 631 LINE",
"798 748 LINE",
"250 748 LINE"
);
}
);
width = 1264;
}
);
leftKerningGroup = o;
leftMetricsKey = o;
rightKerningGroup = o;
rightMetricsKey = o;
unicode = 0065;
},
{
glyphname = f;
lastChange = "2020-09-22 06:30:17 +0000";
layers = (
{
hints = (
{
origin = "{1, 0}";
type = Corner;
name = _corner.Serif;
},
{
origin = "{1, 1}";
scale = "{-1.2, 1}";
type = Corner;
name = _corner.Serif;
options = 1;
}
);
layerId = "CA54B7DC-FBBB-40FE-ACF3-AABDD76D6A7B";
paths = (
{
closed = 1;
nodes = (
"70 1056 LINE",
"798 1056 LINE",
"798 1100 LINE",
"70 1100 LINE"
);
},
{
closed = 1;
nodes = (
"370 0 LINE",
"418 0 LINE",
"418 1166 LINE",
"370 1162 LINE"
);
},
{
closed = 1;
nodes = (
"495 1576 OFFCURVE",
"370 1435 OFFCURVE",
"370 1162 CURVE",
"418 1166 LINE",
"418 1412 OFFCURVE",
"525 1532 OFFCURVE",
"720 1532 CURVE",
"720 1576 LINE"
);
},
{
closed = 1;
nodes = (
"720 1532 LINE",
"844 1532 OFFCURVE",
"927 1476 OFFCURVE",
"922 1374 CURVE",
"941 1389 LINE",
"884 1395 OFFCURVE",
"842 1374 OFFCURVE",
"842 1328 CURVE SMOOTH",
"842 1296 OFFCURVE",
"866 1275 OFFCURVE",
"898 1275 CURVE SMOOTH",
"942 1275 OFFCURVE",
"972 1312 OFFCURVE",
"972 1369 CURVE SMOOTH",
"972 1505 OFFCURVE",
"862 1576 OFFCURVE",
"720 1576 CURVE"
);
}
);
width = 900;
},
{
hints = (
{
origin = "{1, 0}";
type = Corner;
name = _corner.Serif;
},
{
origin = "{1, 1}";
scale = "{-1.4, 1}";
type = Corner;
name = _corner.Serif;
options = 1;
}
);
layerId = "1E61A082-F045-49A7-AB52-DD1B03FD9B54";
paths = (
{
closed = 1;
nodes = (
"62 1042 LINE",
"790 1042 LINE",
"790 1080 LINE",
"62 1080 LINE"
);
},
{
closed = 1;
nodes = (
"362 0 LINE",
"410 0 LINE",
"410 1116 LINE",
"362 1112 LINE"
);
},
{
closed = 1;
nodes = (
"490 1516 OFFCURVE",
"362 1378 OFFCURVE",
"362 1112 CURVE",
"410 1116 LINE",
"410 1359 OFFCURVE",
"520 1478 OFFCURVE",
"720 1478 CURVE",
"720 1516 LINE"
);
},
{
closed = 1;
nodes = (
"720 1478 LINE",
"849 1478 OFFCURVE",
"935 1413 OFFCURVE",
"931 1293 CURVE",
"950 1309 LINE",
"890 1315 OFFCURVE",
"846 1294 OFFCURVE",
"846 1248 CURVE SMOOTH",
"846 1216 OFFCURVE",
"870 1195 OFFCURVE",
"902 1195 CURVE SMOOTH",
"946 1195 OFFCURVE",
"976 1232 OFFCURVE",
"976 1289 CURVE SMOOTH",
"976 1443 OFFCURVE",
"864 1516 OFFCURVE",
"720 1516 CURVE"
);
}
);
width = 868;
},
{
hints = (
{
origin = "{1, 0}";
scale = "{1, 0.98}";
type = Corner;
name = _corner.Serif;
},
{
origin = "{1, 1}";
scale = "{-1.16, 0.98}";
type = Corner;
name = _corner.Serif;
options = 1;
}
);
layerId = "219068EA-2B9B-40DC-949E-B60449C01B8A";
paths = (
{
closed = 1;
nodes = (
"64 930 LINE",
"1037 930 LINE",
"1037 1160 LINE",
"64 1160 LINE"
);
},
{
closed = 1;
nodes = (
"291 0 LINE",
"691 0 LINE",
"691 1295 LINE",
"291 1236 LINE"
);
},
{
closed = 1;
nodes = (
"547 1642 OFFCURVE",
"291 1516 OFFCURVE",
"291 1236 CURVE",
"691 1295 LINE",
"691 1407 OFFCURVE",
"752 1452 OFFCURVE",
"856 1452 CURVE",
"838 1642 LINE"
);
},
{
closed = 1;
nodes = (
"856 1452 LINE",
"922 1452 OFFCURVE",
"964 1419 OFFCURVE",
"987 1379 CURVE",
"1016 1480 LINE",
"910 1480 OFFCURVE",
"843 1461 OFFCURVE",
"843 1367 CURVE SMOOTH",
"843 1275 OFFCURVE",
"933 1230 OFFCURVE",
"1038 1230 CURVE SMOOTH",
"1169 1230 OFFCURVE",
"1240 1309 OFFCURVE",
"1240 1400 CURVE SMOOTH",
"1240 1546 OFFCURVE",
"1078 1642 OFFCURVE",
"838 1642 CURVE"
);
}
);
width = 1118;
},
{
hints = (
{
origin = "{1, 0}";
scale = "{1, 0.98}";
type = Corner;
name = _corner.Serif;
},
{
origin = "{1, 1}";
scale = "{-1.32, 0.98}";
type = Corner;
name = _corner.Serif;
options = 1;
}
);
layerId = "0C29AA02-E021-4BD1-A2C4-87F681D64C35";
paths = (
{
closed = 1;
nodes = (
"64 932 LINE",
"987 932 LINE",
"987 1140 LINE",
"64 1140 LINE"
);
},
{
closed = 1;
nodes = (
"291 0 LINE",
"691 0 LINE",
"691 1295 LINE",
"291 1236 LINE"
);
},
{
closed = 1;
nodes = (
"542 1642 OFFCURVE",
"291 1516 OFFCURVE",
"291 1236 CURVE",
"691 1295 LINE",
"691 1436 OFFCURVE",
"756 1492 OFFCURVE",
"866 1492 CURVE",
"828 1642 LINE"
);
},
{
closed = 1;
nodes = (
"866 1492 LINE",
"942 1492 OFFCURVE",
"997 1454 OFFCURVE",
"1027 1409 CURVE",
"1046 1490 LINE",
"919 1490 OFFCURVE",
"823 1466 OFFCURVE",
"823 1350 CURVE SMOOTH",
"823 1256 OFFCURVE",
"913 1210 OFFCURVE",
"1018 1210 CURVE SMOOTH",
"1162 1210 OFFCURVE",
"1240 1298 OFFCURVE",
"1240 1400 CURVE SMOOTH",
"1240 1546 OFFCURVE",
"1070 1642 OFFCURVE",
"828 1642 CURVE"
);
}
);
width = 1030;
}
);
leftKerningGroup = f;
rightKerningGroup = f;
unicode = 0066;
},
{
glyphname = g;
lastChange = "2020-09-21 21:40:42 +0000";
layers = (
{
layerId = "CA54B7DC-FBBB-40FE-ACF3-AABDD76D6A7B";
paths = (
{
closed = 1;
nodes = (
"846 368 OFFCURVE",
"1010 514 OFFCURVE",
"1010 738 CURVE SMOOTH",
"1010 916 OFFCURVE",
"905 1020 OFFCURVE",
"804 1064 CURVE",
"626 1108 LINE",
"382 1108 OFFCURVE",
"218 962 OFFCURVE",
"218 738 CURVE SMOOTH",
"218 514 OFFCURVE",
"382 368 OFFCURVE",
"614 368 CURVE SMOOTH"
);
},
{
closed = 1;
nodes = (
"412 412 OFFCURVE",
"266 540 OFFCURVE",
"266 738 CURVE SMOOTH",
"266 936 OFFCURVE",
"412 1064 OFFCURVE",
"614 1064 CURVE SMOOTH",
"816 1064 OFFCURVE",
"962 936 OFFCURVE",
"962 738 CURVE SMOOTH",
"962 540 OFFCURVE",
"816 412 OFFCURVE",
"614 412 CURVE SMOOTH"
);
},
{
closed = 1;
nodes = (
"804 1064 LINE",
"1174 1064 LINE",
"1174 1108 LINE",
"626 1108 LINE"
);
},
{
closed = 1;
nodes = (
"213 514 OFFCURVE",
"98 438 OFFCURVE",
"98 296 CURVE SMOOTH",
"98 165 OFFCURVE",
"200 76 OFFCURVE",
"354 76 CURVE SMOOTH",
"908 76 LINE SMOOTH",
"1050 76 OFFCURVE",
"1110 11 OFFCURVE",
"1110 -110 CURVE SMOOTH",
"1110 -232 OFFCURVE",
"1027 -356 OFFCURVE",
"794 -356 CURVE SMOOTH",
"506 -356 LINE SMOOTH",
"301 -356 OFFCURVE",
"212 -271 OFFCURVE",
"212 -134 CURVE SMOOTH",
"212 -13 OFFCURVE",
"300 55 OFFCURVE",
"350 80 CURVE",
"330 111 LINE",
"256 74 OFFCURVE",
"164 -3 OFFCURVE",
"164 -134 CURVE SMOOTH",
"164 -300 OFFCURVE",
"274 -400 OFFCURVE",
"506 -400 CURVE SMOOTH",
"794 -400 LINE SMOOTH",
"1057 -400 OFFCURVE",
"1156 -252 OFFCURVE",
"1156 -108 CURVE SMOOTH",
"1156 35 OFFCURVE",
"1078 120 OFFCURVE",
"910 120 CURVE SMOOTH",
"358 120 LINE SMOOTH",
"230 120 OFFCURVE",
"146 194 OFFCURVE",
"146 296 CURVE SMOOTH",
"146 410 OFFCURVE",
"224 467 OFFCURVE",
"330 478 CURVE",
"326 518 LINE"
);
}
);
width = 1264;
},
{
layerId = "1E61A082-F045-49A7-AB52-DD1B03FD9B54";
paths = (
{
closed = 1;
nodes = (
"814 360 OFFCURVE",
"978 503 OFFCURVE",
"978 724 CURVE SMOOTH",
"978 902 OFFCURVE",
"879 1009 OFFCURVE",
"758 1050 CURVE",
"594 1088 LINE",
"350 1088 OFFCURVE",
"186 945 OFFCURVE",
"186 724 CURVE SMOOTH",
"186 503 OFFCURVE",
"350 360 OFFCURVE",
"582 360 CURVE SMOOTH"
);
},
{
closed = 1;
nodes = (
"380 398 OFFCURVE",
"234 526 OFFCURVE",
"234 724 CURVE SMOOTH",
"234 922 OFFCURVE",
"380 1050 OFFCURVE",
"582 1050 CURVE SMOOTH",
"784 1050 OFFCURVE",
"930 922 OFFCURVE",
"930 724 CURVE SMOOTH",
"930 526 OFFCURVE",
"784 398 OFFCURVE",
"582 398 CURVE SMOOTH"
);
},
{
closed = 1;
nodes = (
"758 1050 LINE",
"1156 1050 LINE",
"1156 1088 LINE",
"594 1088 LINE"
);
},
{
closed = 1;
nodes = (
"181 500 OFFCURVE",
"66 427 OFFCURVE",
"66 289 CURVE SMOOTH",
"66 163 OFFCURVE",
"164 80 OFFCURVE",
"312 80 CURVE SMOOTH",
"882 80 LINE SMOOTH",
"1024 80 OFFCURVE",
"1084 12 OFFCURVE",
"1084 -111 CURVE SMOOTH",
"1084 -234 OFFCURVE",
"1001 -362 OFFCURVE",
"768 -362 CURVE SMOOTH",
"474 -362 LINE SMOOTH",
"269 -362 OFFCURVE",
"180 -274 OFFCURVE",
"180 -135 CURVE SMOOTH",
"180 -13 OFFCURVE",
"268 55 OFFCURVE",
"318 80 CURVE",
"298 111 LINE",
"224 74 OFFCURVE",
"132 -3 OFFCURVE",
"132 -134 CURVE SMOOTH",
"132 -300 OFFCURVE",
"242 -400 OFFCURVE",
"474 -400 CURVE SMOOTH",
"768 -400 LINE SMOOTH",
"1031 -400 OFFCURVE",
"1130 -252 OFFCURVE",
"1130 -108 CURVE SMOOTH",
"1130 35 OFFCURVE",
"1052 120 OFFCURVE",
"884 120 CURVE SMOOTH",
"316 120 LINE SMOOTH",
"194 120 OFFCURVE",
"114 192 OFFCURVE",
"114 289 CURVE SMOOTH",
"114 400 OFFCURVE",
"192 456 OFFCURVE",
"298 466 CURVE",
"294 504 LINE"
);
}
);
width = 1218;
},
{
layerId = "219068EA-2B9B-40DC-949E-B60449C01B8A";
paths = (
{
closed = 1;
nodes = (
"1014 402 OFFCURVE",
"1202 542 OFFCURVE",
"1202 750 CURVE SMOOTH",
"1202 862 OFFCURVE",
"1138 927 OFFCURVE",
"1080 956 CURVE",
"684 1170 LINE",
"348 1170 OFFCURVE",
"136 1030 OFFCURVE",
"136 786 CURVE SMOOTH",
"136 542 OFFCURVE",
"348 402 OFFCURVE",
"684 402 CURVE SMOOTH"
);
},
{
closed = 1;
nodes = (
"590 598 OFFCURVE",
"536 674 OFFCURVE",
"536 786 CURVE SMOOTH",
"536 894 OFFCURVE",
"590 974 OFFCURVE",
"684 974 CURVE SMOOTH",
"778 974 OFFCURVE",
"832 894 OFFCURVE",
"832 786 CURVE SMOOTH",
"832 674 OFFCURVE",
"778 598 OFFCURVE",
"684 598 CURVE SMOOTH"
);
},
{
closed = 1;
nodes = (
"1080 956 LINE",
"1318 956 LINE",
"1318 1170 LINE",
"684 1170 LINE"
);
},
{
closed = 1;
nodes = (
"187 566 OFFCURVE",
"38 449 OFFCURVE",
"38 258 CURVE SMOOTH",
"38 81 OFFCURVE",
"187 -40 OFFCURVE",
"411 -40 CURVE SMOOTH",
"857 -40 LINE SMOOTH",
"920 -40 OFFCURVE",
"961 -64 OFFCURVE",
"961 -119 CURVE SMOOTH",
"961 -181 OFFCURVE",
"915 -222 OFFCURVE",
"825 -222 CURVE SMOOTH",
"569 -222 LINE SMOOTH",
"474 -222 OFFCURVE",
"421 -189 OFFCURVE",
"421 -116 CURVE SMOOTH",
"421 -81 OFFCURVE",
"439 -52 OFFCURVE",
"468 -27 CURVE",
"432 3 LINE",
"260 3 OFFCURVE",
"124 -60 OFFCURVE",
"124 -204 CURVE SMOOTH",
"124 -356 OFFCURVE",
"267 -420 OFFCURVE",
"494 -420 CURVE SMOOTH",
"823 -420 LINE SMOOTH",
"1166 -420 OFFCURVE",
"1342 -263 OFFCURVE",
"1342 0 CURVE SMOOTH",
"1342 188 OFFCURVE",
"1204 310 OFFCURVE",
"953 310 CURVE SMOOTH",
"429 310 LINE SMOOTH",
"366 310 OFFCURVE",
"329 331 OFFCURVE",
"329 380 CURVE SMOOTH",
"329 429 OFFCURVE",
"366 450 OFFCURVE",
"429 450 CURVE",
"411 564 LINE"
);
}
);
width = 1410;
},
{
layerId = "0C29AA02-E021-4BD1-A2C4-87F681D64C35";
paths = (
{
closed = 1;
nodes = (
"989 390 OFFCURVE",
"1176 528 OFFCURVE",
"1176 734 CURVE SMOOTH",
"1176 854 OFFCURVE",
"1099 924 OFFCURVE",
"1028 954 CURVE",
"660 1150 LINE",
"325 1150 OFFCURVE",
"114 1012 OFFCURVE",
"114 770 CURVE SMOOTH",
"114 528 OFFCURVE",
"325 390 OFFCURVE",
"660 390 CURVE SMOOTH"
);
},
{
closed = 1;
nodes = (
"572 556 OFFCURVE",
"522 643 OFFCURVE",
"522 770 CURVE SMOOTH",
"522 893 OFFCURVE",
"572 984 OFFCURVE",
"660 984 CURVE SMOOTH",
"748 984 OFFCURVE",
"798 893 OFFCURVE",
"798 770 CURVE SMOOTH",
"798 643 OFFCURVE",
"748 556 OFFCURVE",
"660 556 CURVE SMOOTH"
);
},
{
closed = 1;
nodes = (
"1028 954 LINE",
"1304 954 LINE",
"1304 1150 LINE",
"660 1150 LINE"
);
},
{
closed = 1;
nodes = (
"173 526 OFFCURVE",
"24 416 OFFCURVE",
"24 234 CURVE SMOOTH",
"24 65 OFFCURVE",
"173 -48 OFFCURVE",
"397 -48 CURVE SMOOTH",
"849 -48 LINE SMOOTH",
"924 -48 OFFCURVE",
"973 -73 OFFCURVE",
"973 -133 CURVE SMOOTH",
"973 -199 OFFCURVE",
"920 -242 OFFCURVE",
"817 -242 CURVE SMOOTH",
"555 -242 LINE SMOOTH",
"453 -242 OFFCURVE",
"397 -206 OFFCURVE",
"397 -126 CURVE SMOOTH",
"397 -87 OFFCURVE",
"419 -55 OFFCURVE",
"454 -27 CURVE",
"438 -1 LINE",
"255 -1 OFFCURVE",
"110 -63 OFFCURVE",
"110 -206 CURVE SMOOTH",
"110 -357 OFFCURVE",
"253 -420 OFFCURVE",
"480 -420 CURVE SMOOTH",
"815 -420 LINE SMOOTH",
"1151 -420 OFFCURVE",
"1324 -267 OFFCURVE",
"1324 -14 CURVE SMOOTH",
"1324 164 OFFCURVE",
"1190 282 OFFCURVE",
"945 282 CURVE SMOOTH",
"415 282 LINE SMOOTH",
"346 282 OFFCURVE",
"305 308 OFFCURVE",
"305 366 CURVE SMOOTH",
"305 424 OFFCURVE",
"346 450 OFFCURVE",
"415 450 CURVE",
"397 524 LINE"
);
}
);
width = 1328;
}
);
leftKerningGroup = g;
rightKerningGroup = g;
unicode = 0067;
},
{
glyphname = h;
lastChange = "2020-09-22 10:50:04 +0000";
layers = (
{
hints = (
{
origin = "{0, 3}";
scale = "{-0.9, 1}";
type = Corner;
name = _corner.Serif;
},
{
origin = "{0, 0}";
type = Corner;
name = _corner.Serif;
options = 1;
},
{
origin = "{0, 1}";
scale = "{-1, 1}";
type = Corner;
name = _corner.Serif;
},
{
origin = "{1, 7}";
type = Corner;
name = _corner.Serif;
},
{
origin = "{1, 8}";
scale = "{-0.86, 1}";
type = Corner;
name = _corner.Serif;
options = 1;
}
);
layerId = "CA54B7DC-FBBB-40FE-ACF3-AABDD76D6A7B";
paths = (
{
closed = 1;
nodes = (
"308 0 LINE",
"356 0 LINE",
"356 1560 LINE",
"308 1560 LINE"
);
},
{
closed = 1;
nodes = (
"356 552 LINE",
"356 911 OFFCURVE",
"562 1072 OFFCURVE",
"782 1072 CURVE SMOOTH",
"974 1072 OFFCURVE",
"1094 981 OFFCURVE",
"1094 764 CURVE SMOOTH",
"1094 0 LINE",
"1142 0 LINE",
"1142 764 LINE SMOOTH",
"1142 1018 OFFCURVE",
"994 1116 OFFCURVE",
"784 1116 CURVE SMOOTH",
"544 1116 OFFCURVE",
"320 954 OFFCURVE",
"320 552 CURVE"
);
}
);
width = 1422;
},
{
hints = (
{
origin = "{0, 3}";
scale = "{-0.9, 1}";
type = Corner;
name = _corner.Serif;
},
{
origin = "{0, 0}";
type = Corner;
name = _corner.Serif;
options = 1;
},
{
origin = "{0, 1}";
scale = "{-1.22, 1}";
type = Corner;
name = _corner.Serif;
},
{
origin = "{1, 7}";
scale = "{1.22, 1}";
type = Corner;
name = _corner.Serif;
},
{
origin = "{1, 8}";
scale = "{-0.86, 1}";
type = Corner;
name = _corner.Serif;
}
);
layerId = "1E61A082-F045-49A7-AB52-DD1B03FD9B54";
paths = (
{
closed = 1;
nodes = (
"264 0 LINE",
"312 0 LINE",
"312 1500 LINE",
"264 1500 LINE"
);
},
{
closed = 1;
nodes = (
"312 582 LINE",
"312 908 OFFCURVE",
"503 1058 OFFCURVE",
"708 1058 CURVE SMOOTH",
"881 1058 OFFCURVE",
"986 967 OFFCURVE",
"986 774 CURVE SMOOTH",
"986 0 LINE",
"1034 0 LINE",
"1034 774 LINE SMOOTH",
"1034 998 OFFCURVE",
"900 1096 OFFCURVE",
"710 1096 CURVE SMOOTH",
"483 1096 OFFCURVE",
"287 952 OFFCURVE",
"287 582 CURVE"
);
}
);
width = 1264;
},
{
hints = (
{
origin = "{0, 3}";
scale = "{-0.96, 0.98}";
type = Corner;
name = _corner.Serif;
},
{
origin = "{0, 0}";
scale = "{1, 0.98}";
type = Corner;
name = _corner.Serif;
options = 1;
},
{
origin = "{0, 1}";
scale = "{-0.66, 0.98}";
type = Corner;
name = _corner.Serif;
},
{
origin = "{1, 7}";
scale = "{0.66, 0.98}";
type = Corner;
name = _corner.Serif;
options = 1;
},
{
origin = "{1, 8}";
scale = "{-0.76, 0.98}";
type = Corner;
name = _corner.Serif;
}
);
layerId = "219068EA-2B9B-40DC-949E-B60449C01B8A";
paths = (
{
closed = 1;
nodes = (
"206 0 LINE",
"606 0 LINE",
"606 1580 LINE",
"206 1580 LINE"
);
},
{
closed = 1;
nodes = (
"606 712 LINE",
"606 858 OFFCURVE",
"682 909 OFFCURVE",
"769 909 CURVE SMOOTH",
"853 909 OFFCURVE",
"908 858 OFFCURVE",
"908 758 CURVE SMOOTH",
"908 0 LINE",
"1308 0 LINE",
"1308 779 LINE SMOOTH",
"1308 1060 OFFCURVE",
"1153 1183 OFFCURVE",
"939 1183 CURVE SMOOTH",
"643 1183 OFFCURVE",
"565 997 OFFCURVE",
"565 710 CURVE"
);
}
);
width = 1472;
},
{
hints = (
{
origin = "{0, 0}";
scale = "{1, 0.98}";
type = Corner;
name = _corner.Serif;
options = 1;
},
{
origin = "{0, 1}";
scale = "{-0.64, 0.98}";
type = Corner;
name = _corner.Serif;
},
{
origin = "{0, 3}";
scale = "{-0.96, 0.98}";
type = Corner;
name = _corner.Serif;
},
{
origin = "{1, 7}";
scale = "{0.64, 0.98}";
type = Corner;
name = _corner.Serif;
options = 1;
},
{
origin = "{1, 8}";
scale = "{-0.76, 0.98}";
type = Corner;
name = _corner.Serif;
}
);
layerId = "0C29AA02-E021-4BD1-A2C4-87F681D64C35";
paths = (
{
closed = 1;
nodes = (
"196 0 LINE",
"596 0 LINE",
"596 1500 LINE",
"196 1500 LINE"
);
},
{
closed = 1;
nodes = (
"596 743 LINE",
"596 874 OFFCURVE",
"665 920 OFFCURVE",
"744 920 CURVE SMOOTH",
"819 920 OFFCURVE",
"868 876 OFFCURVE",
"868 789 CURVE SMOOTH",
"868 0 LINE",
"1268 0 LINE",
"1268 789 LINE SMOOTH",
"1268 1048 OFFCURVE",
"1120 1162 OFFCURVE",
"914 1162 CURVE SMOOTH",
"631 1162 OFFCURVE",
"557 997 OFFCURVE",
"557 741 CURVE"
);
}
);
width = 1426;
}
);
leftKerningGroup = l;
leftMetricsKey = l;
rightKerningGroup = n;
rightMetricsKey = n;
unicode = 0068;
},
{
glyphname = idotless;
lastChange = "2020-09-21 21:30:05 +0000";
layers = (
{
anchors = (
{
name = top;
position = "{350, 1100}";
}
);
hints = (
{
origin = "{0, 3}";
scale = "{-0.9, 1}";
type = Corner;
name = _corner.Serif;
},
{
origin = "{0, 0}";
type = Corner;
name = _corner.Serif;
options = 1;
},
{
origin = "{0, 1}";
scale = "{-0.9, 1}";
type = Corner;
name = _corner.Serif;
}
);
layerId = "CA54B7DC-FBBB-40FE-ACF3-AABDD76D6A7B";
paths = (
{
closed = 1;
nodes = (
"334 0 LINE",
"382 0 LINE",
"382 1100 LINE",
"334 1100 LINE"
);
}
);
width = 675;
},
{
anchors = (
{
name = top;
position = "{302, 1080}";
}
);
hints = (
{
origin = "{0, 3}";
scale = "{-0.9, 1}";
type = Corner;
name = _corner.Serif;
},
{
origin = "{0, 0}";
type = Corner;
name = _corner.Serif;
options = 1;
},
{
origin = "{0, 1}";
scale = "{-0.9, 1}";
type = Corner;
name = _corner.Serif;
}
);
layerId = "1E61A082-F045-49A7-AB52-DD1B03FD9B54";
paths = (
{
closed = 1;
nodes = (
"284 0 LINE",
"332 0 LINE",
"332 1080 LINE",
"284 1080 LINE"
);
}
);
width = 573;
},
{
anchors = (
{
name = top;
position = "{414, 1160}";
}
);
hints = (
{
origin = "{0, 3}";
scale = "{-0.96, 0.98}";
type = Corner;
name = _corner.Serif;
},
{
origin = "{0, 0}";
scale = "{1, 0.98}";
type = Corner;
name = _corner.Serif;
options = 1;
},
{
origin = "{0, 1}";
scale = "{-0.9, 0.98}";
type = Corner;
name = _corner.Serif;
}
);
layerId = "219068EA-2B9B-40DC-949E-B60449C01B8A";
paths = (
{
closed = 1;
nodes = (
"220 0 LINE",
"620 0 LINE",
"620 1160 LINE",
"220 1160 LINE"
);
}
);
width = 813;
},
{
anchors = (
{
name = top;
position = "{398, 1140}";
}
);
hints = (
{
origin = "{0, 0}";
scale = "{1, 0.98}";
type = Corner;
name = _corner.Serif;
options = 1;
},
{
origin = "{0, 1}";
scale = "{-0.9, 0.98}";
type = Corner;
name = _corner.Serif;
},
{
origin = "{0, 3}";
scale = "{-0.96, 0.98}";
type = Corner;
name = _corner.Serif;
}
);
layerId = "0C29AA02-E021-4BD1-A2C4-87F681D64C35";
paths = (
{
closed = 1;
nodes = (
"204 0 LINE",
"604 0 LINE",
"604 1140 LINE",
"204 1140 LINE"
);
}
);
width = 784;
}
);
leftKerningGroup = n;
leftMetricsKey = n;
rightKerningGroup = l;
rightMetricsKey = l;
unicode = 0131;
},
{
glyphname = jdotless;
lastChange = "2020-09-21 21:48:36 +0000";
layers = (
{
anchors = (
{
name = top;
position = "{324, 1100}";
}
);
hints = (
{
origin = "{0, 3}";
scale = "{-0.9, 1}";
type = Corner;
name = _corner.Serif;
}
);
layerId = "CA54B7DC-FBBB-40FE-ACF3-AABDD76D6A7B";
paths = (
{
closed = 1;
nodes = (
"308 -140 LINE",
"356 -136 LINE",
"356 1100 LINE",
"308 1100 LINE"
);
},
{
closed = 1;
nodes = (
"276 -420 OFFCURVE",
"356 -323 OFFCURVE",
"356 -136 CURVE",
"308 -140 LINE",
"308 -298 OFFCURVE",
"241 -376 OFFCURVE",
"122 -376 CURVE",
"122 -420 LINE"
);
},
{
closed = 1;
nodes = (
"122 -376 LINE",
"15 -376 OFFCURVE",
"-49 -319 OFFCURVE",
"-47 -226 CURVE",
"-66 -241 LINE",
"-11 -246 OFFCURVE",
"34 -228 OFFCURVE",
"34 -181 CURVE SMOOTH",
"34 -149 OFFCURVE",
"12 -129 OFFCURVE",
"-20 -129 CURVE SMOOTH",
"-63 -129 OFFCURVE",
"-96 -164 OFFCURVE",
"-96 -221 CURVE SMOOTH",
"-96 -354 OFFCURVE",
"-5 -420 OFFCURVE",
"122 -420 CURVE"
);
}
);
width = 552;
},
{
anchors = (
{
name = top;
position = "{296, 1080}";
}
);
hints = (
{
origin = "{0, 3}";
scale = "{-0.9, 1}";
type = Corner;
name = _corner.Serif;
}
);
layerId = "1E61A082-F045-49A7-AB52-DD1B03FD9B54";
paths = (
{
closed = 1;
nodes = (
"278 -110 LINE",
"326 -106 LINE",
"326 1080 LINE",
"278 1080 LINE"
);
},
{
closed = 1;
nodes = (
"238 -420 OFFCURVE",
"326 -313 OFFCURVE",
"326 -106 CURVE",
"278 -110 LINE",
"278 -292 OFFCURVE",
"203 -382 OFFCURVE",
"68 -382 CURVE",
"68 -420 LINE"
);
},
{
closed = 1;
nodes = (
"68 -382 LINE",
"-44 -382 OFFCURVE",
"-110 -318 OFFCURVE",
"-109 -216 CURVE",
"-128 -231 LINE",
"-70 -236 OFFCURVE",
"-24 -218 OFFCURVE",
"-24 -171 CURVE SMOOTH",
"-24 -139 OFFCURVE",
"-46 -119 OFFCURVE",
"-78 -119 CURVE SMOOTH",
"-121 -119 OFFCURVE",
"-154 -154 OFFCURVE",
"-154 -211 CURVE SMOOTH",
"-154 -351 OFFCURVE",
"-61 -420 OFFCURVE",
"68 -420 CURVE"
);
}
);
width = 534;
},
{
anchors = (
{
name = top;
position = "{404, 1160}";
}
);
hints = (
{
origin = "{0, 3}";
scale = "{-0.96, 0.98}";
type = Corner;
name = _corner.Serif;
}
);
layerId = "219068EA-2B9B-40DC-949E-B60449C01B8A";
paths = (
{
closed = 1;
nodes = (
"206 -103 LINE",
"610 66 LINE",
"610 1160 LINE",
"206 1160 LINE"
);
},
{
closed = 1;
nodes = (
"364 -440 OFFCURVE",
"610 -283 OFFCURVE",
"610 66 CURVE",
"206 -103 LINE",
"206 -223 OFFCURVE",
"148 -270 OFFCURVE",
"52 -270 CURVE",
"90 -440 LINE"
);
},
{
closed = 1;
nodes = (
"52 -270 LINE",
"0 -270 OFFCURVE",
"-38 -241 OFFCURVE",
"-59 -207 CURVE",
"-88 -308 LINE",
"33 -308 OFFCURVE",
"125 -284 OFFCURVE",
"125 -168 CURVE SMOOTH",
"125 -74 OFFCURVE",
"40 -28 OFFCURVE",
"-60 -28 CURVE SMOOTH",
"-198 -28 OFFCURVE",
"-272 -110 OFFCURVE",
"-272 -204 CURVE SMOOTH",
"-272 -346 OFFCURVE",
"-123 -440 OFFCURVE",
"90 -440 CURVE"
);
}
);
width = 828;
},
{
anchors = (
{
name = top;
position = "{396, 1140}";
}
);
hints = (
{
origin = "{0, 3}";
scale = "{-0.96, 0.98}";
type = Corner;
name = _corner.Serif;
}
);
layerId = "0C29AA02-E021-4BD1-A2C4-87F681D64C35";
paths = (
{
closed = 1;
nodes = (
"198 -123 LINE",
"602 66 LINE",
"602 1140 LINE",
"198 1140 LINE"
);
},
{
closed = 1;
nodes = (
"356 -440 OFFCURVE",
"602 -283 OFFCURVE",
"602 66 CURVE",
"198 -123 LINE",
"198 -243 OFFCURVE",
"140 -290 OFFCURVE",
"44 -290 CURVE",
"82 -440 LINE"
);
},
{
closed = 1;
nodes = (
"44 -290 LINE",
"-13 -290 OFFCURVE",
"-54 -261 OFFCURVE",
"-77 -227 CURVE",
"-96 -288 LINE",
"25 -288 OFFCURVE",
"117 -266 OFFCURVE",
"117 -158 CURVE SMOOTH",
"117 -71 OFFCURVE",
"32 -28 OFFCURVE",
"-68 -28 CURVE SMOOTH",
"-206 -28 OFFCURVE",
"-280 -110 OFFCURVE",
"-280 -204 CURVE SMOOTH",
"-280 -346 OFFCURVE",
"-131 -440 OFFCURVE",
"82 -440 CURVE"
);
}
);
width = 687;
}
);
leftKerningGroup = p;
rightKerningGroup = q;
unicode = 0237;
},
{
glyphname = k;
lastChange = "2020-09-22 09:24:58 +0000";
layers = (
{
hints = (
{
origin = "{0, 0}";
type = Corner;
name = _corner.Serif;
options = 1;
},
{
origin = "{0, 1}";
scale = "{-0.9, 1}";
type = Corner;
name = _corner.Serif;
},
{
origin = "{0, 3}";
scale = "{-0.9, 1}";
type = Corner;
name = _corner.Serif;
},
{
origin = "{1, 0}";
scale = "{-1.16, 1}";
type = Corner;
name = _corner.Serif;
options = 1;
},
{
origin = "{1, 3}";
scale = "{0.46, 1}";
type = Corner;
name = _corner.Serif;
},
{
origin = "{2, 2}";
scale = "{1.2, 1}";
type = Corner;
name = _corner.Serif;
},
{
origin = "{2, 3}";
scale = "{-0.5, 1}";
type = Corner;
name = _corner.Serif;
options = 1;
}
);
layerId = "CA54B7DC-FBBB-40FE-ACF3-AABDD76D6A7B";
paths = (
{
closed = 1;
nodes = (
"308 0 LINE",
"356 0 LINE",
"356 1560 LINE",
"308 1560 LINE"
);
},
{
closed = 1;
nodes = (
"1045 1100 LINE",
"322 436 LINE",
"347 402 LINE",
"1110 1100 LINE"
);
},
{
closed = 1;
nodes = (
"595 646 LINE",
"562 614 LINE",
"1084 0 LINE",
"1147 0 LINE"
);
}
);
width = 1328;
},
{
hints = (
{
origin = "{0, 0}";
type = Corner;
name = _corner.Serif;
options = 1;
},
{
origin = "{0, 1}";
scale = "{-0.9, 1}";
type = Corner;
name = _corner.Serif;
},
{
origin = "{0, 3}";
scale = "{-0.9, 1}";
type = Corner;
name = _corner.Serif;
},
{
origin = "{1, 0}";
scale = "{-1.16, 1}";
type = Corner;
name = _corner.Serif;
options = 1;
},
{
origin = "{1, 3}";
scale = "{0.46, 1}";
type = Corner;
name = _corner.Serif;
},
{
origin = "{2, 2}";
scale = "{1.2, 1}";
type = Corner;
name = _corner.Serif;
},
{
origin = "{2, 3}";
scale = "{-0.5, 1}";
type = Corner;
name = _corner.Serif;
options = 1;
}
);
layerId = "1E61A082-F045-49A7-AB52-DD1B03FD9B54";
paths = (
{
closed = 1;
nodes = (
"264 0 LINE",
"312 0 LINE",
"312 1500 LINE",
"264 1500 LINE"
);
},
{
closed = 1;
nodes = (
"1003 1080 LINE",
"278 426 LINE",
"300 392 LINE",
"1066 1080 LINE"
);
},
{
closed = 1;
nodes = (
"551 646 LINE",
"518 614 LINE",
"1040 0 LINE",
"1103 0 LINE"
);
}
);
width = 1241;
},
{
hints = (
{
origin = "{0, 0}";
scale = "{1, 0.98}";
type = Corner;
name = _corner.Serif;
options = 1;
},
{
origin = "{0, 1}";
scale = "{-0.58, 0.98}";
type = Corner;
name = _corner.Serif;
},
{
origin = "{0, 3}";
scale = "{-0.96, 0.98}";
type = Corner;
name = _corner.Serif;
},
{
origin = "{1, 0}";
scale = "{-2.1, 0.98}";
type = Corner;
name = _corner.Serif;
options = 1;
},
{
origin = "{1, 3}";
scale = "{0.02, 0.98}";
type = Corner;
name = _corner.Serif;
},
{
origin = "{2, 2}";
scale = "{1.18, 0.98}";
type = Corner;
name = _corner.Serif;
},
{
origin = "{2, 3}";
scale = "{-0.18, 0.98}";
type = Corner;
name = _corner.Serif;
options = 1;
}
);
layerId = "219068EA-2B9B-40DC-949E-B60449C01B8A";
paths = (
{
closed = 1;
nodes = (
"206 0 LINE",
"606 0 LINE",
"607 1580 LINE",
"207 1580 LINE"
);
},
{
closed = 1;
nodes = (
"1173 1160 LINE",
"428 482 LINE",
"586 318 LINE",
"1527 1160 LINE"
);
},
{
closed = 1;
nodes = (
"945 799 LINE",
"672 553 LINE",
"1039 0 LINE",
"1505 0 LINE"
);
}
);
width = 1495;
},
{
hints = (
{
origin = "{0, 0}";
scale = "{1, 0.98}";
type = Corner;
name = _corner.Serif;
options = 1;
},
{
origin = "{0, 1}";
scale = "{-0.62, 0.98}";
type = Corner;
name = _corner.Serif;
},
{
origin = "{0, 3}";
scale = "{-0.96, 0.98}";
type = Corner;
name = _corner.Serif;
},
{
origin = "{1, 0}";
scale = "{-2.04, 0.98}";
type = Corner;
name = _corner.Serif;
options = 1;
},
{
origin = "{1, 3}";
scale = "{0.02, 0.98}";
type = Corner;
name = _corner.Serif;
},
{
origin = "{2, 2}";
scale = "{1.18, 0.98}";
type = Corner;
name = _corner.Serif;
},
{
origin = "{2, 3}";
scale = "{-0.18, 0.98}";
type = Corner;
name = _corner.Serif;
options = 1;
}
);
layerId = "0C29AA02-E021-4BD1-A2C4-87F681D64C35";
paths = (
{
closed = 1;
nodes = (
"196 0 LINE",
"596 0 LINE",
"597 1500 LINE",
"197 1500 LINE"
);
},
{
closed = 1;
nodes = (
"1128 1140 LINE",
"427 496 LINE",
"569 348 LINE",
"1440 1140 LINE"
);
},
{
closed = 1;
nodes = (
"907 799 LINE",
"647 563 LINE",
"996 0 LINE",
"1438 0 LINE"
);
}
);
width = 1455;
}
);
leftKerningGroup = l;
leftMetricsKey = l;
rightKerningGroup = k;
rightMetricsKey = x;
unicode = 006B;
},
{
glyphname = l;
lastChange = "2020-09-22 06:30:06 +0000";
layers = (
{
hints = (
{
origin = "{0, 3}";
scale = "{-0.9, 1}";
type = Corner;
name = _corner.Serif;
},
{
origin = "{0, 0}";
type = Corner;
name = _corner.Serif;
options = 1;
},
{
origin = "{0, 1}";
scale = "{-0.9, 1}";
type = Corner;
name = _corner.Serif;
}
);
layerId = "CA54B7DC-FBBB-40FE-ACF3-AABDD76D6A7B";
paths = (
{
closed = 1;
nodes = (
"308 0 LINE",
"356 0 LINE",
"356 1560 LINE",
"308 1560 LINE"
);
}
);
width = 649;
},
{
hints = (
{
origin = "{0, 0}";
type = Corner;
name = _corner.Serif;
},
{
origin = "{0, 1}";
scale = "{-0.9, 1}";
type = Corner;
name = _corner.Serif;
options = 1;
},
{
origin = "{0, 3}";
scale = "{-0.9, 1}";
type = Corner;
name = _corner.Serif;
}
);
layerId = "1E61A082-F045-49A7-AB52-DD1B03FD9B54";
paths = (
{
closed = 1;
nodes = (
"264 0 LINE",
"312 0 LINE",
"312 1500 LINE",
"264 1500 LINE"
);
}
);
width = 553;
},
{
hints = (
{
origin = "{0, 3}";
scale = "{-0.96, 0.98}";
type = Corner;
name = _corner.Serif;
},
{
origin = "{0, 0}";
scale = "{1, 0.98}";
type = Corner;
name = _corner.Serif;
options = 1;
},
{
origin = "{0, 1}";
scale = "{-0.94, 0.98}";
type = Corner;
name = _corner.Serif;
}
);
layerId = "219068EA-2B9B-40DC-949E-B60449C01B8A";
paths = (
{
closed = 1;
nodes = (
"206 0 LINE",
"610 0 LINE",
"610 1580 LINE",
"206 1580 LINE"
);
}
);
width = 809;
},
{
hints = (
{
origin = "{0, 0}";
scale = "{1, 0.98}";
type = Corner;
name = _corner.Serif;
options = 1;
},
{
origin = "{0, 1}";
scale = "{-0.94, 0.98}";
type = Corner;
name = _corner.Serif;
},
{
origin = "{0, 3}";
scale = "{-0.96, 0.98}";
type = Corner;
name = _corner.Serif;
}
);
layerId = "0C29AA02-E021-4BD1-A2C4-87F681D64C35";
paths = (
{
closed = 1;
nodes = (
"196 0 LINE",
"600 0 LINE",
"600 1500 LINE",
"196 1500 LINE"
);
}
);
width = 786;
}
);
leftKerningGroup = l;
rightKerningGroup = l;
unicode = 006C;
},
{
glyphname = m;
lastChange = "2020-09-22 10:50:04 +0000";
layers = (
{
hints = (
{
origin = "{0, 5}";
scale = "{-0.9, 1}";
type = Corner;
name = _corner.Serif;
},
{
origin = "{0, 0}";
type = Corner;
name = _corner.Serif;
options = 1;
},
{
origin = "{0, 1}";
scale = "{-0.86, 1}";
type = Corner;
name = _corner.Serif;
},
{
origin = "{1, 7}";
scale = "{0.86, 1}";
type = Corner;
name = _corner.Serif;
},
{
origin = "{1, 8}";
scale = "{-0.86, 1}";
type = Corner;
name = _corner.Serif;
options = 1;
},
{
origin = "{2, 7}";
scale = "{0.86, 1}";
type = Corner;
name = _corner.Serif;
options = 1;
},
{
origin = "{2, 8}";
scale = "{-0.86, 1}";
type = Corner;
name = _corner.Serif;
}
);
layerId = "CA54B7DC-FBBB-40FE-ACF3-AABDD76D6A7B";
paths = (
{
closed = 1;
nodes = (
"334 0 LINE",
"382 0 LINE",
"382 734 LINE",
"378 734 LINE",
"378 1100 LINE",
"334 1100 LINE"
);
},
{
closed = 1;
nodes = (
"382 674 LINE",
"382 949 OFFCURVE",
"541 1072 OFFCURVE",
"708 1072 CURVE SMOOTH",
"867 1072 OFFCURVE",
"960 995 OFFCURVE",
"960 812 CURVE SMOOTH",
"960 0 LINE",
"1008 0 LINE",
"1008 812 LINE SMOOTH",
"1008 1031 OFFCURVE",
"888 1116 OFFCURVE",
"710 1116 CURVE SMOOTH",
"517 1116 OFFCURVE",
"346 982 OFFCURVE",
"346 674 CURVE"
);
},
{
closed = 1;
nodes = (
"1008 674 LINE",
"1008 949 OFFCURVE",
"1167 1072 OFFCURVE",
"1334 1072 CURVE SMOOTH",
"1493 1072 OFFCURVE",
"1586 995 OFFCURVE",
"1586 812 CURVE SMOOTH",
"1586 0 LINE",
"1634 0 LINE",
"1634 812 LINE SMOOTH",
"1634 1031 OFFCURVE",
"1516 1116 OFFCURVE",
"1336 1116 CURVE SMOOTH",
"1143 1116 OFFCURVE",
"972 982 OFFCURVE",
"972 674 CURVE"
);
}
);
width = 1914;
},
{
hints = (
{
origin = "{0, 5}";
scale = "{-0.9, 1}";
type = Corner;
name = _corner.Serif;
},
{
origin = "{0, 0}";
type = Corner;
name = _corner.Serif;
options = 1;
},
{
origin = "{0, 1}";
scale = "{-0.88, 1}";
type = Corner;
name = _corner.Serif;
},
{
origin = "{1, 7}";
scale = "{0.88, 1}";
type = Corner;
name = _corner.Serif;
},
{
origin = "{1, 8}";
scale = "{-0.88, 1}";
type = Corner;
name = _corner.Serif;
options = 1;
},
{
origin = "{2, 7}";
scale = "{0.88, 1}";
type = Corner;
name = _corner.Serif;
options = 1;
},
{
origin = "{2, 8}";
scale = "{-0.86, 1}";
type = Corner;
name = _corner.Serif;
}
);
layerId = "1E61A082-F045-49A7-AB52-DD1B03FD9B54";
paths = (
{
closed = 1;
nodes = (
"284 0 LINE",
"332 0 LINE",
"332 764 LINE",
"328 764 LINE",
"328 1080 LINE",
"284 1080 LINE"
);
},
{
closed = 1;
nodes = (
"332 704 LINE",
"332 948 OFFCURVE",
"471 1058 OFFCURVE",
"618 1058 CURVE SMOOTH",
"760 1058 OFFCURVE",
"838 989 OFFCURVE",
"838 844 CURVE SMOOTH",
"838 0 LINE",
"886 0 LINE",
"886 844 LINE SMOOTH",
"886 1021 OFFCURVE",
"778 1096 OFFCURVE",
"620 1096 CURVE SMOOTH",
"448 1096 OFFCURVE",
"305 977 OFFCURVE",
"305 704 CURVE"
);
},
{
closed = 1;
nodes = (
"886 704 LINE",
"886 948 OFFCURVE",
"1025 1058 OFFCURVE",
"1172 1058 CURVE SMOOTH",
"1314 1058 OFFCURVE",
"1392 989 OFFCURVE",
"1392 844 CURVE SMOOTH",
"1392 0 LINE",
"1440 0 LINE",
"1440 844 LINE SMOOTH",
"1440 1021 OFFCURVE",
"1334 1096 OFFCURVE",
"1174 1096 CURVE SMOOTH",
"1002 1096 OFFCURVE",
"859 977 OFFCURVE",
"859 704 CURVE"
);
}
);
width = 1670;
},
{
hints = (
{
origin = "{0, 0}";
scale = "{1, 0.98}";
type = Corner;
name = _corner.Serif;
},
{
origin = "{0, 1}";
scale = "{-0.62, 0.98}";
type = Corner;
name = _corner.Serif;
options = 1;
},
{
origin = "{0, 5}";
scale = "{-0.96, 0.98}";
type = Corner;
name = _corner.Serif;
},
{
origin = "{1, 7}";
scale = "{0.62, 0.98}";
type = Corner;
name = _corner.Serif;
options = 1;
},
{
origin = "{1, 8}";
scale = "{-0.62, 0.98}";
type = Corner;
name = _corner.Serif;
},
{
origin = "{2, 7}";
scale = "{0.62, 0.98}";
type = Corner;
name = _corner.Serif;
options = 1;
},
{
origin = "{2, 8}";
scale = "{-0.76, 0.98}";
type = Corner;
name = _corner.Serif;
}
);
layerId = "219068EA-2B9B-40DC-949E-B60449C01B8A";
paths = (
{
closed = 1;
nodes = (
"220 0 LINE",
"614 0 LINE",
"614 776 LINE",
"564 768 LINE",
"564 1160 LINE",
"220 1160 LINE"
);
},
{
closed = 1;
nodes = (
"614 719 LINE",
"614 859 OFFCURVE",
"686 908 OFFCURVE",
"769 908 CURVE SMOOTH",
"848 908 OFFCURVE",
"900 860 OFFCURVE",
"900 765 CURVE SMOOTH",
"900 0 LINE",
"1294 0 LINE",
"1294 786 LINE SMOOTH",
"1294 1061 OFFCURVE",
"1139 1182 OFFCURVE",
"925 1182 CURVE SMOOTH",
"623 1182 OFFCURVE",
"543 999 OFFCURVE",
"543 717 CURVE"
);
},
{
closed = 1;
nodes = (
"1294 719 LINE",
"1294 859 OFFCURVE",
"1366 908 OFFCURVE",
"1449 908 CURVE SMOOTH",
"1528 908 OFFCURVE",
"1580 860 OFFCURVE",
"1580 765 CURVE SMOOTH",
"1580 0 LINE",
"1974 0 LINE",
"1974 786 LINE SMOOTH",
"1974 1061 OFFCURVE",
"1821 1182 OFFCURVE",
"1611 1182 CURVE SMOOTH",
"1313 1182 OFFCURVE",
"1235 999 OFFCURVE",
"1235 717 CURVE"
);
}
);
width = 2138;
},
{
hints = (
{
origin = "{0, 0}";
scale = "{1, 0.98}";
type = Corner;
name = _corner.Serif;
},
{
origin = "{0, 1}";
scale = "{-0.6, 0.98}";
type = Corner;
name = _corner.Serif;
options = 1;
},
{
origin = "{0, 5}";
scale = "{-0.96, 0.98}";
type = Corner;
name = _corner.Serif;
},
{
origin = "{1, 7}";
scale = "{0.6, 0.98}";
type = Corner;
name = _corner.Serif;
options = 1;
},
{
origin = "{1, 8}";
scale = "{-0.6, 0.98}";
type = Corner;
name = _corner.Serif;
},
{
origin = "{2, 7}";
scale = "{0.6, 0.98}";
type = Corner;
name = _corner.Serif;
options = 1;
},
{
origin = "{2, 8}";
scale = "{-0.76, 0.98}";
type = Corner;
name = _corner.Serif;
}
);
layerId = "0C29AA02-E021-4BD1-A2C4-87F681D64C35";
paths = (
{
closed = 1;
nodes = (
"204 0 LINE",
"598 0 LINE",
"598 766 LINE",
"548 758 LINE",
"548 1140 LINE",
"204 1140 LINE"
);
},
{
closed = 1;
nodes = (
"598 739 LINE",
"598 872 OFFCURVE",
"665 918 OFFCURVE",
"743 918 CURVE SMOOTH",
"816 918 OFFCURVE",
"864 873 OFFCURVE",
"864 785 CURVE SMOOTH",
"864 0 LINE",
"1258 0 LINE",
"1258 786 LINE SMOOTH",
"1258 1047 OFFCURVE",
"1107 1162 OFFCURVE",
"899 1162 CURVE SMOOTH",
"607 1162 OFFCURVE",
"529 995 OFFCURVE",
"529 737 CURVE"
);
},
{
closed = 1;
nodes = (
"1258 739 LINE",
"1258 872 OFFCURVE",
"1325 918 OFFCURVE",
"1403 918 CURVE SMOOTH",
"1476 918 OFFCURVE",
"1524 873 OFFCURVE",
"1524 785 CURVE SMOOTH",
"1524 0 LINE",
"1918 0 LINE",
"1918 776 LINE SMOOTH",
"1918 1044 OFFCURVE",
"1770 1162 OFFCURVE",
"1567 1162 CURVE SMOOTH",
"1277 1162 OFFCURVE",
"1201 995 OFFCURVE",
"1201 737 CURVE"
);
}
);
width = 2076;
}
);
leftKerningGroup = n;
leftMetricsKey = n;
rightKerningGroup = n;
rightMetricsKey = n;
unicode = 006D;
},
{
glyphname = n;
lastChange = "2020-09-22 10:45:45 +0000";
layers = (
{
hints = (
{
origin = "{0, 0}";
type = Corner;
name = _corner.Serif;
},
{
origin = "{0, 1}";
scale = "{-1, 1}";
type = Corner;
name = _corner.Serif;
options = 1;
},
{
origin = "{1, 7}";
type = Corner;
name = _corner.Serif;
options = 1;
},
{
origin = "{1, 8}";
scale = "{-0.86, 1}";
type = Corner;
name = _corner.Serif;
},
{
origin = "{0, 5}";
scale = "{-0.9, 1}";
type = Corner;
name = _corner.Serif;
}
);
layerId = "CA54B7DC-FBBB-40FE-ACF3-AABDD76D6A7B";
paths = (
{
closed = 1;
nodes = (
"334 0 LINE",
"382 0 LINE",
"382 710 LINE",
"378 710 LINE",
"378 1100 LINE",
"334 1100 LINE"
);
},
{
closed = 1;
nodes = (
"382 552 LINE",
"382 911 OFFCURVE",
"588 1072 OFFCURVE",
"808 1072 CURVE SMOOTH",
"1000 1072 OFFCURVE",
"1120 981 OFFCURVE",
"1120 764 CURVE SMOOTH",
"1120 0 LINE",
"1168 0 LINE",
"1168 764 LINE SMOOTH",
"1168 1018 OFFCURVE",
"1020 1116 OFFCURVE",
"810 1116 CURVE SMOOTH",
"568 1116 OFFCURVE",
"346 954 OFFCURVE",
"346 552 CURVE"
);
}
);
width = 1448;
},
{
hints = (
{
origin = "{0, 0}";
type = Corner;
name = _corner.Serif;
},
{
origin = "{0, 1}";
scale = "{-1.22, 1}";
type = Corner;
name = _corner.Serif;
},
{
origin = "{1, 7}";
scale = "{1.22, 1}";
type = Corner;
name = _corner.Serif;
},
{
origin = "{1, 8}";
scale = "{-0.86, 1}";
type = Corner;
name = _corner.Serif;
},
{
origin = "{0, 5}";
scale = "{-0.9, 1}";
type = Corner;
name = _corner.Serif;
}
);
layerId = "1E61A082-F045-49A7-AB52-DD1B03FD9B54";
paths = (
{
closed = 1;
nodes = (
"284 0 LINE",
"332 0 LINE",
"332 740 LINE",
"328 740 LINE",
"328 1080 LINE",
"284 1080 LINE"
);
},
{
closed = 1;
nodes = (
"332 582 LINE",
"332 908 OFFCURVE",
"523 1058 OFFCURVE",
"728 1058 CURVE SMOOTH",
"901 1058 OFFCURVE",
"1006 967 OFFCURVE",
"1006 774 CURVE SMOOTH",
"1006 0 LINE",
"1054 0 LINE",
"1054 774 LINE SMOOTH",
"1054 998 OFFCURVE",
"920 1096 OFFCURVE",
"730 1096 CURVE SMOOTH",
"503 1096 OFFCURVE",
"305 952 OFFCURVE",
"305 582 CURVE"
);
}
);
width = 1284;
},
{
hints = (
{
origin = "{0, 0}";
scale = "{1, 0.98}";
type = Corner;
name = _corner.Serif;
},
{
origin = "{0, 1}";
scale = "{-0.66, 0.98}";
type = Corner;
name = _corner.Serif;
options = 1;
},
{
origin = "{1, 7}";
scale = "{0.66, 0.98}";
type = Corner;
name = _corner.Serif;
options = 1;
},
{
origin = "{1, 8}";
scale = "{-0.76, 0.98}";
type = Corner;
name = _corner.Serif;
},
{
origin = "{0, 5}";
scale = "{-0.96, 0.98}";
type = Corner;
name = _corner.Serif;
}
);
layerId = "219068EA-2B9B-40DC-949E-B60449C01B8A";
paths = (
{
closed = 1;
nodes = (
"220 0 LINE",
"620 0 LINE",
"620 769 LINE",
"570 761 LINE",
"570 1161 LINE",
"220 1161 LINE"
);
},
{
closed = 1;
nodes = (
"620 712 LINE",
"620 858 OFFCURVE",
"696 909 OFFCURVE",
"783 909 CURVE SMOOTH",
"867 909 OFFCURVE",
"922 858 OFFCURVE",
"922 758 CURVE SMOOTH",
"922 0 LINE",
"1322 0 LINE",
"1322 779 LINE SMOOTH",
"1322 1060 OFFCURVE",
"1161 1183 OFFCURVE",
"939 1183 CURVE SMOOTH",
"627 1183 OFFCURVE",
"545 997 OFFCURVE",
"545 710 CURVE"
);
}
);
width = 1486;
},
{
hints = (
{
origin = "{0, 0}";
scale = "{1, 0.98}";
type = Corner;
name = _corner.Serif;
},
{
origin = "{0, 1}";
scale = "{-0.64, 0.98}";
type = Corner;
name = _corner.Serif;
options = 1;
},
{
origin = "{0, 5}";
scale = "{-0.96, 0.98}";
type = Corner;
name = _corner.Serif;
},
{
origin = "{1, 7}";
scale = "{0.64, 0.98}";
type = Corner;
name = _corner.Serif;
options = 1;
},
{
origin = "{1, 8}";
scale = "{-0.76, 0.98}";
type = Corner;
name = _corner.Serif;
}
);
layerId = "0C29AA02-E021-4BD1-A2C4-87F681D64C35";
paths = (
{
closed = 1;
nodes = (
"204 0 LINE",
"604 0 LINE",
"604 800 LINE",
"554 792 LINE",
"554 1140 LINE",
"204 1140 LINE"
);
},
{
closed = 1;
nodes = (
"604 743 LINE",
"604 874 OFFCURVE",
"673 920 OFFCURVE",
"752 920 CURVE SMOOTH",
"827 920 OFFCURVE",
"876 876 OFFCURVE",
"876 789 CURVE SMOOTH",
"876 0 LINE",
"1276 0 LINE",
"1276 789 LINE SMOOTH",
"1276 1048 OFFCURVE",
"1121 1162 OFFCURVE",
"908 1162 CURVE SMOOTH",
"610 1162 OFFCURVE",
"531 997 OFFCURVE",
"531 741 CURVE"
);
}
);
width = 1434;
}
);
leftKerningGroup = n;
rightKerningGroup = n;
unicode = 006E;
},
{
glyphname = o;
lastChange = "2020-09-22 09:23:55 +0000";
layers = (
{
layerId = "CA54B7DC-FBBB-40FE-ACF3-AABDD76D6A7B";
paths = (
{
closed = 1;
nodes = (
"964 -16 OFFCURVE",
"1184 190 OFFCURVE",
"1184 550 CURVE SMOOTH",
"1184 910 OFFCURVE",
"964 1116 OFFCURVE",
"654 1116 CURVE SMOOTH",
"344 1116 OFFCURVE",
"124 910 OFFCURVE",
"124 550 CURVE SMOOTH",
"124 190 OFFCURVE",
"344 -16 OFFCURVE",
"654 -16 CURVE SMOOTH"
);
},
{
closed = 1;
nodes = (
"370 28 OFFCURVE",
"174 224 OFFCURVE",
"174 550 CURVE SMOOTH",
"174 876 OFFCURVE",
"370 1072 OFFCURVE",
"654 1072 CURVE SMOOTH",
"938 1072 OFFCURVE",
"1134 876 OFFCURVE",
"1134 550 CURVE SMOOTH",
"1134 224 OFFCURVE",
"938 28 OFFCURVE",
"654 28 CURVE SMOOTH"
);
}
);
width = 1308;
},
{
layerId = "1E61A082-F045-49A7-AB52-DD1B03FD9B54";
paths = (
{
closed = 1;
nodes = (
"900 -16 OFFCURVE",
"1106 186 OFFCURVE",
"1106 540 CURVE SMOOTH",
"1106 894 OFFCURVE",
"900 1096 OFFCURVE",
"608 1096 CURVE SMOOTH",
"316 1096 OFFCURVE",
"110 894 OFFCURVE",
"110 540 CURVE SMOOTH",
"110 186 OFFCURVE",
"316 -16 OFFCURVE",
"608 -16 CURVE SMOOTH"
);
},
{
closed = 1;
nodes = (
"342 22 OFFCURVE",
"160 217 OFFCURVE",
"160 540 CURVE SMOOTH",
"160 863 OFFCURVE",
"342 1058 OFFCURVE",
"608 1058 CURVE SMOOTH",
"874 1058 OFFCURVE",
"1056 863 OFFCURVE",
"1056 540 CURVE SMOOTH",
"1056 217 OFFCURVE",
"874 22 OFFCURVE",
"608 22 CURVE SMOOTH"
);
}
);
width = 1216;
},
{
layerId = "219068EA-2B9B-40DC-949E-B60449C01B8A";
paths = (
{
closed = 1;
nodes = (
"1131 -22 OFFCURVE",
"1423 192 OFFCURVE",
"1423 580 CURVE SMOOTH",
"1423 967 OFFCURVE",
"1131 1182 OFFCURVE",
"741 1182 CURVE SMOOTH",
"351 1182 OFFCURVE",
"58 967 OFFCURVE",
"58 580 CURVE SMOOTH",
"58 192 OFFCURVE",
"351 -22 OFFCURVE",
"741 -22 CURVE SMOOTH"
);
},
{
closed = 1;
nodes = (
"593 206 OFFCURVE",
"504 343 OFFCURVE",
"504 580 CURVE SMOOTH",
"504 813 OFFCURVE",
"593 954 OFFCURVE",
"741 954 CURVE SMOOTH",
"888 954 OFFCURVE",
"978 819 OFFCURVE",
"978 596 CURVE SMOOTH",
"978 350 OFFCURVE",
"888 206 OFFCURVE",
"741 206 CURVE SMOOTH"
);
}
);
width = 1481;
},
{
layerId = "0C29AA02-E021-4BD1-A2C4-87F681D64C35";
paths = (
{
closed = 1;
nodes = (
"1074 -22 OFFCURVE",
"1339 197 OFFCURVE",
"1339 569 CURVE SMOOTH",
"1339 940 OFFCURVE",
"1074 1162 OFFCURVE",
"701 1162 CURVE SMOOTH",
"328 1162 OFFCURVE",
"62 941 OFFCURVE",
"62 570 CURVE SMOOTH",
"62 198 OFFCURVE",
"328 -22 OFFCURVE",
"701 -22 CURVE SMOOTH"
);
},
{
closed = 1;
nodes = (
"573 162 OFFCURVE",
"508 307 OFFCURVE",
"508 570 CURVE SMOOTH",
"508 827 OFFCURVE",
"573 978 OFFCURVE",
"701 978 CURVE SMOOTH",
"829 978 OFFCURVE",
"894 832 OFFCURVE",
"894 585 CURVE SMOOTH",
"894 313 OFFCURVE",
"829 162 OFFCURVE",
"701 162 CURVE SMOOTH"
);
}
);
width = 1401;
}
);
leftKerningGroup = o;
rightKerningGroup = o;
unicode = 006F;
},
{
glyphname = p;
lastChange = "2020-09-22 09:23:58 +0000";
layers = (
{
hints = (
{
origin = "{0, 4}";
scale = "{-0.9, 1}";
type = Corner;
name = _corner.Serif;
},
{
origin = "{0, 5}";
type = Corner;
name = _corner.Serif;
options = 1;
},
{
origin = "{0, 6}";
scale = "{-1.2, 1}";
type = Corner;
name = _corner.Serif;
}
);
layerId = "CA54B7DC-FBBB-40FE-ACF3-AABDD76D6A7B";
paths = (
{
closed = 1;
nodes = (
"356 334 LINE",
"326 550 LINE",
"352 746 LINE",
"352 1100 LINE",
"308 1100 LINE",
"308 -420 LINE",
"356 -420 LINE"
);
},
{
closed = 1;
nodes = (
"1106 -16 OFFCURVE",
"1316 198 OFFCURVE",
"1316 550 CURVE SMOOTH",
"1316 902 OFFCURVE",
"1106 1116 OFFCURVE",
"814 1116 CURVE SMOOTH",
"502 1116 OFFCURVE",
"312 902 OFFCURVE",
"312 551 CURVE",
"312 549 LINE",
"312 198 OFFCURVE",
"502 -16 OFFCURVE",
"814 -16 CURVE SMOOTH"
);
},
{
closed = 1;
nodes = (
"544 28 OFFCURVE",
"352 223 OFFCURVE",
"352 550 CURVE SMOOTH",
"352 877 OFFCURVE",
"544 1072 OFFCURVE",
"814 1072 CURVE SMOOTH",
"1080 1072 OFFCURVE",
"1268 877 OFFCURVE",
"1268 550 CURVE SMOOTH",
"1268 223 OFFCURVE",
"1080 28 OFFCURVE",
"814 28 CURVE SMOOTH"
);
}
);
width = 1440;
},
{
hints = (
{
origin = "{0, 4}";
scale = "{-0.9, 1}";
type = Corner;
name = _corner.Serif;
options = 1;
},
{
origin = "{0, 5}";
type = Corner;
name = _corner.Serif;
},
{
origin = "{0, 6}";
scale = "{-1.4, 1}";
type = Corner;
name = _corner.Serif;
options = 1;
}
);
layerId = "1E61A082-F045-49A7-AB52-DD1B03FD9B54";
paths = (
{
closed = 1;
nodes = (
"312 324 LINE",
"296 540 LINE",
"308 736 LINE",
"308 1080 LINE",
"264 1080 LINE",
"264 -420 LINE",
"312 -420 LINE"
);
},
{
closed = 1;
nodes = (
"1014 -16 OFFCURVE",
"1212 194 OFFCURVE",
"1212 540 CURVE SMOOTH",
"1212 886 OFFCURVE",
"1014 1096 OFFCURVE",
"740 1096 CURVE SMOOTH",
"447 1096 OFFCURVE",
"282 887 OFFCURVE",
"282 541 CURVE",
"282 539 LINE",
"282 193 OFFCURVE",
"446 -16 OFFCURVE",
"740 -16 CURVE SMOOTH"
);
},
{
closed = 1;
nodes = (
"488 22 OFFCURVE",
"308 215 OFFCURVE",
"308 540 CURVE SMOOTH",
"308 865 OFFCURVE",
"488 1058 OFFCURVE",
"740 1058 CURVE SMOOTH",
"988 1058 OFFCURVE",
"1164 865 OFFCURVE",
"1164 540 CURVE SMOOTH",
"1164 215 OFFCURVE",
"988 22 OFFCURVE",
"740 22 CURVE SMOOTH"
);
}
);
width = 1322;
},
{
hints = (
{
origin = "{0, 4}";
scale = "{-0.96, 0.98}";
type = Corner;
name = _corner.Serif;
},
{
origin = "{0, 5}";
scale = "{1, 0.98}";
type = Corner;
name = _corner.Serif;
options = 1;
},
{
origin = "{0, 6}";
scale = "{-1.2, 0.98}";
type = Corner;
name = _corner.Serif;
}
);
layerId = "219068EA-2B9B-40DC-949E-B60449C01B8A";
paths = (
{
closed = 1;
nodes = (
"606 334 LINE",
"551 581 LINE",
"576 746 LINE",
"576 1160 LINE",
"206 1160 LINE",
"206 -420 LINE",
"606 -420 LINE"
);
},
{
closed = 1;
nodes = (
"1277 -16 OFFCURVE",
"1512 208 OFFCURVE",
"1512 580 CURVE SMOOTH",
"1512 952 OFFCURVE",
"1277 1176 OFFCURVE",
"963 1176 CURVE SMOOTH",
"641 1176 OFFCURVE",
"489 932 OFFCURVE",
"489 580 CURVE",
"517 580 LINE",
"517 218 OFFCURVE",
"641 -16 OFFCURVE",
"967 -16 CURVE SMOOTH"
);
},
{
closed = 1;
nodes = (
"676 236 OFFCURVE",
"586 354 OFFCURVE",
"586 580 CURVE SMOOTH",
"586 806 OFFCURVE",
"676 924 OFFCURVE",
"830 924 CURVE SMOOTH",
"982 924 OFFCURVE",
"1072 806 OFFCURVE",
"1072 580 CURVE SMOOTH",
"1072 354 OFFCURVE",
"982 236 OFFCURVE",
"830 236 CURVE SMOOTH"
);
}
);
width = 1570;
},
{
hints = (
{
origin = "{0, 4}";
scale = "{-0.96, 0.98}";
type = Corner;
name = _corner.Serif;
},
{
origin = "{0, 5}";
scale = "{1, 0.98}";
type = Corner;
name = _corner.Serif;
options = 1;
},
{
origin = "{0, 6}";
scale = "{-1.2, 0.98}";
type = Corner;
name = _corner.Serif;
}
);
layerId = "0C29AA02-E021-4BD1-A2C4-87F681D64C35";
paths = (
{
closed = 1;
nodes = (
"596 334 LINE",
"541 581 LINE",
"566 746 LINE",
"566 1140 LINE",
"196 1140 LINE",
"196 -420 LINE",
"596 -420 LINE"
);
},
{
closed = 1;
nodes = (
"1216 -14 OFFCURVE",
"1430 205 OFFCURVE",
"1430 570 CURVE SMOOTH",
"1430 935 OFFCURVE",
"1216 1154 OFFCURVE",
"923 1154 CURVE SMOOTH",
"602 1154 OFFCURVE",
"473 905 OFFCURVE",
"475 570 CURVE",
"497 570 LINE",
"497 225 OFFCURVE",
"602 -14 OFFCURVE",
"927 -14 CURVE SMOOTH"
);
},
{
closed = 1;
nodes = (
"650 206 OFFCURVE",
"576 331 OFFCURVE",
"576 570 CURVE SMOOTH",
"576 809 OFFCURVE",
"650 934 OFFCURVE",
"784 934 CURVE SMOOTH",
"916 934 OFFCURVE",
"990 809 OFFCURVE",
"990 570 CURVE SMOOTH",
"990 331 OFFCURVE",
"916 206 OFFCURVE",
"784 206 CURVE SMOOTH"
);
}
);
width = 1492;
}
);
leftKerningGroup = p;
leftMetricsKey = l;
rightKerningGroup = o;
rightMetricsKey = o;
unicode = 0070;
},
{
glyphname = q;
lastChange = "2020-09-22 09:23:58 +0000";
layers = (
{
hints = (
{
origin = "{0, 6}";
scale = "{1.2, 1}";
type = Corner;
name = _corner.Serif;
},
{
origin = "{0, 0}";
scale = "{-0.9, 1}";
type = Corner;
name = _corner.Serif;
options = 1;
}
);
layerId = "CA54B7DC-FBBB-40FE-ACF3-AABDD76D6A7B";
paths = (
{
closed = 1;
nodes = (
"1132 -420 LINE",
"1132 1100 LINE",
"1088 1100 LINE",
"1088 750 LINE",
"1114 550 LINE",
"1084 334 LINE",
"1084 -420 LINE"
);
},
{
closed = 1;
nodes = (
"938 -16 OFFCURVE",
"1128 198 OFFCURVE",
"1128 549 CURVE",
"1128 551 LINE",
"1128 902 OFFCURVE",
"938 1116 OFFCURVE",
"626 1116 CURVE SMOOTH",
"334 1116 OFFCURVE",
"124 902 OFFCURVE",
"124 550 CURVE SMOOTH",
"124 198 OFFCURVE",
"334 -16 OFFCURVE",
"626 -16 CURVE SMOOTH"
);
},
{
closed = 1;
nodes = (
"360 28 OFFCURVE",
"172 223 OFFCURVE",
"172 550 CURVE SMOOTH",
"172 877 OFFCURVE",
"360 1072 OFFCURVE",
"626 1072 CURVE SMOOTH",
"896 1072 OFFCURVE",
"1088 877 OFFCURVE",
"1088 550 CURVE SMOOTH",
"1088 223 OFFCURVE",
"896 28 OFFCURVE",
"626 28 CURVE SMOOTH"
);
}
);
width = 1371;
},
{
hints = (
{
origin = "{0, 6}";
scale = "{1.4, 1}";
type = Corner;
name = _corner.Serif;
},
{
origin = "{0, 0}";
scale = "{-0.9, 1}";
type = Corner;
name = _corner.Serif;
options = 1;
}
);
layerId = "1E61A082-F045-49A7-AB52-DD1B03FD9B54";
paths = (
{
closed = 1;
nodes = (
"1058 -420 LINE",
"1058 1080 LINE",
"1014 1080 LINE",
"1014 740 LINE",
"1026 540 LINE",
"1010 324 LINE",
"1010 -420 LINE"
);
},
{
closed = 1;
nodes = (
"876 -16 OFFCURVE",
"1040 193 OFFCURVE",
"1040 539 CURVE",
"1040 541 LINE",
"1040 887 OFFCURVE",
"875 1096 OFFCURVE",
"582 1096 CURVE SMOOTH",
"308 1096 OFFCURVE",
"110 886 OFFCURVE",
"110 540 CURVE SMOOTH",
"110 194 OFFCURVE",
"308 -16 OFFCURVE",
"582 -16 CURVE SMOOTH"
);
},
{
closed = 1;
nodes = (
"334 22 OFFCURVE",
"158 215 OFFCURVE",
"158 540 CURVE SMOOTH",
"158 865 OFFCURVE",
"334 1058 OFFCURVE",
"582 1058 CURVE SMOOTH",
"834 1058 OFFCURVE",
"1014 865 OFFCURVE",
"1014 540 CURVE SMOOTH",
"1014 215 OFFCURVE",
"834 22 OFFCURVE",
"582 22 CURVE SMOOTH"
);
}
);
width = 1273;
},
{
hints = (
{
origin = "{0, 6}";
scale = "{1.2, 1}";
type = Corner;
name = _corner.Serif;
},
{
origin = "{0, 0}";
scale = "{-0.9, 1}";
type = Corner;
name = _corner.Serif;
options = 1;
}
);
layerId = "219068EA-2B9B-40DC-949E-B60449C01B8A";
paths = (
{
closed = 1;
nodes = (
"1364 -420 LINE",
"1364 1160 LINE",
"994 1160 LINE",
"994 744 LINE",
"1011 581 LINE",
"964 334 LINE",
"964 -420 LINE"
);
},
{
closed = 1;
nodes = (
"929 -16 OFFCURVE",
"1053 218 OFFCURVE",
"1053 580 CURVE",
"1081 580 LINE",
"1081 932 OFFCURVE",
"929 1176 OFFCURVE",
"607 1176 CURVE SMOOTH",
"293 1176 OFFCURVE",
"58 952 OFFCURVE",
"58 580 CURVE SMOOTH",
"58 208 OFFCURVE",
"293 -16 OFFCURVE",
"603 -16 CURVE SMOOTH"
);
},
{
closed = 1;
nodes = (
"588 236 OFFCURVE",
"498 354 OFFCURVE",
"498 580 CURVE SMOOTH",
"498 806 OFFCURVE",
"588 924 OFFCURVE",
"740 924 CURVE SMOOTH",
"894 924 OFFCURVE",
"984 806 OFFCURVE",
"984 580 CURVE SMOOTH",
"984 354 OFFCURVE",
"894 236 OFFCURVE",
"740 236 CURVE SMOOTH"
);
}
);
width = 1535;
},
{
hints = (
{
origin = "{0, 0}";
scale = "{-0.9, 1}";
type = Corner;
name = _corner.Serif;
options = 1;
},
{
origin = "{0, 6}";
scale = "{1.2, 1}";
type = Corner;
name = _corner.Serif;
}
);
layerId = "0C29AA02-E021-4BD1-A2C4-87F681D64C35";
paths = (
{
closed = 1;
nodes = (
"1296 -420 LINE",
"1296 1140 LINE",
"926 1140 LINE",
"926 744 LINE",
"943 581 LINE",
"896 334 LINE",
"896 -420 LINE"
);
},
{
closed = 1;
nodes = (
"890 -14 OFFCURVE",
"995 225 OFFCURVE",
"995 570 CURVE",
"1017 570 LINE",
"1019 905 OFFCURVE",
"890 1154 OFFCURVE",
"569 1154 CURVE SMOOTH",
"276 1154 OFFCURVE",
"62 935 OFFCURVE",
"62 570 CURVE SMOOTH",
"62 205 OFFCURVE",
"276 -14 OFFCURVE",
"565 -14 CURVE SMOOTH"
);
},
{
closed = 1;
nodes = (
"576 206 OFFCURVE",
"502 331 OFFCURVE",
"502 570 CURVE SMOOTH",
"502 809 OFFCURVE",
"576 934 OFFCURVE",
"708 934 CURVE SMOOTH",
"842 934 OFFCURVE",
"916 809 OFFCURVE",
"916 570 CURVE SMOOTH",
"916 331 OFFCURVE",
"842 206 OFFCURVE",
"708 206 CURVE SMOOTH"
);
}
);
width = 1370;
}
);
leftKerningGroup = o;
leftMetricsKey = o;
rightKerningGroup = q;
unicode = 0071;
},
{
glyphname = r;
lastChange = "2020-09-22 09:24:05 +0000";
layers = (
{
hints = (
{
origin = "{0, 0}";
type = Corner;
name = _corner.Serif;
},
{
origin = "{0, 1}";
scale = "{-1.4, 1}";
type = Corner;
name = _corner.Serif;
options = 1;
},
{
origin = "{0, 5}";
scale = "{-0.9, 1}";
type = Corner;
name = _corner.Serif;
}
);
layerId = "CA54B7DC-FBBB-40FE-ACF3-AABDD76D6A7B";
paths = (
{
closed = 1;
nodes = (
"334 0 LINE",
"382 0 LINE",
"382 740 LINE",
"374 740 LINE",
"374 1100 LINE",
"334 1100 LINE"
);
},
{
closed = 1;
nodes = (
"492 1116 OFFCURVE",
"348 943 OFFCURVE",
"348 646 CURVE",
"382 646 LINE",
"382 919 OFFCURVE",
"526 1072 OFFCURVE",
"743 1072 CURVE SMOOTH",
"900 1072 OFFCURVE",
"986 1002 OFFCURVE",
"982 873 CURVE",
"1001 889 LINE",
"944 895 OFFCURVE",
"901 874 OFFCURVE",
"901 828 CURVE SMOOTH",
"901 796 OFFCURVE",
"925 775 OFFCURVE",
"957 775 CURVE SMOOTH",
"1001 775 OFFCURVE",
"1031 812 OFFCURVE",
"1031 869 CURVE SMOOTH",
"1031 1037 OFFCURVE",
"915 1116 OFFCURVE",
"743 1116 CURVE SMOOTH"
);
}
);
width = 1150;
},
{
hints = (
{
origin = "{0, 5}";
scale = "{-0.9, 1}";
type = Corner;
name = _corner.Serif;
},
{
origin = "{0, 0}";
type = Corner;
name = _corner.Serif;
},
{
origin = "{0, 1}";
scale = "{-1.4, 1}";
type = Corner;
name = _corner.Serif;
options = 1;
}
);
layerId = "1E61A082-F045-49A7-AB52-DD1B03FD9B54";
paths = (
{
closed = 1;
nodes = (
"284 0 LINE",
"332 0 LINE",
"332 720 LINE",
"324 720 LINE",
"324 1080 LINE",
"284 1080 LINE"
);
},
{
closed = 1;
nodes = (
"420 1096 OFFCURVE",
"304 923 OFFCURVE",
"304 626 CURVE",
"332 626 LINE",
"332 903 OFFCURVE",
"447 1058 OFFCURVE",
"633 1058 CURVE SMOOTH",
"773 1058 OFFCURVE",
"849 996 OFFCURVE",
"846 883 CURVE",
"865 899 LINE",
"805 905 OFFCURVE",
"761 884 OFFCURVE",
"761 838 CURVE SMOOTH",
"761 806 OFFCURVE",
"785 785 OFFCURVE",
"817 785 CURVE SMOOTH",
"861 785 OFFCURVE",
"891 822 OFFCURVE",
"891 879 CURVE SMOOTH",
"891 1026 OFFCURVE",
"787 1096 OFFCURVE",
"633 1096 CURVE SMOOTH"
);
}
);
width = 963;
},
{
hints = (
{
origin = "{0, 0}";
scale = "{1, 0.98}";
type = Corner;
name = _corner.Serif;
},
{
origin = "{0, 1}";
scale = "{-1.16, 0.98}";
type = Corner;
name = _corner.Serif;
options = 1;
},
{
origin = "{0, 5}";
scale = "{-0.96, 0.98}";
type = Corner;
name = _corner.Serif;
}
);
layerId = "219068EA-2B9B-40DC-949E-B60449C01B8A";
paths = (
{
closed = 1;
nodes = (
"220 0 LINE",
"620 0 LINE",
"620 769 LINE",
"580 761 LINE",
"580 1160 LINE",
"220 1160 LINE"
);
},
{
closed = 1;
nodes = (
"727 1182 OFFCURVE",
"529 1070 OFFCURVE",
"527 737 CURVE",
"620 737 LINE",
"620 893 OFFCURVE",
"720 983 OFFCURVE",
"850 983 CURVE SMOOTH",
"923 983 OFFCURVE",
"964 958 OFFCURVE",
"995 929 CURVE",
"995 1029 LINE",
"885 1029 OFFCURVE",
"817 977 OFFCURVE",
"817 891 CURVE SMOOTH",
"817 805 OFFCURVE",
"885 753 OFFCURVE",
"995 753 CURVE SMOOTH",
"1120 753 OFFCURVE",
"1209 831 OFFCURVE",
"1209 966 CURVE SMOOTH",
"1209 1104 OFFCURVE",
"1095 1182 OFFCURVE",
"929 1182 CURVE SMOOTH"
);
}
);
width = 1219;
},
{
hints = (
{
origin = "{0, 0}";
scale = "{1, 0.98}";
type = Corner;
name = _corner.Serif;
},
{
origin = "{0, 1}";
scale = "{-1.32, 0.98}";
type = Corner;
name = _corner.Serif;
options = 1;
},
{
origin = "{0, 5}";
scale = "{-0.96, 0.98}";
type = Corner;
name = _corner.Serif;
}
);
layerId = "0C29AA02-E021-4BD1-A2C4-87F681D64C35";
paths = (
{
closed = 1;
nodes = (
"204 0 LINE",
"604 0 LINE",
"604 748 LINE",
"564 740 LINE",
"564 1140 LINE",
"204 1140 LINE"
);
},
{
closed = 1;
nodes = (
"697 1162 OFFCURVE",
"514 1054 OFFCURVE",
"510 707 CURVE",
"604 707 LINE",
"604 897 OFFCURVE",
"704 975 OFFCURVE",
"800 975 CURVE SMOOTH",
"860 975 OFFCURVE",
"894 949 OFFCURVE",
"919 919 CURVE",
"929 999 LINE",
"825 999 OFFCURVE",
"761 955 OFFCURVE",
"761 881 CURVE SMOOTH",
"761 801 OFFCURVE",
"825 753 OFFCURVE",
"929 753 CURVE SMOOTH",
"1060 753 OFFCURVE",
"1153 829 OFFCURVE",
"1153 956 CURVE SMOOTH",
"1153 1085 OFFCURVE",
"1048 1162 OFFCURVE",
"897 1162 CURVE SMOOTH"
);
}
);
width = 1161;
}
);
leftKerningGroup = n;
leftMetricsKey = n;
rightKerningGroup = r;
unicode = 0072;
},
{
glyphname = s;
lastChange = "2020-09-22 09:24:44 +0000";
layers = (
{
layerId = "CA54B7DC-FBBB-40FE-ACF3-AABDD76D6A7B";
paths = (
{
closed = 1;
nodes = (
"170 658 OFFCURVE",
"326 594 OFFCURVE",
"511 556 CURVE SMOOTH",
"677 522 LINE SMOOTH",
"826 491 OFFCURVE",
"984 436 OFFCURVE",
"984 272 CURVE SMOOTH",
"984 119 OFFCURVE",
"861 28 OFFCURVE",
"658 28 CURVE SMOOTH",
"465 28 OFFCURVE",
"288 115 OFFCURVE",
"214 360 CURVE",
"178 360 LINE",
"243 86 OFFCURVE",
"441 -16 OFFCURVE",
"662 -16 CURVE SMOOTH",
"885 -16 OFFCURVE",
"1032 92 OFFCURVE",
"1032 272 CURVE SMOOTH",
"1032 472 OFFCURVE",
"840 533 OFFCURVE",
"685 565 CURVE SMOOTH",
"521 599 LINE SMOOTH",
"352 634 OFFCURVE",
"218 684 OFFCURVE",
"218 844 CURVE SMOOTH",
"218 991 OFFCURVE",
"340 1072 OFFCURVE",
"523 1072 CURVE SMOOTH",
"695 1072 OFFCURVE",
"883 986 OFFCURVE",
"943 750 CURVE",
"979 750 LINE",
"926 1013 OFFCURVE",
"732 1116 OFFCURVE",
"523 1116 CURVE SMOOTH",
"311 1116 OFFCURVE",
"170 1014 OFFCURVE",
"170 844 CURVE SMOOTH"
);
},
{
closed = 1;
nodes = (
"943 1100 LINE",
"943 808 LINE",
"979 750 LINE",
"987 750 LINE",
"987 1100 LINE"
);
},
{
closed = 1;
nodes = (
"214 0 LINE",
"214 290 LINE",
"178 360 LINE",
"170 360 LINE",
"170 0 LINE"
);
}
);
width = 1188;
},
{
layerId = "1E61A082-F045-49A7-AB52-DD1B03FD9B54";
paths = (
{
closed = 1;
nodes = (
"168 661 OFFCURVE",
"307 592 OFFCURVE",
"498 548 CURVE SMOOTH",
"644 514 LINE SMOOTH",
"796 479 OFFCURVE",
"940 419 OFFCURVE",
"940 263 CURVE SMOOTH",
"940 109 OFFCURVE",
"828 22 OFFCURVE",
"636 22 CURVE SMOOTH",
"450 22 OFFCURVE",
"282 123 OFFCURVE",
"212 400 CURVE",
"176 400 LINE",
"235 98 OFFCURVE",
"426 -16 OFFCURVE",
"640 -16 CURVE SMOOTH",
"852 -16 OFFCURVE",
"988 86 OFFCURVE",
"988 263 CURVE SMOOTH",
"988 446 OFFCURVE",
"827 512 OFFCURVE",
"652 553 CURVE SMOOTH",
"508 587 LINE SMOOTH",
"364 621 OFFCURVE",
"216 669 OFFCURVE",
"216 833 CURVE SMOOTH",
"216 980 OFFCURVE",
"326 1058 OFFCURVE",
"500 1058 CURVE SMOOTH",
"664 1058 OFFCURVE",
"844 961 OFFCURVE",
"898 700 CURVE",
"934 700 LINE",
"886 983 OFFCURVE",
"700 1096 OFFCURVE",
"500 1096 CURVE SMOOTH",
"298 1096 OFFCURVE",
"168 1000 OFFCURVE",
"168 833 CURVE SMOOTH"
);
},
{
closed = 1;
nodes = (
"902 1080 LINE",
"902 758 LINE",
"934 700 LINE",
"942 700 LINE",
"942 1080 LINE"
);
},
{
closed = 1;
nodes = (
"208 0 LINE",
"208 330 LINE",
"176 400 LINE",
"168 400 LINE",
"168 0 LINE"
);
}
);
width = 1132;
},
{
layerId = "219068EA-2B9B-40DC-949E-B60449C01B8A";
paths = (
{
closed = 1;
nodes = (
"86 587 OFFCURVE",
"246 484 OFFCURVE",
"526 425 CURVE SMOOTH",
"658 397 LINE SMOOTH",
"757 376 OFFCURVE",
"804 348 OFFCURVE",
"804 290 CURVE SMOOTH",
"804 232 OFFCURVE",
"752 200 OFFCURVE",
"674 200 CURVE SMOOTH",
"593 200 OFFCURVE",
"465 236 OFFCURVE",
"366 380 CURVE",
"218 380 LINE",
"296 102 OFFCURVE",
"501 -22 OFFCURVE",
"757 -22 CURVE SMOOTH",
"1013 -22 OFFCURVE",
"1186 102 OFFCURVE",
"1186 350 CURVE SMOOTH",
"1186 589 OFFCURVE",
"1010 688 OFFCURVE",
"738 746 CURVE SMOOTH",
"606 774 LINE SMOOTH",
"503 795 OFFCURVE",
"458 825 OFFCURVE",
"458 879 CURVE SMOOTH",
"458 933 OFFCURVE",
"510 960 OFFCURVE",
"579 960 CURVE SMOOTH",
"650 960 OFFCURVE",
"780 929 OFFCURVE",
"868 800 CURVE",
"1016 800 LINE",
"920 1071 OFFCURVE",
"732 1182 OFFCURVE",
"496 1182 CURVE SMOOTH",
"260 1182 OFFCURVE",
"86 1071 OFFCURVE",
"86 829 CURVE SMOOTH"
);
},
{
closed = 1;
nodes = (
"882 1160 LINE",
"882 942 LINE",
"1016 800 LINE",
"1114 800 LINE",
"1114 1160 LINE"
);
},
{
closed = 1;
nodes = (
"352 0 LINE",
"352 209 LINE",
"218 380 LINE",
"120 380 LINE",
"120 0 LINE"
);
}
);
width = 1248;
},
{
layerId = "0C29AA02-E021-4BD1-A2C4-87F681D64C35";
paths = (
{
closed = 1;
nodes = (
"74 575 OFFCURVE",
"229 482 OFFCURVE",
"499 415 CURVE SMOOTH",
"612 387 LINE SMOOTH",
"720 360 OFFCURVE",
"772 334 OFFCURVE",
"772 271 CURVE SMOOTH",
"772 202 OFFCURVE",
"714 164 OFFCURVE",
"626 164 CURVE SMOOTH",
"540 164 OFFCURVE",
"409 211 OFFCURVE",
"304 400 CURVE",
"172 400 LINE",
"246 108 OFFCURVE",
"454 -22 OFFCURVE",
"715 -22 CURVE SMOOTH",
"957 -22 OFFCURVE",
"1120 100 OFFCURVE",
"1120 344 CURVE SMOOTH",
"1120 581 OFFCURVE",
"950 670 OFFCURVE",
"687 736 CURVE SMOOTH",
"575 764 LINE SMOOTH",
"469 791 OFFCURVE",
"422 822 OFFCURVE",
"422 884 CURVE SMOOTH",
"422 946 OFFCURVE",
"478 976 OFFCURVE",
"555 976 CURVE SMOOTH",
"629 976 OFFCURVE",
"761 934 OFFCURVE",
"854 760 CURVE",
"986 760 LINE",
"893 1054 OFFCURVE",
"703 1162 OFFCURVE",
"461 1162 CURVE SMOOTH",
"239 1162 OFFCURVE",
"74 1053 OFFCURVE",
"74 815 CURVE SMOOTH"
);
},
{
closed = 1;
nodes = (
"850 1140 LINE",
"850 932 LINE",
"986 760 LINE",
"1048 760 LINE",
"1048 1140 LINE"
);
},
{
closed = 1;
nodes = (
"308 0 LINE",
"308 199 LINE",
"172 400 LINE",
"110 400 LINE",
"110 0 LINE"
);
}
);
width = 1184;
}
);
leftKerningGroup = s;
rightKerningGroup = s;
unicode = 0073;
},
{
glyphname = t;
lastChange = "2020-09-22 08:55:01 +0000";
layers = (
{
layerId = "CA54B7DC-FBBB-40FE-ACF3-AABDD76D6A7B";
paths = (
{
closed = 1;
nodes = (
"332 1264 LINE SMOOTH",
"332 1142 OFFCURVE",
"290 1100 OFFCURVE",
"172 1100 CURVE SMOOTH",
"8 1100 LINE",
"8 1056 LINE",
"328 1056 LINE",
"328 342 LINE SMOOTH",
"328 103 OFFCURVE",
"433 -20 OFFCURVE",
"630 -20 CURVE SMOOTH",
"827 -20 OFFCURVE",
"932 106 OFFCURVE",
"932 342 CURVE SMOOTH",
"932 560 LINE",
"888 560 LINE",
"888 342 LINE SMOOTH",
"888 135 OFFCURVE",
"804 24 OFFCURVE",
"632 24 CURVE SMOOTH",
"460 24 OFFCURVE",
"376 135 OFFCURVE",
"376 342 CURVE SMOOTH",
"376 1400 LINE",
"332 1400 LINE"
);
},
{
closed = 1;
nodes = (
"376 1056 LINE",
"992 1056 LINE",
"992 1100 LINE",
"376 1100 LINE"
);
}
);
width = 1016;
},
{
layerId = "1E61A082-F045-49A7-AB52-DD1B03FD9B54";
paths = (
{
closed = 1;
nodes = (
"318 1244 LINE SMOOTH",
"318 1122 OFFCURVE",
"276 1080 OFFCURVE",
"158 1080 CURVE SMOOTH",
"34 1080 LINE",
"34 1042 LINE",
"314 1042 LINE",
"314 282 LINE SMOOTH",
"314 82 OFFCURVE",
"402 -20 OFFCURVE",
"566 -20 CURVE SMOOTH",
"730 -20 OFFCURVE",
"818 85 OFFCURVE",
"818 282 CURVE SMOOTH",
"818 600 LINE",
"778 600 LINE",
"778 282 LINE SMOOTH",
"778 111 OFFCURVE",
"708 20 OFFCURVE",
"570 20 CURVE SMOOTH",
"432 20 OFFCURVE",
"362 111 OFFCURVE",
"362 282 CURVE SMOOTH",
"362 1380 LINE",
"318 1380 LINE"
);
},
{
closed = 1;
nodes = (
"362 1042 LINE",
"912 1042 LINE",
"912 1080 LINE",
"362 1080 LINE"
);
}
);
width = 990;
},
{
layerId = "219068EA-2B9B-40DC-949E-B60449C01B8A";
paths = (
{
closed = 1;
nodes = (
"416 1452 LINE SMOOTH",
"416 1236 OFFCURVE",
"330 1142 OFFCURVE",
"42 1142 CURVE SMOOTH",
"22 1142 LINE",
"22 930 LINE",
"270 930 LINE",
"270 399 LINE SMOOTH",
"270 146 OFFCURVE",
"401 -20 OFFCURVE",
"687 -20 CURVE SMOOTH",
"973 -20 OFFCURVE",
"1104 146 OFFCURVE",
"1104 399 CURVE SMOOTH",
"1104 640 LINE",
"874 640 LINE",
"874 403 LINE SMOOTH",
"874 331 OFFCURVE",
"844 290 OFFCURVE",
"772 290 CURVE SMOOTH",
"702 290 OFFCURVE",
"670 333 OFFCURVE",
"670 403 CURVE SMOOTH",
"670 1460 LINE",
"416 1460 LINE"
);
},
{
closed = 1;
nodes = (
"670 930 LINE",
"1132 930 LINE",
"1132 1160 LINE",
"670 1160 LINE"
);
}
);
width = 1172;
},
{
layerId = "0C29AA02-E021-4BD1-A2C4-87F681D64C35";
paths = (
{
closed = 1;
nodes = (
"388 1432 LINE SMOOTH",
"388 1216 OFFCURVE",
"309 1122 OFFCURVE",
"44 1122 CURVE SMOOTH",
"-16 1122 LINE",
"-16 932 LINE",
"212 932 LINE",
"212 363 LINE SMOOTH",
"212 132 OFFCURVE",
"340 -20 OFFCURVE",
"601 -20 CURVE SMOOTH",
"862 -20 OFFCURVE",
"990 132 OFFCURVE",
"990 363 CURVE SMOOTH",
"990 700 LINE",
"786 700 LINE",
"786 375 LINE SMOOTH",
"786 307 OFFCURVE",
"760 268 OFFCURVE",
"699 268 CURVE SMOOTH",
"639 268 OFFCURVE",
"612 309 OFFCURVE",
"612 375 CURVE SMOOTH",
"612 1460 LINE",
"388 1460 LINE"
);
},
{
closed = 1;
nodes = (
"612 932 LINE",
"1052 932 LINE",
"1052 1140 LINE",
"612 1140 LINE"
);
}
);
width = 1078;
}
);
leftKerningGroup = t;
rightKerningGroup = t;
unicode = 0074;
},
{
glyphname = u;
lastChange = "2020-09-22 10:45:57 +0000";
layers = (
{
hints = (
{
origin = "{1, 8}";
scale = "{-0.86, 1}";
type = Corner;
name = _corner.Serif;
},
{
origin = "{0, 1}";
scale = "{-0.9, 1}";
type = Corner;
name = _corner.Serif;
},
{
origin = "{0, 5}";
scale = "{-0.9, 1}";
type = Corner;
name = _corner.Serif;
}
);
layerId = "CA54B7DC-FBBB-40FE-ACF3-AABDD76D6A7B";
paths = (
{
closed = 1;
nodes = (
"1118 1100 LINE",
"1070 1100 LINE",
"1070 390 LINE",
"1078 390 LINE",
"1078 0 LINE",
"1118 0 LINE"
);
},
{
closed = 1;
nodes = (
"1070 548 LINE",
"1070 189 OFFCURVE",
"863 28 OFFCURVE",
"642 28 CURVE SMOOTH",
"449 28 OFFCURVE",
"328 119 OFFCURVE",
"328 336 CURVE SMOOTH",
"328 1102 LINE",
"280 1102 LINE",
"280 336 LINE SMOOTH",
"280 82 OFFCURVE",
"429 -16 OFFCURVE",
"640 -16 CURVE SMOOTH",
"883 -16 OFFCURVE",
"1105 146 OFFCURVE",
"1105 548 CURVE"
);
}
);
width = 1411;
},
{
hints = (
{
origin = "{0, 5}";
scale = "{-0.9, 1}";
type = Corner;
name = _corner.Serif;
},
{
origin = "{0, 1}";
scale = "{-0.9, 1}";
type = Corner;
name = _corner.Serif;
},
{
origin = "{1, 8}";
scale = "{-0.86, 1}";
type = Corner;
name = _corner.Serif;
}
);
layerId = "1E61A082-F045-49A7-AB52-DD1B03FD9B54";
paths = (
{
closed = 1;
nodes = (
"1008 1080 LINE",
"960 1080 LINE",
"960 380 LINE",
"968 380 LINE",
"968 0 LINE",
"1008 0 LINE"
);
},
{
closed = 1;
nodes = (
"960 498 LINE",
"960 172 OFFCURVE",
"767 22 OFFCURVE",
"560 22 CURVE SMOOTH",
"385 22 OFFCURVE",
"278 113 OFFCURVE",
"278 306 CURVE SMOOTH",
"278 1080 LINE",
"230 1080 LINE",
"230 306 LINE SMOOTH",
"230 82 OFFCURVE",
"366 -16 OFFCURVE",
"558 -16 CURVE SMOOTH",
"787 -16 OFFCURVE",
"987 128 OFFCURVE",
"987 498 CURVE"
);
}
);
width = 1249;
},
{
hints = (
{
origin = "{0, 1}";
scale = "{-0.96, 0.98}";
type = Corner;
name = _corner.Serif;
},
{
origin = "{0, 5}";
scale = "{-0.94, 0.98}";
type = Corner;
name = _corner.Serif;
},
{
origin = "{1, 8}";
scale = "{-0.76, 0.98}";
type = Corner;
name = _corner.Serif;
}
);
layerId = "219068EA-2B9B-40DC-949E-B60449C01B8A";
paths = (
{
closed = 1;
nodes = (
"1266 1161 LINE",
"866 1161 LINE",
"866 382 LINE",
"916 390 LINE",
"916 0 LINE",
"1266 0 LINE"
);
},
{
closed = 1;
nodes = (
"866 449 LINE",
"866 303 OFFCURVE",
"790 252 OFFCURVE",
"703 252 CURVE SMOOTH",
"619 252 OFFCURVE",
"564 303 OFFCURVE",
"564 403 CURVE SMOOTH",
"564 1161 LINE",
"164 1161 LINE",
"164 382 LINE SMOOTH",
"164 101 OFFCURVE",
"325 -22 OFFCURVE",
"547 -22 CURVE SMOOTH",
"859 -22 OFFCURVE",
"941 164 OFFCURVE",
"941 451 CURVE"
);
}
);
width = 1465;
},
{
hints = (
{
origin = "{0, 1}";
scale = "{-0.96, 0.98}";
type = Corner;
name = _corner.Serif;
options = 1;
},
{
origin = "{0, 5}";
scale = "{-0.96, 0.98}";
type = Corner;
name = _corner.Serif;
},
{
origin = "{1, 8}";
scale = "{-0.76, 0.98}";
type = Corner;
name = _corner.Serif;
}
);
layerId = "0C29AA02-E021-4BD1-A2C4-87F681D64C35";
paths = (
{
closed = 1;
nodes = (
"1238 1140 LINE",
"838 1140 LINE",
"838 340 LINE",
"888 348 LINE",
"888 0 LINE",
"1238 0 LINE"
);
},
{
closed = 1;
nodes = (
"838 397 LINE",
"838 266 OFFCURVE",
"767 220 OFFCURVE",
"686 220 CURVE SMOOTH",
"609 220 OFFCURVE",
"558 264 OFFCURVE",
"558 351 CURVE SMOOTH",
"558 1140 LINE",
"158 1140 LINE",
"158 361 LINE SMOOTH",
"158 95 OFFCURVE",
"315 -22 OFFCURVE",
"530 -22 CURVE SMOOTH",
"829 -22 OFFCURVE",
"909 143 OFFCURVE",
"909 399 CURVE"
);
}
);
width = 1428;
}
);
leftKerningGroup = u;
rightKerningGroup = u;
rightMetricsKey = l;
unicode = 0075;
},
{
glyphname = v;
lastChange = "2020-09-22 09:24:34 +0000";
layers = (
{
hints = (
{
origin = "{0, 2}";
scale = "{0.6, 1}";
type = Corner;
name = _corner.Serif;
},
{
origin = "{0, 3}";
scale = "{-1.1, 1}";
type = Corner;
name = _corner.Serif;
options = 1;
},
{
origin = "{0, 6}";
scale = "{1.1, 1}";
type = Corner;
name = _corner.Serif;
},
{
origin = "{0, 7}";
scale = "{-0.6, 1}";
type = Corner;
name = _corner.Serif;
options = 1;
}
);
layerId = "CA54B7DC-FBBB-40FE-ACF3-AABDD76D6A7B";
paths = (
{
closed = 1;
nodes = (
"596 0 LINE",
"638 0 LINE",
"1084 1100 LINE",
"1037 1100 LINE",
"611 45 LINE",
"627 45 LINE",
"202 1100 LINE",
"150 1100 LINE"
);
}
);
width = 1234;
},
{
hints = (
{
origin = "{0, 2}";
scale = "{0.6, 1}";
type = Corner;
name = _corner.Serif;
},
{
origin = "{0, 3}";
scale = "{-1.1, 1}";
type = Corner;
name = _corner.Serif;
options = 1;
},
{
origin = "{0, 6}";
scale = "{1.1, 1}";
type = Corner;
name = _corner.Serif;
},
{
origin = "{0, 7}";
scale = "{-0.6, 1}";
type = Corner;
name = _corner.Serif;
options = 1;
}
);
layerId = "1E61A082-F045-49A7-AB52-DD1B03FD9B54";
paths = (
{
closed = 1;
nodes = (
"567 0 LINE",
"607 0 LINE",
"1022 1080 LINE",
"979 1080 LINE",
"584 45 LINE",
"599 45 LINE",
"203 1080 LINE",
"152 1080 LINE"
);
}
);
width = 1174;
},
{
hints = (
{
origin = "{0, 2}";
scale = "{0.3, 0.98}";
type = Corner;
name = _corner.Serif;
},
{
origin = "{0, 3}";
scale = "{-1.4, 0.98}";
type = Corner;
name = _corner.Serif;
options = 1;
},
{
origin = "{0, 6}";
scale = "{1.4, 0.98}";
type = Corner;
name = _corner.Serif;
},
{
origin = "{0, 7}";
scale = "{-0.3, 0.98}";
type = Corner;
name = _corner.Serif;
options = 1;
}
);
layerId = "219068EA-2B9B-40DC-949E-B60449C01B8A";
paths = (
{
closed = 1;
nodes = (
"523 0 LINE",
"857 0 LINE",
"1353 1160 LINE",
"1064 1160 LINE",
"689 272 LINE",
"815 270 LINE",
"462 1160 LINE",
"27 1160 LINE"
);
}
);
width = 1380;
},
{
hints = (
{
origin = "{0, 2}";
scale = "{0.3, 0.98}";
type = Corner;
name = _corner.Serif;
},
{
origin = "{0, 3}";
scale = "{-1.36, 0.98}";
type = Corner;
name = _corner.Serif;
options = 1;
},
{
origin = "{0, 6}";
scale = "{1.36, 0.98}";
type = Corner;
name = _corner.Serif;
},
{
origin = "{0, 7}";
scale = "{-0.3, 0.98}";
type = Corner;
name = _corner.Serif;
options = 1;
}
);
layerId = "0C29AA02-E021-4BD1-A2C4-87F681D64C35";
paths = (
{
closed = 1;
nodes = (
"511 0 LINE",
"790 0 LINE",
"1258 1140 LINE",
"1029 1140 LINE",
"678 272 LINE",
"806 270 LINE",
"475 1140 LINE",
"43 1140 LINE"
);
}
);
width = 1310;
}
);
leftKerningGroup = v;
rightKerningGroup = v;
unicode = 0076;
},
{
glyphname = w;
lastChange = "2020-09-22 09:33:06 +0000";
layers = (
{
hints = (
{
origin = "{0, 2}";
scale = "{0.6, 1}";
type = Corner;
name = _corner.Serif;
},
{
origin = "{0, 3}";
scale = "{-1.1, 1}";
type = Corner;
name = _corner.Serif;
options = 1;
},
{
origin = "{0, 6}";
scale = "{1.1, 1}";
type = Corner;
name = _corner.Serif;
},
{
origin = "{0, 7}";
scale = "{-0.6, 1}";
type = Corner;
name = _corner.Serif;
options = 1;
},
{
origin = "{1, 6}";
scale = "{1.1, 1}";
type = Corner;
name = _corner.Serif;
},
{
origin = "{1, 7}";
scale = "{-0.6, 1}";
type = Corner;
name = _corner.Serif;
options = 1;
}
);
layerId = "CA54B7DC-FBBB-40FE-ACF3-AABDD76D6A7B";
paths = (
{
closed = 1;
nodes = (
"1140 0 LINE",
"1184 0 LINE",
"1556 1100 LINE",
"1509 1100 LINE",
"1156 49 LINE",
"1172 49 LINE",
"819 1100 LINE",
"768 1100 LINE"
);
},
{
closed = 1;
nodes = (
"524 0 LINE",
"568 0 LINE",
"870 894 LINE",
"848 965 LINE",
"540 49 LINE",
"556 49 LINE",
"203 1100 LINE",
"152 1100 LINE"
);
}
);
width = 1708;
},
{
hints = (
{
origin = "{0, 2}";
scale = "{0.6, 1}";
type = Corner;
name = _corner.Serif;
},
{
origin = "{0, 3}";
scale = "{-1.1, 1}";
type = Corner;
name = _corner.Serif;
options = 1;
},
{
origin = "{0, 6}";
scale = "{1.1, 1}";
type = Corner;
name = _corner.Serif;
},
{
origin = "{0, 7}";
scale = "{-0.6, 1}";
type = Corner;
name = _corner.Serif;
options = 1;
},
{
origin = "{1, 6}";
scale = "{1.1, 1}";
type = Corner;
name = _corner.Serif;
},
{
origin = "{1, 7}";
scale = "{-0.6, 1}";
type = Corner;
name = _corner.Serif;
options = 1;
}
);
layerId = "1E61A082-F045-49A7-AB52-DD1B03FD9B54";
paths = (
{
closed = 1;
nodes = (
"1045 0 LINE",
"1087 0 LINE",
"1419 1080 LINE",
"1377 1080 LINE",
"1062 49 LINE",
"1078 49 LINE",
"763 1080 LINE",
"713 1080 LINE"
);
},
{
closed = 1;
nodes = (
"485 0 LINE",
"527 0 LINE",
"802 895 LINE",
"781 961 LINE",
"502 49 LINE",
"518 49 LINE",
"203 1080 LINE",
"153 1080 LINE"
);
}
);
width = 1572;
},
{
hints = (
{
origin = "{0, 2}";
scale = "{0.3, 0.98}";
type = Corner;
name = _corner.Serif;
},
{
origin = "{0, 3}";
scale = "{-1.31, 0.98}";
type = Corner;
name = _corner.Serif;
options = 1;
},
{
origin = "{0, 6}";
scale = "{1.31, 0.98}";
type = Corner;
name = _corner.Serif;
},
{
origin = "{0, 7}";
scale = "{-0.35, 0.98}";
type = Corner;
name = _corner.Serif;
options = 1;
},
{
origin = "{1, 6}";
scale = "{1.03, 0.98}";
type = Corner;
name = _corner.Serif;
},
{
origin = "{1, 7}";
scale = "{-0.3, 0.98}";
type = Corner;
name = _corner.Serif;
options = 1;
}
);
layerId = "219068EA-2B9B-40DC-949E-B60449C01B8A";
paths = (
{
closed = 1;
nodes = (
"1228 0 LINE",
"1553 0 LINE",
"2019 1160 LINE",
"1739 1160 LINE",
"1387 272 LINE",
"1498 270 LINE",
"1167 1160 LINE",
"762 1160 LINE"
);
},
{
closed = 1;
nodes = (
"496 0 LINE",
"824 0 LINE",
"1090 663 LINE",
"969 1018 LINE",
"673 272 LINE",
"784 270 LINE",
"453 1160 LINE",
"30 1160 LINE"
);
}
);
width = 2049;
},
{
hints = (
{
origin = "{0, 2}";
scale = "{0.3, 0.98}";
type = Corner;
name = _corner.Serif;
},
{
origin = "{0, 3}";
scale = "{-1.21, 0.98}";
type = Corner;
name = _corner.Serif;
options = 1;
},
{
origin = "{0, 6}";
scale = "{1.21, 0.98}";
type = Corner;
name = _corner.Serif;
},
{
origin = "{0, 7}";
scale = "{-0.28, 0.98}";
type = Corner;
name = _corner.Serif;
options = 1;
},
{
origin = "{1, 6}";
scale = "{0.92, 0.98}";
type = Corner;
name = _corner.Serif;
},
{
origin = "{1, 7}";
scale = "{-0.3, 0.98}";
type = Corner;
name = _corner.Serif;
options = 1;
}
);
layerId = "0C29AA02-E021-4BD1-A2C4-87F681D64C35";
paths = (
{
closed = 1;
nodes = (
"1174 0 LINE",
"1442 0 LINE",
"1880 1140 LINE",
"1653 1140 LINE",
"1326 272 LINE",
"1454 270 LINE",
"1148 1140 LINE",
"736 1140 LINE"
);
},
{
closed = 1;
nodes = (
"483 0 LINE",
"751 0 LINE",
"980 596 LINE",
"889 901 LINE",
"652 272 LINE",
"780 270 LINE",
"474 1140 LINE",
"45 1140 LINE"
);
}
);
width = 1934;
}
);
leftKerningGroup = w;
leftMetricsKey = v;
rightKerningGroup = w;
rightMetricsKey = v;
unicode = 0077;
},
